%TF.GenerationSoftware,KiCad,Pcbnew,8.0.7*%
%TF.CreationDate,2025-01-04T16:04:19-05:00*%
%TF.ProjectId,BubbleBox,42756262-6c65-4426-9f78-2e6b69636164,rev?*%
%TF.SameCoordinates,Original*%
%TF.FileFunction,Component,L1,Top*%
%TF.FilePolarity,Positive*%
%FSLAX46Y46*%
G04 Gerber Fmt 4.6, Leading zero omitted, Abs format (unit mm)*
G04 Created by KiCad (PCBNEW 8.0.7) date 2025-01-04 16:04:19*
%MOMM*%
%LPD*%
G01*
G04 APERTURE LIST*
%TA.AperFunction,ComponentMain*%
%ADD10C,0.300000*%
%TD*%
%TA.AperFunction,ComponentOutline,Footprint*%
%ADD11C,0.100000*%
%TD*%
%TA.AperFunction,ComponentPin*%
%ADD12C,0.100000*%
%TD*%
G04 APERTURE END LIST*
D10*
%TO.C,S23*%
%TO.CFtp,gateron-ks27-choc-v1-mx-hotswap*%
%TO.CVal,Keyswitch*%
%TO.CLbN,BubbleBox_Footprints*%
%TO.CMnt,TH*%
%TO.CRot,168*%
X111706876Y-132690345D03*
D11*
X119565280Y-141772670D02*
X122611186Y-127442807D01*
X104466548Y-123586045D01*
X101420642Y-137915908D01*
X119565280Y-141772670D01*
D12*
%TO.P,S23,*%
X117086688Y-133833859D03*
X116675866Y-133746536D03*
X117377283Y-130061850D03*
X117387678Y-130012944D03*
X113054568Y-138855264D03*
X115247562Y-128249451D03*
X111706876Y-132690345D03*
X111706876Y-132690345D03*
X112933555Y-126919274D03*
X108508229Y-129413708D03*
X106425842Y-136372827D03*
X106737886Y-131634154D03*
X105727716Y-135713266D03*
X106327064Y-131546831D03*
%TD*%
D10*
%TO.C,S14*%
%TO.CFtp,gateron-ks27-choc-v1-mx-hotswap*%
%TO.CVal,Keyswitch*%
%TO.CLbN,BubbleBox_Footprints*%
%TO.CMnt,TH*%
%TO.CRot,-168*%
X196614576Y-57579445D03*
D11*
X207487699Y-62680261D02*
X204441793Y-48350398D01*
X186297155Y-52207160D01*
X189343061Y-66537023D01*
X207487699Y-62680261D01*
D12*
%TO.P,S14,*%
X201994388Y-56435931D03*
X201583566Y-56523254D03*
X200725645Y-52871833D03*
X200715250Y-52822926D03*
X200353252Y-62663223D03*
X198042880Y-52082359D03*
X196614576Y-57579445D03*
X196614576Y-57579445D03*
X195387897Y-51808374D03*
X192359738Y-55887094D03*
X193287912Y-63091550D03*
X191645586Y-58635636D03*
X192381875Y-62772964D03*
X191234764Y-58722959D03*
%TD*%
D10*
%TO.C,S10*%
%TO.CFtp,gateron-ks27-choc-v1-mx-hotswap*%
%TO.CVal,Keyswitch*%
%TO.CLbN,BubbleBox_Footprints*%
%TO.CMnt,TH*%
%TO.CRot,-168*%
X177522276Y-132690345D03*
D11*
X188395399Y-137791161D02*
X185349493Y-123461298D01*
X167204855Y-127318060D01*
X170250761Y-141647923D01*
X188395399Y-137791161D01*
D12*
%TO.P,S10,*%
X182902088Y-131546831D03*
X182491266Y-131634154D03*
X181633345Y-127982733D03*
X181622950Y-127933826D03*
X181260952Y-137774123D03*
X178950580Y-127193259D03*
X177522276Y-132690345D03*
X177522276Y-132690345D03*
X176295597Y-126919274D03*
X173267438Y-130997994D03*
X174195612Y-138202450D03*
X172553286Y-133746536D03*
X173289575Y-137883864D03*
X172142464Y-133833859D03*
%TD*%
D10*
%TO.C,S19*%
%TO.CFtp,gateron-ks27-choc-v1-mx-hotswap*%
%TO.CVal,Keyswitch*%
%TO.CLbN,BubbleBox_Footprints*%
%TO.CMnt,TH*%
%TO.CRot,-168*%
X249727546Y-38111235D03*
D11*
X260600669Y-43212051D02*
X257554763Y-28882188D01*
X239410125Y-32738950D01*
X242456031Y-47068813D01*
X260600669Y-43212051D01*
D12*
%TO.P,S19,*%
X255107358Y-36967721D03*
X254696536Y-37055044D03*
X253838615Y-33403623D03*
X253828220Y-33354716D03*
X253466222Y-43195013D03*
X251155850Y-32614149D03*
X249727546Y-38111235D03*
X249727546Y-38111235D03*
X248500867Y-32340164D03*
X245472708Y-36418884D03*
X246400882Y-43623340D03*
X244758556Y-39167426D03*
X245494845Y-43304754D03*
X244347734Y-39254749D03*
%TD*%
D10*
%TO.C,S4*%
%TO.CFtp,gateron-ks27-choc-v1-mx-hotswap*%
%TO.CVal,Keyswitch*%
%TO.CLbN,BubbleBox_Footprints*%
%TO.CMnt,TH*%
%TO.CRot,168*%
X72295476Y-18500945D03*
D11*
X80153880Y-27583270D02*
X83199786Y-13253407D01*
X65055148Y-9396645D01*
X62009242Y-23726508D01*
X80153880Y-27583270D01*
D12*
%TO.P,S4,*%
X77675288Y-19644459D03*
X77264466Y-19557136D03*
X77965883Y-15872450D03*
X77976278Y-15823544D03*
X73643168Y-24665864D03*
X75836162Y-14060051D03*
X72295476Y-18500945D03*
X72295476Y-18500945D03*
X73522155Y-12729874D03*
X69096829Y-15224308D03*
X67014442Y-22183427D03*
X67326486Y-17444754D03*
X66316316Y-21523866D03*
X66915664Y-17357431D03*
%TD*%
D10*
%TO.C,S13*%
%TO.CFtp,gateron-ks27-choc-v1-mx-hotswap*%
%TO.CVal,Keyswitch*%
%TO.CLbN,BubbleBox_Footprints*%
%TO.CMnt,TH*%
%TO.CRot,-168*%
X192040516Y-36060225D03*
D11*
X202913639Y-41161041D02*
X199867733Y-26831178D01*
X181723095Y-30687940D01*
X184769001Y-45017803D01*
X202913639Y-41161041D01*
D12*
%TO.P,S13,*%
X197420328Y-34916711D03*
X197009506Y-35004034D03*
X196151585Y-31352613D03*
X196141190Y-31303706D03*
X195779192Y-41144003D03*
X193468820Y-30563139D03*
X192040516Y-36060225D03*
X192040516Y-36060225D03*
X190813837Y-30289154D03*
X187785678Y-34367874D03*
X188713852Y-41572330D03*
X187071526Y-37116416D03*
X187807815Y-41253744D03*
X186660704Y-37203739D03*
%TD*%
D10*
%TO.C,S15*%
%TO.CFtp,gateron-ks27-choc-v1-mx-hotswap*%
%TO.CVal,Keyswitch*%
%TO.CLbN,BubbleBox_Footprints*%
%TO.CMnt,TH*%
%TO.CRot,-168*%
X211706906Y-101910335D03*
D11*
X222580029Y-107011151D02*
X219534123Y-92681288D01*
X201389485Y-96538050D01*
X204435391Y-110867913D01*
X222580029Y-107011151D01*
D12*
%TO.P,S15,*%
X217086718Y-100766821D03*
X216675896Y-100854144D03*
X215817975Y-97202723D03*
X215807580Y-97153816D03*
X215445582Y-106994113D03*
X213135210Y-96413249D03*
X211706906Y-101910335D03*
X211706906Y-101910335D03*
X210480227Y-96139264D03*
X207452068Y-100217984D03*
X208380242Y-107422440D03*
X206737916Y-102966526D03*
X207474205Y-107103854D03*
X206327094Y-103053849D03*
%TD*%
D10*
%TO.C,S2*%
%TO.CFtp,gateron-ks27-choc-v1-mx-hotswap*%
%TO.CVal,Keyswitch*%
%TO.CLbN,BubbleBox_Footprints*%
%TO.CMnt,TH*%
%TO.CRot,168*%
X39501576Y-38111245D03*
D11*
X47359980Y-47193570D02*
X50405886Y-32863707D01*
X32261248Y-29006945D01*
X29215342Y-43336808D01*
X47359980Y-47193570D01*
D12*
%TO.P,S2,*%
X44881388Y-39254759D03*
X44470566Y-39167436D03*
X45171983Y-35482750D03*
X45182378Y-35433844D03*
X40849268Y-44276164D03*
X43042262Y-33670351D03*
X39501576Y-38111245D03*
X39501576Y-38111245D03*
X40728255Y-32340174D03*
X36302929Y-34834608D03*
X34220542Y-41793727D03*
X34532586Y-37055054D03*
X33522416Y-41134166D03*
X34121764Y-36967731D03*
%TD*%
D10*
%TO.C,S3*%
%TO.CFtp,gateron-ks27-choc-v1-mx-hotswap*%
%TO.CVal,Keyswitch*%
%TO.CLbN,BubbleBox_Footprints*%
%TO.CMnt,TH*%
%TO.CRot,168*%
X67721376Y-40020145D03*
D11*
X75579780Y-49102470D02*
X78625686Y-34772607D01*
X60481048Y-30915845D01*
X57435142Y-45245708D01*
X75579780Y-49102470D01*
D12*
%TO.P,S3,*%
X73101188Y-41163659D03*
X72690366Y-41076336D03*
X73391783Y-37391650D03*
X73402178Y-37342744D03*
X69069068Y-46185064D03*
X71262062Y-35579251D03*
X67721376Y-40020145D03*
X67721376Y-40020145D03*
X68948055Y-34249074D03*
X64522729Y-36743508D03*
X62440342Y-43702627D03*
X62752386Y-38963954D03*
X61742216Y-43043066D03*
X62341564Y-38876631D03*
%TD*%
D10*
%TO.C,S20*%
%TO.CFtp,gateron-ks27-choc-v1-mx-hotswap*%
%TO.CVal,Keyswitch*%
%TO.CLbN,BubbleBox_Footprints*%
%TO.CMnt,TH*%
%TO.CRot,-168*%
X275868206Y-26420825D03*
D11*
X286741329Y-31521641D02*
X283695423Y-17191778D01*
X265550785Y-21048540D01*
X268596691Y-35378403D01*
X286741329Y-31521641D01*
D12*
%TO.P,S20,*%
X281248018Y-25277311D03*
X280837196Y-25364634D03*
X279979275Y-21713213D03*
X279968880Y-21664306D03*
X279606882Y-31504603D03*
X277296510Y-20923739D03*
X275868206Y-26420825D03*
X275868206Y-26420825D03*
X274641527Y-20649754D03*
X271613368Y-24728474D03*
X272541542Y-31932930D03*
X270899216Y-27477016D03*
X271635505Y-31614344D03*
X270488394Y-27564339D03*
%TD*%
D10*
%TO.C,S16*%
%TO.CFtp,gateron-ks27-choc-v1-mx-hotswap*%
%TO.CVal,Keyswitch*%
%TO.CLbN,BubbleBox_Footprints*%
%TO.CMnt,TH*%
%TO.CRot,-168*%
X216933706Y-18500925D03*
D11*
X227806829Y-23601741D02*
X224760923Y-9271878D01*
X206616285Y-13128640D01*
X209662191Y-27458503D01*
X227806829Y-23601741D01*
D12*
%TO.P,S16,*%
X222313518Y-17357411D03*
X221902696Y-17444734D03*
X221044775Y-13793313D03*
X221034380Y-13744406D03*
X220672382Y-23584703D03*
X218362010Y-13003839D03*
X216933706Y-18500925D03*
X216933706Y-18500925D03*
X215707027Y-12729854D03*
X212678868Y-16808574D03*
X213607042Y-24013030D03*
X211964716Y-19557116D03*
X212701005Y-23694444D03*
X211553894Y-19644439D03*
%TD*%
D10*
%TO.C,S7*%
%TO.CFtp,gateron-ks27-choc-v1-mx-hotswap*%
%TO.CVal,Keyswitch*%
%TO.CLbN,BubbleBox_Footprints*%
%TO.CMnt,TH*%
%TO.CRot,180*%
X144614576Y-60690345D03*
D11*
X154189576Y-67940345D02*
X154189576Y-53290345D01*
X135639576Y-53290345D01*
X135639576Y-67940345D01*
X154189576Y-67940345D01*
D12*
%TO.P,S7,*%
X150114576Y-60690345D03*
X149694576Y-60690345D03*
X149614576Y-56940345D03*
X149614576Y-56890345D03*
X147214576Y-66440345D03*
X147154576Y-55610345D03*
X144614576Y-60690345D03*
X144614576Y-60690345D03*
X144614576Y-54790345D03*
X140804576Y-58150345D03*
X140214576Y-65390345D03*
X139534576Y-60690345D03*
X139394576Y-64890345D03*
X139114576Y-60690345D03*
%TD*%
D10*
%TO.C,S17*%
%TO.CFtp,gateron-ks27-choc-v1-mx-hotswap*%
%TO.CVal,Keyswitch*%
%TO.CLbN,BubbleBox_Footprints*%
%TO.CMnt,TH*%
%TO.CRot,-168*%
X221507766Y-40020175D03*
D11*
X232380889Y-45120991D02*
X229334983Y-30791128D01*
X211190345Y-34647890D01*
X214236251Y-48977753D01*
X232380889Y-45120991D01*
D12*
%TO.P,S17,*%
X226887578Y-38876661D03*
X226476756Y-38963984D03*
X225618835Y-35312563D03*
X225608440Y-35263656D03*
X225246442Y-45103953D03*
X222936070Y-34523089D03*
X221507766Y-40020175D03*
X221507766Y-40020175D03*
X220281087Y-34249104D03*
X217252928Y-38327824D03*
X218181102Y-45532280D03*
X216538776Y-41076366D03*
X217275065Y-45213694D03*
X216127954Y-41163689D03*
%TD*%
D10*
%TO.C,S5*%
%TO.CFtp,gateron-ks27-choc-v1-mx-hotswap*%
%TO.CVal,Keyswitch*%
%TO.CLbN,BubbleBox_Footprints*%
%TO.CMnt,TH*%
%TO.CRot,168*%
X92614576Y-57579445D03*
D11*
X100472980Y-66661770D02*
X103518886Y-52331907D01*
X85374248Y-48475145D01*
X82328342Y-62805008D01*
X100472980Y-66661770D01*
D12*
%TO.P,S5,*%
X97994388Y-58722959D03*
X97583566Y-58635636D03*
X98284983Y-54950950D03*
X98295378Y-54902044D03*
X93962268Y-63744364D03*
X96155262Y-53138551D03*
X92614576Y-57579445D03*
X92614576Y-57579445D03*
X93841255Y-51808374D03*
X89415929Y-54302808D03*
X87333542Y-61261927D03*
X87645586Y-56523254D03*
X86635416Y-60602366D03*
X87234764Y-56435931D03*
%TD*%
D10*
%TO.C,S1*%
%TO.CFtp,gateron-ks27-choc-v1-mx-hotswap*%
%TO.CVal,Keyswitch*%
%TO.CLbN,BubbleBox_Footprints*%
%TO.CMnt,TH*%
%TO.CRot,168*%
X8786876Y-47940045D03*
D11*
X16645280Y-57022370D02*
X19691186Y-42692507D01*
X1546548Y-38835745D01*
X-1499358Y-53165608D01*
X16645280Y-57022370D01*
D12*
%TO.P,S1,*%
X14166688Y-49083559D03*
X13755866Y-48996236D03*
X14457283Y-45311550D03*
X14467678Y-45262644D03*
X10134568Y-54104964D03*
X12327562Y-43499151D03*
X8786876Y-47940045D03*
X8786876Y-47940045D03*
X10013555Y-42168974D03*
X5588229Y-44663408D03*
X3505842Y-51622527D03*
X3817886Y-46883854D03*
X2807716Y-50962966D03*
X3407064Y-46796531D03*
%TD*%
D10*
%TO.C,S18*%
%TO.CFtp,gateron-ks27-choc-v1-mx-hotswap*%
%TO.CVal,Keyswitch*%
%TO.CLbN,BubbleBox_Footprints*%
%TO.CMnt,TH*%
%TO.CRot,-168*%
X245153486Y-16591995D03*
D11*
X256026609Y-21692811D02*
X252980703Y-7362948D01*
X234836065Y-11219710D01*
X237881971Y-25549573D01*
X256026609Y-21692811D01*
D12*
%TO.P,S18,*%
X250533298Y-15448481D03*
X250122476Y-15535804D03*
X249264555Y-11884383D03*
X249254160Y-11835476D03*
X248892162Y-21675773D03*
X246581790Y-11094909D03*
X245153486Y-16591995D03*
X245153486Y-16591995D03*
X243926807Y-10820924D03*
X240898648Y-14899644D03*
X241826822Y-22104100D03*
X240184496Y-17648186D03*
X240920785Y-21785514D03*
X239773674Y-17735509D03*
%TD*%
D10*
%TO.C,S6*%
%TO.CFtp,gateron-ks27-choc-v1-mx-hotswap*%
%TO.CVal,Keyswitch*%
%TO.CLbN,BubbleBox_Footprints*%
%TO.CMnt,TH*%
%TO.CRot,180*%
X122614576Y-60690345D03*
D11*
X132189576Y-67940345D02*
X132189576Y-53290345D01*
X113639576Y-53290345D01*
X113639576Y-67940345D01*
X132189576Y-67940345D01*
D12*
%TO.P,S6,*%
X128114576Y-60690345D03*
X127694576Y-60690345D03*
X127614576Y-56940345D03*
X127614576Y-56890345D03*
X125214576Y-66440345D03*
X125154576Y-55610345D03*
X122614576Y-60690345D03*
X122614576Y-60690345D03*
X122614576Y-54790345D03*
X118804576Y-58150345D03*
X118214576Y-65390345D03*
X117534576Y-60690345D03*
X117394576Y-64890345D03*
X117114576Y-60690345D03*
%TD*%
D10*
%TO.C,S21*%
%TO.CFtp,gateron-ks27-choc-v1-mx-hotswap*%
%TO.CVal,Keyswitch*%
%TO.CLbN,BubbleBox_Footprints*%
%TO.CMnt,TH*%
%TO.CRot,-168*%
X280442266Y-47940075D03*
D11*
X291315389Y-53040891D02*
X288269483Y-38711028D01*
X270124845Y-42567790D01*
X273170751Y-56897653D01*
X291315389Y-53040891D01*
D12*
%TO.P,S21,*%
X285822078Y-46796561D03*
X285411256Y-46883884D03*
X284553335Y-43232463D03*
X284542940Y-43183556D03*
X284180942Y-53023853D03*
X281870570Y-42442989D03*
X280442266Y-47940075D03*
X280442266Y-47940075D03*
X279215587Y-42169004D03*
X276187428Y-46247724D03*
X277115602Y-53452180D03*
X275473276Y-48996266D03*
X276209565Y-53133594D03*
X275062454Y-49083589D03*
%TD*%
D10*
%TO.C,S12*%
%TO.CFtp,gateron-ks27-choc-v1-mx-hotswap*%
%TO.CVal,Keyswitch*%
%TO.CLbN,BubbleBox_Footprints*%
%TO.CMnt,TH*%
%TO.CRot,-168*%
X189832576Y-94802945D03*
D11*
X200705699Y-99903761D02*
X197659793Y-85573898D01*
X179515155Y-89430660D01*
X182561061Y-103760523D01*
X200705699Y-99903761D01*
D12*
%TO.P,S12,*%
X195212388Y-93659431D03*
X194801566Y-93746754D03*
X193943645Y-90095333D03*
X193933250Y-90046426D03*
X193571252Y-99886723D03*
X191260880Y-89305859D03*
X189832576Y-94802945D03*
X189832576Y-94802945D03*
X188605897Y-89031874D03*
X185577738Y-93110594D03*
X186505912Y-100315050D03*
X184863586Y-95859136D03*
X185599875Y-99996464D03*
X184452764Y-95946459D03*
%TD*%
D10*
%TO.C,S22*%
%TO.CFtp,gateron-ks27-choc-v1-mx-hotswap*%
%TO.CVal,Keyswitch*%
%TO.CLbN,BubbleBox_Footprints*%
%TO.CMnt,TH*%
%TO.CRot,168*%
X94614576Y-117300345D03*
D11*
X102472980Y-126382670D02*
X105518886Y-112052807D01*
X87374248Y-108196045D01*
X84328342Y-122525908D01*
X102472980Y-126382670D01*
D12*
%TO.P,S22,*%
X99994388Y-118443859D03*
X99583566Y-118356536D03*
X100284983Y-114671850D03*
X100295378Y-114622944D03*
X95962268Y-123465264D03*
X98155262Y-112859451D03*
X94614576Y-117300345D03*
X94614576Y-117300345D03*
X95841255Y-111529274D03*
X91415929Y-114023708D03*
X89333542Y-120982827D03*
X89645586Y-116244154D03*
X88635416Y-120323266D03*
X89234764Y-116156831D03*
%TD*%
D10*
%TO.C,S8*%
%TO.CFtp,gateron-ks27-choc-v1-mx-hotswap*%
%TO.CVal,Keyswitch*%
%TO.CLbN,BubbleBox_Footprints*%
%TO.CMnt,TH*%
%TO.CRot,180*%
X166614576Y-60690345D03*
D11*
X176189576Y-67940345D02*
X176189576Y-53290345D01*
X157639576Y-53290345D01*
X157639576Y-67940345D01*
X176189576Y-67940345D01*
D12*
%TO.P,S8,*%
X172114576Y-60690345D03*
X171694576Y-60690345D03*
X171614576Y-56940345D03*
X171614576Y-56890345D03*
X169214576Y-66440345D03*
X169154576Y-55610345D03*
X166614576Y-60690345D03*
X166614576Y-60690345D03*
X166614576Y-54790345D03*
X162804576Y-58150345D03*
X162214576Y-65390345D03*
X161534576Y-60690345D03*
X161394576Y-64890345D03*
X161114576Y-60690345D03*
%TD*%
D10*
%TO.C,S11*%
%TO.CFtp,gateron-ks27-choc-v1-mx-hotswap*%
%TO.CVal,Keyswitch*%
%TO.CLbN,BubbleBox_Footprints*%
%TO.CMnt,TH*%
%TO.CRot,-168*%
X194614576Y-117300345D03*
D11*
X205487699Y-122401161D02*
X202441793Y-108071298D01*
X184297155Y-111928060D01*
X187343061Y-126257923D01*
X205487699Y-122401161D01*
D12*
%TO.P,S11,*%
X199994388Y-116156831D03*
X199583566Y-116244154D03*
X198725645Y-112592733D03*
X198715250Y-112543826D03*
X198353252Y-122384123D03*
X196042880Y-111803259D03*
X194614576Y-117300345D03*
X194614576Y-117300345D03*
X193387897Y-111529274D03*
X190359738Y-115607994D03*
X191287912Y-122812450D03*
X189645586Y-118356536D03*
X190381875Y-122493864D03*
X189234764Y-118443859D03*
%TD*%
D10*
%TO.C,S9*%
%TO.CFtp,gateron-ks27-choc-v1-mx-hotswap*%
%TO.CVal,Keyswitch*%
%TO.CLbN,BubbleBox_Footprints*%
%TO.CMnt,TH*%
%TO.CRot,-168*%
X172740276Y-110192945D03*
D11*
X183613399Y-115293761D02*
X180567493Y-100963898D01*
X162422855Y-104820660D01*
X165468761Y-119150523D01*
X183613399Y-115293761D01*
D12*
%TO.P,S9,*%
X178120088Y-109049431D03*
X177709266Y-109136754D03*
X176851345Y-105485333D03*
X176840950Y-105436426D03*
X176478952Y-115276723D03*
X174168580Y-104695859D03*
X172740276Y-110192945D03*
X172740276Y-110192945D03*
X171513597Y-104421874D03*
X168485438Y-108500594D03*
X169413612Y-115705050D03*
X167771286Y-111249136D03*
X168507575Y-115386464D03*
X167360464Y-111336459D03*
%TD*%
M02*
