M48
; DRILL file {KiCad 8.0.7} date 2024-12-15T02:37:47-0500
; FORMAT={-:-/ absolute / inch / decimal}
; #@! TF.CreationDate,2024-12-15T02:37:47-05:00
; #@! TF.GenerationSoftware,Kicad,Pcbnew,8.0.7
; #@! TF.FileFunction,Plated,1,2,PTH
FMAT,2
INCH
; #@! TA.AperFunction,Plated,PTH,ViaDrill
T1C0.0157
; #@! TA.AperFunction,Plated,PTH,ComponentDrill
T2C0.0157
; #@! TA.AperFunction,Plated,PTH,ComponentDrill
T3C0.0197
; #@! TA.AperFunction,Plated,PTH,ComponentDrill
T4C0.0394
; #@! TA.AperFunction,Plated,PTH,ComponentDrill
T5C0.0402
%
G90
G05
T1
X4.5187Y-2.4409
X5.5734Y-0.7834
X5.5994Y-0.7165
X5.6065Y-0.8437
X5.6776Y-0.7844
X5.689Y-3.5516
X5.7028Y-0.7303
X5.8248Y-0.7205
X7.2697Y-1.5413
X7.4626Y-2.3819
X8.2569Y-0.8406
X8.4089Y-1.6801
X9.3398Y-0.7372
X9.5199Y-1.5896
X10.549Y-1.1368
X10.7291Y-1.9813
T2
X5.5994Y-0.5965
X5.6309Y-0.5965
X5.6467Y-0.624
X5.6624Y-0.5965
X5.6781Y-0.624
X5.7096Y-0.624
X5.7254Y-0.5965
X5.7411Y-0.624
X5.7569Y-0.5965
X5.7884Y-0.5965
T5
X5.3236Y-3.2978
X5.3236Y-3.3978
X5.3236Y-3.4978
X5.3236Y-3.5978
X5.3236Y-3.6978
X5.3236Y-3.7978
X5.3236Y-3.8978
X5.3236Y-3.9978
X5.3236Y-4.0978
X5.3236Y-4.1978
X5.3236Y-4.2978
X5.3236Y-4.3978
X5.3236Y-4.4978
X5.3236Y-4.5978
X5.3236Y-4.6978
X5.3236Y-4.7978
X5.3236Y-4.8978
X5.3236Y-4.9978
X5.3236Y-5.0978
X5.3236Y-5.1978
X5.5736Y-5.1888
X5.6736Y-5.1888
X5.7736Y-5.1888
X6.0236Y-3.2978
X6.0236Y-3.3978
X6.0236Y-3.4978
X6.0236Y-3.5978
X6.0236Y-3.6978
X6.0236Y-3.7978
X6.0236Y-3.8978
X6.0236Y-3.9978
X6.0236Y-4.0978
X6.0236Y-4.1978
X6.0236Y-4.2978
X6.0236Y-4.3978
X6.0236Y-4.4978
X6.0236Y-4.5978
X6.0236Y-4.6978
X6.0236Y-4.7978
X6.0236Y-4.8978
X6.0236Y-4.9978
X6.0236Y-5.0978
X6.0236Y-5.1978
T2
G00X5.564Y-0.624
M15
G01X5.5837Y-0.624
M16
G05
G00X5.8041Y-0.624
M15
G01X5.8238Y-0.624
M16
G05
T3
G00X5.5167Y-0.4055
M15
G01X5.5167Y-0.4646
M16
G05
G00X5.5167Y-0.6461
M15
G01X5.5167Y-0.6697
M16
G05
G00X5.8707Y-0.4055
M15
G01X5.8707Y-0.4646
M16
G05
G00X5.8711Y-0.6461
M15
G01X5.8711Y-0.6697
M16
G05
T4
G00X5.6336Y-3.3324
M15
G01X5.6336Y-3.2733
M16
G05
G00X5.7136Y-3.3324
M15
G01X5.7136Y-3.2733
M16
G05
M30
