%TF.GenerationSoftware,KiCad,Pcbnew,8.0.7*%
%TF.CreationDate,2024-12-15T02:37:58-05:00*%
%TF.ProjectId,BubbleBox,42756262-6c65-4426-9f78-2e6b69636164,rev?*%
%TF.SameCoordinates,Original*%
%TF.FileFunction,Soldermask,Bot*%
%TF.FilePolarity,Negative*%
%FSLAX46Y46*%
G04 Gerber Fmt 4.6, Leading zero omitted, Abs format (unit mm)*
G04 Created by KiCad (PCBNEW 8.0.7) date 2024-12-15 02:37:58*
%MOMM*%
%LPD*%
G01*
G04 APERTURE LIST*
G04 Aperture macros list*
%AMRoundRect*
0 Rectangle with rounded corners*
0 $1 Rounding radius*
0 $2 $3 $4 $5 $6 $7 $8 $9 X,Y pos of 4 corners*
0 Add a 4 corners polygon primitive as box body*
4,1,4,$2,$3,$4,$5,$6,$7,$8,$9,$2,$3,0*
0 Add four circle primitives for the rounded corners*
1,1,$1+$1,$2,$3*
1,1,$1+$1,$4,$5*
1,1,$1+$1,$6,$7*
1,1,$1+$1,$8,$9*
0 Add four rect primitives between the rounded corners*
20,1,$1+$1,$2,$3,$4,$5,0*
20,1,$1+$1,$4,$5,$6,$7,0*
20,1,$1+$1,$6,$7,$8,$9,0*
20,1,$1+$1,$8,$9,$2,$3,0*%
%AMRotRect*
0 Rectangle, with rotation*
0 The origin of the aperture is its center*
0 $1 length*
0 $2 width*
0 $3 Rotation angle, in degrees counterclockwise*
0 Add horizontal line*
21,1,$1,$2,0,0,$3*%
G04 Aperture macros list end*
%ADD10C,1.701800*%
%ADD11C,3.000000*%
%ADD12C,3.987800*%
%ADD13C,5.000000*%
%ADD14C,0.990600*%
%ADD15RotRect,2.600000X2.600000X168.000000*%
%ADD16RotRect,2.550000X2.500000X348.000000*%
%ADD17RotRect,2.600000X2.600000X348.000000*%
%ADD18RotRect,2.600000X2.600000X192.000000*%
%ADD19RotRect,2.550000X2.500000X12.000000*%
%ADD20RotRect,2.600000X2.600000X12.000000*%
%ADD21R,2.600000X2.600000*%
%ADD22R,2.550000X2.500000*%
%ADD23O,1.800000X1.800000*%
%ADD24O,1.500000X1.500000*%
%ADD25O,1.700000X1.700000*%
%ADD26R,3.500000X1.700000*%
%ADD27R,1.700000X1.700000*%
%ADD28R,1.700000X3.500000*%
%ADD29O,1.500000X3.000000*%
%ADD30RoundRect,0.200000X-0.275000X0.200000X-0.275000X-0.200000X0.275000X-0.200000X0.275000X0.200000X0*%
%ADD31RoundRect,0.250000X-0.300000X-0.300000X0.300000X-0.300000X0.300000X0.300000X-0.300000X0.300000X0*%
%ADD32C,0.650000*%
%ADD33O,0.950000X0.650000*%
%ADD34R,0.300000X0.700000*%
%ADD35O,1.150000X0.650000*%
%ADD36O,0.800000X2.300000*%
%ADD37O,0.800000X1.400000*%
%ADD38RoundRect,0.200000X0.200000X0.275000X-0.200000X0.275000X-0.200000X-0.275000X0.200000X-0.275000X0*%
G04 APERTURE END LIST*
D10*
%TO.C,S23*%
X117086688Y-133833859D03*
X116675866Y-133746536D03*
D11*
X117377283Y-130061850D03*
X117387678Y-130012944D03*
X113054568Y-138855264D03*
X115247562Y-128249451D03*
D12*
X111706876Y-132690345D03*
D13*
X111706876Y-132690345D03*
D11*
X112933555Y-126919274D03*
X108508229Y-129413708D03*
X106425842Y-136372827D03*
D10*
X106737886Y-131634154D03*
D14*
X105727716Y-135713266D03*
D10*
X106327064Y-131546831D03*
D15*
X120591112Y-130693853D03*
D16*
X118915616Y-129029120D03*
D17*
X116258001Y-139536175D03*
D15*
X109730122Y-126238363D03*
D16*
X104840176Y-128634038D03*
D17*
X103222408Y-135691916D03*
%TD*%
D10*
%TO.C,S14*%
X201994388Y-56435931D03*
X201583566Y-56523254D03*
D11*
X200725645Y-52871833D03*
X200715250Y-52822926D03*
X200353252Y-62663223D03*
X198042880Y-52082359D03*
D12*
X196614576Y-57579445D03*
D13*
X196614576Y-57579445D03*
D11*
X195387897Y-51808374D03*
X192359738Y-55887094D03*
X193287912Y-63091550D03*
D10*
X191645586Y-58635636D03*
D14*
X192381875Y-62772964D03*
D10*
X191234764Y-58722959D03*
D18*
X203918683Y-52142015D03*
D19*
X201710933Y-51302691D03*
D20*
X203556685Y-61982313D03*
D18*
X192184464Y-52489285D03*
D19*
X188691684Y-56666761D03*
D20*
X190084478Y-63772461D03*
%TD*%
D10*
%TO.C,S10*%
X182902088Y-131546831D03*
X182491266Y-131634154D03*
D11*
X181633345Y-127982733D03*
X181622950Y-127933826D03*
X181260952Y-137774123D03*
X178950580Y-127193259D03*
D12*
X177522276Y-132690345D03*
D13*
X177522276Y-132690345D03*
D11*
X176295597Y-126919274D03*
X173267438Y-130997994D03*
X174195612Y-138202450D03*
D10*
X172553286Y-133746536D03*
D14*
X173289575Y-137883864D03*
D10*
X172142464Y-133833859D03*
D18*
X184826383Y-127252915D03*
D19*
X182618633Y-126413591D03*
D20*
X184464385Y-137093213D03*
D18*
X173092164Y-127600185D03*
D19*
X169599384Y-131777661D03*
D20*
X170992178Y-138883361D03*
%TD*%
D10*
%TO.C,S19*%
X255107358Y-36967721D03*
X254696536Y-37055044D03*
D11*
X253838615Y-33403623D03*
X253828220Y-33354716D03*
X253466222Y-43195013D03*
X251155850Y-32614149D03*
D12*
X249727546Y-38111235D03*
D13*
X249727546Y-38111235D03*
D11*
X248500867Y-32340164D03*
X245472708Y-36418884D03*
X246400882Y-43623340D03*
D10*
X244758556Y-39167426D03*
D14*
X245494845Y-43304754D03*
D10*
X244347734Y-39254749D03*
D18*
X257031653Y-32673805D03*
D19*
X254823903Y-31834481D03*
D20*
X256669655Y-42514103D03*
D18*
X245297434Y-33021075D03*
D19*
X241804654Y-37198551D03*
D20*
X243197448Y-44304251D03*
%TD*%
D10*
%TO.C,S4*%
X77675288Y-19644459D03*
X77264466Y-19557136D03*
D11*
X77965883Y-15872450D03*
X77976278Y-15823544D03*
X73643168Y-24665864D03*
X75836162Y-14060051D03*
D12*
X72295476Y-18500945D03*
D13*
X72295476Y-18500945D03*
D11*
X73522155Y-12729874D03*
X69096829Y-15224308D03*
X67014442Y-22183427D03*
D10*
X67326486Y-17444754D03*
D14*
X66316316Y-21523866D03*
D10*
X66915664Y-17357431D03*
D15*
X81179712Y-16504453D03*
D16*
X79504216Y-14839720D03*
D17*
X76846601Y-25346775D03*
D15*
X70318722Y-12048963D03*
D16*
X65428776Y-14444638D03*
D17*
X63811008Y-21502516D03*
%TD*%
D10*
%TO.C,S13*%
X197420328Y-34916711D03*
X197009506Y-35004034D03*
D11*
X196151585Y-31352613D03*
X196141190Y-31303706D03*
X195779192Y-41144003D03*
X193468820Y-30563139D03*
D12*
X192040516Y-36060225D03*
D13*
X192040516Y-36060225D03*
D11*
X190813837Y-30289154D03*
X187785678Y-34367874D03*
X188713852Y-41572330D03*
D10*
X187071526Y-37116416D03*
D14*
X187807815Y-41253744D03*
D10*
X186660704Y-37203739D03*
D18*
X199344623Y-30622795D03*
D19*
X197136873Y-29783471D03*
D20*
X198982625Y-40463093D03*
D18*
X187610404Y-30970065D03*
D19*
X184117624Y-35147541D03*
D20*
X185510418Y-42253241D03*
%TD*%
D10*
%TO.C,S15*%
X217086718Y-100766821D03*
X216675896Y-100854144D03*
D11*
X215817975Y-97202723D03*
X215807580Y-97153816D03*
X215445582Y-106994113D03*
X213135210Y-96413249D03*
D12*
X211706906Y-101910335D03*
D13*
X211706906Y-101910335D03*
D11*
X210480227Y-96139264D03*
X207452068Y-100217984D03*
X208380242Y-107422440D03*
D10*
X206737916Y-102966526D03*
D14*
X207474205Y-107103854D03*
D10*
X206327094Y-103053849D03*
D18*
X219011013Y-96472905D03*
D19*
X216803263Y-95633581D03*
D20*
X218649015Y-106313203D03*
D18*
X207276794Y-96820175D03*
D19*
X203784014Y-100997651D03*
D20*
X205176808Y-108103351D03*
%TD*%
D10*
%TO.C,S2*%
X44881388Y-39254759D03*
X44470566Y-39167436D03*
D11*
X45171983Y-35482750D03*
X45182378Y-35433844D03*
X40849268Y-44276164D03*
X43042262Y-33670351D03*
D12*
X39501576Y-38111245D03*
D13*
X39501576Y-38111245D03*
D11*
X40728255Y-32340174D03*
X36302929Y-34834608D03*
X34220542Y-41793727D03*
D10*
X34532586Y-37055054D03*
D14*
X33522416Y-41134166D03*
D10*
X34121764Y-36967731D03*
D15*
X48385812Y-36114753D03*
D16*
X46710316Y-34450020D03*
D17*
X44052701Y-44957075D03*
D15*
X37524822Y-31659263D03*
D16*
X32634876Y-34054938D03*
D17*
X31017108Y-41112816D03*
%TD*%
D10*
%TO.C,S3*%
X73101188Y-41163659D03*
X72690366Y-41076336D03*
D11*
X73391783Y-37391650D03*
X73402178Y-37342744D03*
X69069068Y-46185064D03*
X71262062Y-35579251D03*
D12*
X67721376Y-40020145D03*
D13*
X67721376Y-40020145D03*
D11*
X68948055Y-34249074D03*
X64522729Y-36743508D03*
X62440342Y-43702627D03*
D10*
X62752386Y-38963954D03*
D14*
X61742216Y-43043066D03*
D10*
X62341564Y-38876631D03*
D15*
X76605612Y-38023653D03*
D16*
X74930116Y-36358920D03*
D17*
X72272501Y-46865975D03*
D15*
X65744622Y-33568163D03*
D16*
X60854676Y-35963838D03*
D17*
X59236908Y-43021716D03*
%TD*%
D10*
%TO.C,S20*%
X281248018Y-25277311D03*
X280837196Y-25364634D03*
D11*
X279979275Y-21713213D03*
X279968880Y-21664306D03*
X279606882Y-31504603D03*
X277296510Y-20923739D03*
D12*
X275868206Y-26420825D03*
D13*
X275868206Y-26420825D03*
D11*
X274641527Y-20649754D03*
X271613368Y-24728474D03*
X272541542Y-31932930D03*
D10*
X270899216Y-27477016D03*
D14*
X271635505Y-31614344D03*
D10*
X270488394Y-27564339D03*
D18*
X283172313Y-20983395D03*
D19*
X280964563Y-20144071D03*
D20*
X282810315Y-30823693D03*
D18*
X271438094Y-21330665D03*
D19*
X267945314Y-25508141D03*
D20*
X269338108Y-32613841D03*
%TD*%
D10*
%TO.C,S16*%
X222313518Y-17357411D03*
X221902696Y-17444734D03*
D11*
X221044775Y-13793313D03*
X221034380Y-13744406D03*
X220672382Y-23584703D03*
X218362010Y-13003839D03*
D12*
X216933706Y-18500925D03*
D13*
X216933706Y-18500925D03*
D11*
X215707027Y-12729854D03*
X212678868Y-16808574D03*
X213607042Y-24013030D03*
D10*
X211964716Y-19557116D03*
D14*
X212701005Y-23694444D03*
D10*
X211553894Y-19644439D03*
D18*
X224237813Y-13063495D03*
D19*
X222030063Y-12224171D03*
D20*
X223875815Y-22903793D03*
D18*
X212503594Y-13410765D03*
D19*
X209010814Y-17588241D03*
D20*
X210403608Y-24693941D03*
%TD*%
D10*
%TO.C,S7*%
X150114576Y-60690345D03*
X149694576Y-60690345D03*
D11*
X149614576Y-56940345D03*
X149614576Y-56890345D03*
X147214576Y-66440345D03*
X147154576Y-55610345D03*
D12*
X144614576Y-60690345D03*
D13*
X144614576Y-60690345D03*
D11*
X144614576Y-54790345D03*
X140804576Y-58150345D03*
X140214576Y-65390345D03*
D10*
X139534576Y-60690345D03*
D14*
X139394576Y-64890345D03*
D10*
X139114576Y-60690345D03*
D21*
X152889576Y-56890345D03*
D22*
X150904576Y-55610345D03*
D21*
X150489576Y-66440345D03*
X141339576Y-54790345D03*
D22*
X137054576Y-58150345D03*
D21*
X136939576Y-65390345D03*
%TD*%
D10*
%TO.C,S17*%
X226887578Y-38876661D03*
X226476756Y-38963984D03*
D11*
X225618835Y-35312563D03*
X225608440Y-35263656D03*
X225246442Y-45103953D03*
X222936070Y-34523089D03*
D12*
X221507766Y-40020175D03*
D13*
X221507766Y-40020175D03*
D11*
X220281087Y-34249104D03*
X217252928Y-38327824D03*
X218181102Y-45532280D03*
D10*
X216538776Y-41076366D03*
D14*
X217275065Y-45213694D03*
D10*
X216127954Y-41163689D03*
D18*
X228811873Y-34582745D03*
D19*
X226604123Y-33743421D03*
D20*
X228449875Y-44423043D03*
D18*
X217077654Y-34930015D03*
D19*
X213584874Y-39107491D03*
D20*
X214977668Y-46213191D03*
%TD*%
D10*
%TO.C,S5*%
X97994388Y-58722959D03*
X97583566Y-58635636D03*
D11*
X98284983Y-54950950D03*
X98295378Y-54902044D03*
X93962268Y-63744364D03*
X96155262Y-53138551D03*
D12*
X92614576Y-57579445D03*
D13*
X92614576Y-57579445D03*
D11*
X93841255Y-51808374D03*
X89415929Y-54302808D03*
X87333542Y-61261927D03*
D10*
X87645586Y-56523254D03*
D14*
X86635416Y-60602366D03*
D10*
X87234764Y-56435931D03*
D15*
X101498812Y-55582953D03*
D16*
X99823316Y-53918220D03*
D17*
X97165701Y-64425275D03*
D15*
X90637822Y-51127463D03*
D16*
X85747876Y-53523138D03*
D17*
X84130108Y-60581016D03*
%TD*%
D10*
%TO.C,S1*%
X14166688Y-49083559D03*
X13755866Y-48996236D03*
D11*
X14457283Y-45311550D03*
X14467678Y-45262644D03*
X10134568Y-54104964D03*
X12327562Y-43499151D03*
D12*
X8786876Y-47940045D03*
D13*
X8786876Y-47940045D03*
D11*
X10013555Y-42168974D03*
X5588229Y-44663408D03*
X3505842Y-51622527D03*
D10*
X3817886Y-46883854D03*
D14*
X2807716Y-50962966D03*
D10*
X3407064Y-46796531D03*
D15*
X17671112Y-45943553D03*
D16*
X15995616Y-44278820D03*
D17*
X13338001Y-54785875D03*
D15*
X6810122Y-41488063D03*
D16*
X1920176Y-43883738D03*
D17*
X302408Y-50941616D03*
%TD*%
D10*
%TO.C,S18*%
X250533298Y-15448481D03*
X250122476Y-15535804D03*
D11*
X249264555Y-11884383D03*
X249254160Y-11835476D03*
X248892162Y-21675773D03*
X246581790Y-11094909D03*
D12*
X245153486Y-16591995D03*
D13*
X245153486Y-16591995D03*
D11*
X243926807Y-10820924D03*
X240898648Y-14899644D03*
X241826822Y-22104100D03*
D10*
X240184496Y-17648186D03*
D14*
X240920785Y-21785514D03*
D10*
X239773674Y-17735509D03*
D18*
X252457593Y-11154565D03*
D19*
X250249843Y-10315241D03*
D20*
X252095595Y-20994863D03*
D18*
X240723374Y-11501835D03*
D19*
X237230594Y-15679311D03*
D20*
X238623388Y-22785011D03*
%TD*%
D10*
%TO.C,S6*%
X128114576Y-60690345D03*
X127694576Y-60690345D03*
D11*
X127614576Y-56940345D03*
X127614576Y-56890345D03*
X125214576Y-66440345D03*
X125154576Y-55610345D03*
D12*
X122614576Y-60690345D03*
D13*
X122614576Y-60690345D03*
D11*
X122614576Y-54790345D03*
X118804576Y-58150345D03*
X118214576Y-65390345D03*
D10*
X117534576Y-60690345D03*
D14*
X117394576Y-64890345D03*
D10*
X117114576Y-60690345D03*
D21*
X130889576Y-56890345D03*
D22*
X128904576Y-55610345D03*
D21*
X128489576Y-66440345D03*
X119339576Y-54790345D03*
D22*
X115054576Y-58150345D03*
D21*
X114939576Y-65390345D03*
%TD*%
D10*
%TO.C,S21*%
X285822078Y-46796561D03*
X285411256Y-46883884D03*
D11*
X284553335Y-43232463D03*
X284542940Y-43183556D03*
X284180942Y-53023853D03*
X281870570Y-42442989D03*
D12*
X280442266Y-47940075D03*
D13*
X280442266Y-47940075D03*
D11*
X279215587Y-42169004D03*
X276187428Y-46247724D03*
X277115602Y-53452180D03*
D10*
X275473276Y-48996266D03*
D14*
X276209565Y-53133594D03*
D10*
X275062454Y-49083589D03*
D18*
X287746373Y-42502645D03*
D19*
X285538623Y-41663321D03*
D20*
X287384375Y-52342943D03*
D18*
X276012154Y-42849915D03*
D19*
X272519374Y-47027391D03*
D20*
X273912168Y-54133091D03*
%TD*%
D10*
%TO.C,S12*%
X195212388Y-93659431D03*
X194801566Y-93746754D03*
D11*
X193943645Y-90095333D03*
X193933250Y-90046426D03*
X193571252Y-99886723D03*
X191260880Y-89305859D03*
D12*
X189832576Y-94802945D03*
D13*
X189832576Y-94802945D03*
D11*
X188605897Y-89031874D03*
X185577738Y-93110594D03*
X186505912Y-100315050D03*
D10*
X184863586Y-95859136D03*
D14*
X185599875Y-99996464D03*
D10*
X184452764Y-95946459D03*
D18*
X197136683Y-89365515D03*
D19*
X194928933Y-88526191D03*
D20*
X196774685Y-99205813D03*
D18*
X185402464Y-89712785D03*
D19*
X181909684Y-93890261D03*
D20*
X183302478Y-100995961D03*
%TD*%
D10*
%TO.C,S22*%
X99994388Y-118443859D03*
X99583566Y-118356536D03*
D11*
X100284983Y-114671850D03*
X100295378Y-114622944D03*
X95962268Y-123465264D03*
X98155262Y-112859451D03*
D12*
X94614576Y-117300345D03*
D13*
X94614576Y-117300345D03*
D11*
X95841255Y-111529274D03*
X91415929Y-114023708D03*
X89333542Y-120982827D03*
D10*
X89645586Y-116244154D03*
D14*
X88635416Y-120323266D03*
D10*
X89234764Y-116156831D03*
D15*
X103498812Y-115303853D03*
D16*
X101823316Y-113639120D03*
D17*
X99165701Y-124146175D03*
D15*
X92637822Y-110848363D03*
D16*
X87747876Y-113244038D03*
D17*
X86130108Y-120301916D03*
%TD*%
D10*
%TO.C,S8*%
X172114576Y-60690345D03*
X171694576Y-60690345D03*
D11*
X171614576Y-56940345D03*
X171614576Y-56890345D03*
X169214576Y-66440345D03*
X169154576Y-55610345D03*
D12*
X166614576Y-60690345D03*
D13*
X166614576Y-60690345D03*
D11*
X166614576Y-54790345D03*
X162804576Y-58150345D03*
X162214576Y-65390345D03*
D10*
X161534576Y-60690345D03*
D14*
X161394576Y-64890345D03*
D10*
X161114576Y-60690345D03*
D21*
X174889576Y-56890345D03*
D22*
X172904576Y-55610345D03*
D21*
X172489576Y-66440345D03*
X163339576Y-54790345D03*
D22*
X159054576Y-58150345D03*
D21*
X158939576Y-65390345D03*
%TD*%
D10*
%TO.C,S11*%
X199994388Y-116156831D03*
X199583566Y-116244154D03*
D11*
X198725645Y-112592733D03*
X198715250Y-112543826D03*
X198353252Y-122384123D03*
X196042880Y-111803259D03*
D12*
X194614576Y-117300345D03*
D13*
X194614576Y-117300345D03*
D11*
X193387897Y-111529274D03*
X190359738Y-115607994D03*
X191287912Y-122812450D03*
D10*
X189645586Y-118356536D03*
D14*
X190381875Y-122493864D03*
D10*
X189234764Y-118443859D03*
D18*
X201918683Y-111862915D03*
D19*
X199710933Y-111023591D03*
D20*
X201556685Y-121703213D03*
D18*
X190184464Y-112210185D03*
D19*
X186691684Y-116387661D03*
D20*
X188084478Y-123493361D03*
%TD*%
D10*
%TO.C,S9*%
X178120088Y-109049431D03*
X177709266Y-109136754D03*
D11*
X176851345Y-105485333D03*
X176840950Y-105436426D03*
X176478952Y-115276723D03*
X174168580Y-104695859D03*
D12*
X172740276Y-110192945D03*
D13*
X172740276Y-110192945D03*
D11*
X171513597Y-104421874D03*
X168485438Y-108500594D03*
X169413612Y-115705050D03*
D10*
X167771286Y-111249136D03*
D14*
X168507575Y-115386464D03*
D10*
X167360464Y-111336459D03*
D18*
X180044383Y-104755515D03*
D19*
X177836633Y-103916191D03*
D20*
X179682385Y-114595813D03*
D18*
X168310164Y-105102785D03*
D19*
X164817384Y-109280261D03*
D20*
X166210178Y-116385961D03*
%TD*%
D23*
%TO.C,U1*%
X146835000Y-83895000D03*
D24*
X146535000Y-86925000D03*
X141685000Y-86925000D03*
D23*
X141385000Y-83895000D03*
D25*
X153000000Y-83765000D03*
D26*
X153900000Y-83765000D03*
D25*
X153000000Y-86305000D03*
D26*
X153900000Y-86305000D03*
D27*
X153000000Y-88845000D03*
D26*
X153900000Y-88845000D03*
D25*
X153000000Y-91385000D03*
D26*
X153900000Y-91385000D03*
D25*
X153000000Y-93925000D03*
D26*
X153900000Y-93925000D03*
D25*
X153000000Y-96465000D03*
D26*
X153900000Y-96465000D03*
D25*
X153000000Y-99005000D03*
D26*
X153900000Y-99005000D03*
D27*
X153000000Y-101545000D03*
D26*
X153900000Y-101545000D03*
D25*
X153000000Y-104085000D03*
D26*
X153900000Y-104085000D03*
D25*
X153000000Y-106625000D03*
D26*
X153900000Y-106625000D03*
D25*
X153000000Y-109165000D03*
D26*
X153900000Y-109165000D03*
D25*
X153000000Y-111705000D03*
D26*
X153900000Y-111705000D03*
D27*
X153000000Y-114245000D03*
D26*
X153900000Y-114245000D03*
D25*
X153000000Y-116785000D03*
D26*
X153900000Y-116785000D03*
D25*
X153000000Y-119325000D03*
D26*
X153900000Y-119325000D03*
D25*
X153000000Y-121865000D03*
D26*
X153900000Y-121865000D03*
D25*
X153000000Y-124405000D03*
D26*
X153900000Y-124405000D03*
D27*
X153000000Y-126945000D03*
D26*
X153900000Y-126945000D03*
D25*
X153000000Y-129485000D03*
D26*
X153900000Y-129485000D03*
D25*
X153000000Y-132025000D03*
D26*
X153900000Y-132025000D03*
D25*
X135220000Y-132025000D03*
D26*
X134320000Y-132025000D03*
D25*
X135220000Y-129485000D03*
D26*
X134320000Y-129485000D03*
D27*
X135220000Y-126945000D03*
D26*
X134320000Y-126945000D03*
D25*
X135220000Y-124405000D03*
D26*
X134320000Y-124405000D03*
D25*
X135220000Y-121865000D03*
D26*
X134320000Y-121865000D03*
D25*
X135220000Y-119325000D03*
D26*
X134320000Y-119325000D03*
D25*
X135220000Y-116785000D03*
D26*
X134320000Y-116785000D03*
D27*
X135220000Y-114245000D03*
D26*
X134320000Y-114245000D03*
D25*
X135220000Y-111705000D03*
D26*
X134320000Y-111705000D03*
D25*
X135220000Y-109165000D03*
D26*
X134320000Y-109165000D03*
D25*
X135220000Y-106625000D03*
D26*
X134320000Y-106625000D03*
D25*
X135220000Y-104085000D03*
D26*
X134320000Y-104085000D03*
D27*
X135220000Y-101545000D03*
D26*
X134320000Y-101545000D03*
D25*
X135220000Y-99005000D03*
D26*
X134320000Y-99005000D03*
D25*
X135220000Y-96465000D03*
D26*
X134320000Y-96465000D03*
D25*
X135220000Y-93925000D03*
D26*
X134320000Y-93925000D03*
D25*
X135220000Y-91385000D03*
D26*
X134320000Y-91385000D03*
D27*
X135220000Y-88845000D03*
D26*
X134320000Y-88845000D03*
D25*
X135220000Y-86305000D03*
D26*
X134320000Y-86305000D03*
D25*
X135220000Y-83765000D03*
D26*
X134320000Y-83765000D03*
D25*
X146650000Y-131795000D03*
D28*
X146650000Y-132695000D03*
D27*
X144110000Y-131795000D03*
D28*
X144110000Y-132695000D03*
D25*
X141570000Y-131795000D03*
D28*
X141570000Y-132695000D03*
D29*
X145126000Y-83892000D03*
X143094000Y-83892000D03*
%TD*%
D30*
%TO.C,R1*%
X138325000Y-15725000D03*
X138325000Y-17375000D03*
%TD*%
D31*
%TO.C,D1*%
X146425000Y-19400000D03*
X149225000Y-19400000D03*
%TD*%
D32*
%TO.C,J1*%
X141025000Y-15150000D03*
D33*
X148225000Y-15150000D03*
D34*
X141875000Y-17160000D03*
X142375000Y-17160000D03*
X142875000Y-17160000D03*
X143375000Y-17160000D03*
X143875000Y-17160000D03*
X144375000Y-17160000D03*
X144875000Y-17160000D03*
X145375000Y-17160000D03*
X145875000Y-17160000D03*
X146375000Y-17160000D03*
X146875000Y-17160000D03*
X147375000Y-17160000D03*
D35*
X147675000Y-15850000D03*
D32*
X147025000Y-15150000D03*
X146225000Y-15150000D03*
X145825000Y-15850000D03*
X145425000Y-15150000D03*
X145025000Y-15850000D03*
X144225000Y-15850000D03*
X143825000Y-15150000D03*
X143425000Y-15850000D03*
X143025000Y-15150000D03*
X142225000Y-15150000D03*
D35*
X141575000Y-15850000D03*
D36*
X140125000Y-11050000D03*
D37*
X140125000Y-16710000D03*
D36*
X149115000Y-11050000D03*
D37*
X149125000Y-16710000D03*
%TD*%
D38*
%TO.C,R2*%
X141150000Y-18850000D03*
X139500000Y-18850000D03*
%TD*%
M02*
