%TF.GenerationSoftware,KiCad,Pcbnew,8.0.7*%
%TF.CreationDate,2024-12-15T02:37:58-05:00*%
%TF.ProjectId,BubbleBox,42756262-6c65-4426-9f78-2e6b69636164,rev?*%
%TF.SameCoordinates,Original*%
%TF.FileFunction,Legend,Bot*%
%TF.FilePolarity,Positive*%
%FSLAX46Y46*%
G04 Gerber Fmt 4.6, Leading zero omitted, Abs format (unit mm)*
G04 Created by KiCad (PCBNEW 8.0.7) date 2024-12-15 02:37:58*
%MOMM*%
%LPD*%
G01*
G04 APERTURE LIST*
%ADD10C,0.150000*%
%ADD11C,0.120000*%
G04 APERTURE END LIST*
D10*
X144871904Y-107349819D02*
X144871904Y-108159342D01*
X144871904Y-108159342D02*
X144824285Y-108254580D01*
X144824285Y-108254580D02*
X144776666Y-108302200D01*
X144776666Y-108302200D02*
X144681428Y-108349819D01*
X144681428Y-108349819D02*
X144490952Y-108349819D01*
X144490952Y-108349819D02*
X144395714Y-108302200D01*
X144395714Y-108302200D02*
X144348095Y-108254580D01*
X144348095Y-108254580D02*
X144300476Y-108159342D01*
X144300476Y-108159342D02*
X144300476Y-107349819D01*
X143300476Y-108349819D02*
X143871904Y-108349819D01*
X143586190Y-108349819D02*
X143586190Y-107349819D01*
X143586190Y-107349819D02*
X143681428Y-107492676D01*
X143681428Y-107492676D02*
X143776666Y-107587914D01*
X143776666Y-107587914D02*
X143871904Y-107635533D01*
X132012001Y-129875868D02*
X132092814Y-129902805D01*
X132092814Y-129902805D02*
X132173626Y-129983618D01*
X132173626Y-129983618D02*
X132227501Y-130091367D01*
X132227501Y-130091367D02*
X132227501Y-130199117D01*
X132227501Y-130199117D02*
X132200563Y-130279929D01*
X132200563Y-130279929D02*
X132119751Y-130414616D01*
X132119751Y-130414616D02*
X132038939Y-130495428D01*
X132038939Y-130495428D02*
X131904252Y-130576241D01*
X131904252Y-130576241D02*
X131823439Y-130603178D01*
X131823439Y-130603178D02*
X131715690Y-130603178D01*
X131715690Y-130603178D02*
X131607940Y-130549303D01*
X131607940Y-130549303D02*
X131554065Y-130495428D01*
X131554065Y-130495428D02*
X131500191Y-130387679D01*
X131500191Y-130387679D02*
X131500191Y-130333804D01*
X131500191Y-130333804D02*
X131688752Y-130145242D01*
X131688752Y-130145242D02*
X131796502Y-130252992D01*
X131203879Y-130145242D02*
X131769565Y-129579557D01*
X131769565Y-129579557D02*
X131554065Y-129364057D01*
X131554065Y-129364057D02*
X131473253Y-129337120D01*
X131473253Y-129337120D02*
X131419378Y-129337120D01*
X131419378Y-129337120D02*
X131338566Y-129364057D01*
X131338566Y-129364057D02*
X131257754Y-129444870D01*
X131257754Y-129444870D02*
X131230817Y-129525682D01*
X131230817Y-129525682D02*
X131230817Y-129579557D01*
X131230817Y-129579557D02*
X131257754Y-129660369D01*
X131257754Y-129660369D02*
X131473253Y-129875868D01*
X130341882Y-129283245D02*
X130665131Y-129606494D01*
X130503507Y-129444870D02*
X131069192Y-128879184D01*
X131069192Y-128879184D02*
X131042255Y-129013871D01*
X131042255Y-129013871D02*
X131042255Y-129121621D01*
X131042255Y-129121621D02*
X131069192Y-129202433D01*
X130719006Y-128528998D02*
X130341882Y-128151874D01*
X130341882Y-128151874D02*
X130018633Y-128959996D01*
X132012001Y-112095868D02*
X132092814Y-112122805D01*
X132092814Y-112122805D02*
X132173626Y-112203618D01*
X132173626Y-112203618D02*
X132227501Y-112311367D01*
X132227501Y-112311367D02*
X132227501Y-112419117D01*
X132227501Y-112419117D02*
X132200563Y-112499929D01*
X132200563Y-112499929D02*
X132119751Y-112634616D01*
X132119751Y-112634616D02*
X132038939Y-112715428D01*
X132038939Y-112715428D02*
X131904252Y-112796241D01*
X131904252Y-112796241D02*
X131823439Y-112823178D01*
X131823439Y-112823178D02*
X131715690Y-112823178D01*
X131715690Y-112823178D02*
X131607940Y-112769303D01*
X131607940Y-112769303D02*
X131554065Y-112715428D01*
X131554065Y-112715428D02*
X131500191Y-112607679D01*
X131500191Y-112607679D02*
X131500191Y-112553804D01*
X131500191Y-112553804D02*
X131688752Y-112365242D01*
X131688752Y-112365242D02*
X131796502Y-112472992D01*
X131203879Y-112365242D02*
X131769565Y-111799557D01*
X131769565Y-111799557D02*
X131554065Y-111584057D01*
X131554065Y-111584057D02*
X131473253Y-111557120D01*
X131473253Y-111557120D02*
X131419378Y-111557120D01*
X131419378Y-111557120D02*
X131338566Y-111584057D01*
X131338566Y-111584057D02*
X131257754Y-111664870D01*
X131257754Y-111664870D02*
X131230817Y-111745682D01*
X131230817Y-111745682D02*
X131230817Y-111799557D01*
X131230817Y-111799557D02*
X131257754Y-111880369D01*
X131257754Y-111880369D02*
X131473253Y-112095868D01*
X131176942Y-111314683D02*
X131176942Y-111260809D01*
X131176942Y-111260809D02*
X131150004Y-111179996D01*
X131150004Y-111179996D02*
X131015317Y-111045309D01*
X131015317Y-111045309D02*
X130934505Y-111018372D01*
X130934505Y-111018372D02*
X130880630Y-111018372D01*
X130880630Y-111018372D02*
X130799818Y-111045309D01*
X130799818Y-111045309D02*
X130745943Y-111099184D01*
X130745943Y-111099184D02*
X130692069Y-111206934D01*
X130692069Y-111206934D02*
X130692069Y-111853431D01*
X130692069Y-111853431D02*
X130341882Y-111503245D01*
X130638194Y-110775935D02*
X130638194Y-110722060D01*
X130638194Y-110722060D02*
X130611256Y-110641248D01*
X130611256Y-110641248D02*
X130476569Y-110506561D01*
X130476569Y-110506561D02*
X130395757Y-110479624D01*
X130395757Y-110479624D02*
X130341882Y-110479624D01*
X130341882Y-110479624D02*
X130261070Y-110506561D01*
X130261070Y-110506561D02*
X130207195Y-110560436D01*
X130207195Y-110560436D02*
X130153320Y-110668186D01*
X130153320Y-110668186D02*
X130153320Y-111314683D01*
X130153320Y-111314683D02*
X129803134Y-110964497D01*
X132187592Y-91853584D02*
X131837406Y-91503398D01*
X131837406Y-91503398D02*
X131810468Y-91907459D01*
X131810468Y-91907459D02*
X131729656Y-91826646D01*
X131729656Y-91826646D02*
X131648844Y-91799709D01*
X131648844Y-91799709D02*
X131594969Y-91799709D01*
X131594969Y-91799709D02*
X131514157Y-91826646D01*
X131514157Y-91826646D02*
X131379470Y-91961333D01*
X131379470Y-91961333D02*
X131352532Y-92042146D01*
X131352532Y-92042146D02*
X131352532Y-92096020D01*
X131352532Y-92096020D02*
X131379470Y-92176833D01*
X131379470Y-92176833D02*
X131541094Y-92338457D01*
X131541094Y-92338457D02*
X131621906Y-92365394D01*
X131621906Y-92365394D02*
X131675781Y-92365394D01*
X131675781Y-91341773D02*
X130921534Y-91718897D01*
X130921534Y-91718897D02*
X131298657Y-90964649D01*
X131163971Y-90829963D02*
X130813784Y-90479776D01*
X130813784Y-90479776D02*
X130786847Y-90883837D01*
X130786847Y-90883837D02*
X130706035Y-90803025D01*
X130706035Y-90803025D02*
X130625223Y-90776088D01*
X130625223Y-90776088D02*
X130571348Y-90776088D01*
X130571348Y-90776088D02*
X130490535Y-90803025D01*
X130490535Y-90803025D02*
X130355848Y-90937712D01*
X130355848Y-90937712D02*
X130328911Y-91018524D01*
X130328911Y-91018524D02*
X130328911Y-91072399D01*
X130328911Y-91072399D02*
X130355848Y-91153211D01*
X130355848Y-91153211D02*
X130517473Y-91314836D01*
X130517473Y-91314836D02*
X130598285Y-91341773D01*
X130598285Y-91341773D02*
X130652160Y-91341773D01*
X130086474Y-90991587D02*
X129655476Y-90560588D01*
X129870975Y-90075715D02*
X129682413Y-89887153D01*
X129305290Y-90102652D02*
X129574664Y-90372026D01*
X129574664Y-90372026D02*
X130140349Y-89806341D01*
X130140349Y-89806341D02*
X129870975Y-89536967D01*
X129062853Y-89860215D02*
X129628538Y-89294530D01*
X129628538Y-89294530D02*
X128739604Y-89536967D01*
X128739604Y-89536967D02*
X129305289Y-88971281D01*
X157623564Y-127093431D02*
X157704376Y-127120368D01*
X157704376Y-127120368D02*
X157785188Y-127201180D01*
X157785188Y-127201180D02*
X157839063Y-127308930D01*
X157839063Y-127308930D02*
X157839063Y-127416680D01*
X157839063Y-127416680D02*
X157812126Y-127497492D01*
X157812126Y-127497492D02*
X157731314Y-127632179D01*
X157731314Y-127632179D02*
X157650501Y-127712991D01*
X157650501Y-127712991D02*
X157515814Y-127793803D01*
X157515814Y-127793803D02*
X157435002Y-127820741D01*
X157435002Y-127820741D02*
X157327253Y-127820741D01*
X157327253Y-127820741D02*
X157219503Y-127766866D01*
X157219503Y-127766866D02*
X157165628Y-127712991D01*
X157165628Y-127712991D02*
X157111753Y-127605241D01*
X157111753Y-127605241D02*
X157111753Y-127551367D01*
X157111753Y-127551367D02*
X157300315Y-127362805D01*
X157300315Y-127362805D02*
X157408065Y-127470554D01*
X156815442Y-127362805D02*
X157381127Y-126797119D01*
X157381127Y-126797119D02*
X156492193Y-127039556D01*
X156492193Y-127039556D02*
X157057879Y-126473871D01*
X156222819Y-126770182D02*
X156788505Y-126204497D01*
X156788505Y-126204497D02*
X156653818Y-126069810D01*
X156653818Y-126069810D02*
X156546068Y-126015935D01*
X156546068Y-126015935D02*
X156438319Y-126015935D01*
X156438319Y-126015935D02*
X156357506Y-126042872D01*
X156357506Y-126042872D02*
X156222819Y-126123685D01*
X156222819Y-126123685D02*
X156142007Y-126204497D01*
X156142007Y-126204497D02*
X156061195Y-126339184D01*
X156061195Y-126339184D02*
X156034258Y-126419996D01*
X156034258Y-126419996D02*
X156034258Y-126527746D01*
X156034258Y-126527746D02*
X156088132Y-126635495D01*
X156088132Y-126635495D02*
X156222819Y-126770182D01*
X132023564Y-127093431D02*
X132104376Y-127120368D01*
X132104376Y-127120368D02*
X132185188Y-127201180D01*
X132185188Y-127201180D02*
X132239063Y-127308930D01*
X132239063Y-127308930D02*
X132239063Y-127416680D01*
X132239063Y-127416680D02*
X132212126Y-127497492D01*
X132212126Y-127497492D02*
X132131314Y-127632179D01*
X132131314Y-127632179D02*
X132050501Y-127712991D01*
X132050501Y-127712991D02*
X131915814Y-127793803D01*
X131915814Y-127793803D02*
X131835002Y-127820741D01*
X131835002Y-127820741D02*
X131727253Y-127820741D01*
X131727253Y-127820741D02*
X131619503Y-127766866D01*
X131619503Y-127766866D02*
X131565628Y-127712991D01*
X131565628Y-127712991D02*
X131511753Y-127605241D01*
X131511753Y-127605241D02*
X131511753Y-127551367D01*
X131511753Y-127551367D02*
X131700315Y-127362805D01*
X131700315Y-127362805D02*
X131808065Y-127470554D01*
X131215442Y-127362805D02*
X131781127Y-126797119D01*
X131781127Y-126797119D02*
X130892193Y-127039556D01*
X130892193Y-127039556D02*
X131457879Y-126473871D01*
X130622819Y-126770182D02*
X131188505Y-126204497D01*
X131188505Y-126204497D02*
X131053818Y-126069810D01*
X131053818Y-126069810D02*
X130946068Y-126015935D01*
X130946068Y-126015935D02*
X130838319Y-126015935D01*
X130838319Y-126015935D02*
X130757506Y-126042872D01*
X130757506Y-126042872D02*
X130622819Y-126123685D01*
X130622819Y-126123685D02*
X130542007Y-126204497D01*
X130542007Y-126204497D02*
X130461195Y-126339184D01*
X130461195Y-126339184D02*
X130434258Y-126419996D01*
X130434258Y-126419996D02*
X130434258Y-126527746D01*
X130434258Y-126527746D02*
X130488132Y-126635495D01*
X130488132Y-126635495D02*
X130622819Y-126770182D01*
X158120001Y-117175868D02*
X158200814Y-117202805D01*
X158200814Y-117202805D02*
X158281626Y-117283618D01*
X158281626Y-117283618D02*
X158335501Y-117391367D01*
X158335501Y-117391367D02*
X158335501Y-117499117D01*
X158335501Y-117499117D02*
X158308563Y-117579929D01*
X158308563Y-117579929D02*
X158227751Y-117714616D01*
X158227751Y-117714616D02*
X158146939Y-117795428D01*
X158146939Y-117795428D02*
X158012252Y-117876241D01*
X158012252Y-117876241D02*
X157931439Y-117903178D01*
X157931439Y-117903178D02*
X157823690Y-117903178D01*
X157823690Y-117903178D02*
X157715940Y-117849303D01*
X157715940Y-117849303D02*
X157662065Y-117795428D01*
X157662065Y-117795428D02*
X157608191Y-117687679D01*
X157608191Y-117687679D02*
X157608191Y-117633804D01*
X157608191Y-117633804D02*
X157796752Y-117445242D01*
X157796752Y-117445242D02*
X157904502Y-117552992D01*
X157311879Y-117445242D02*
X157877565Y-116879557D01*
X157877565Y-116879557D02*
X157662065Y-116664057D01*
X157662065Y-116664057D02*
X157581253Y-116637120D01*
X157581253Y-116637120D02*
X157527378Y-116637120D01*
X157527378Y-116637120D02*
X157446566Y-116664057D01*
X157446566Y-116664057D02*
X157365754Y-116744870D01*
X157365754Y-116744870D02*
X157338817Y-116825682D01*
X157338817Y-116825682D02*
X157338817Y-116879557D01*
X157338817Y-116879557D02*
X157365754Y-116960369D01*
X157365754Y-116960369D02*
X157581253Y-117175868D01*
X156449882Y-116583245D02*
X156773131Y-116906494D01*
X156611507Y-116744870D02*
X157177192Y-116179184D01*
X157177192Y-116179184D02*
X157150255Y-116313871D01*
X157150255Y-116313871D02*
X157150255Y-116421621D01*
X157150255Y-116421621D02*
X157177192Y-116502433D01*
X156665381Y-115667373D02*
X156611507Y-115613499D01*
X156611507Y-115613499D02*
X156530694Y-115586561D01*
X156530694Y-115586561D02*
X156476820Y-115586561D01*
X156476820Y-115586561D02*
X156396007Y-115613499D01*
X156396007Y-115613499D02*
X156261320Y-115694311D01*
X156261320Y-115694311D02*
X156126633Y-115828998D01*
X156126633Y-115828998D02*
X156045821Y-115963685D01*
X156045821Y-115963685D02*
X156018884Y-116044497D01*
X156018884Y-116044497D02*
X156018884Y-116098372D01*
X156018884Y-116098372D02*
X156045821Y-116179184D01*
X156045821Y-116179184D02*
X156099696Y-116233059D01*
X156099696Y-116233059D02*
X156180508Y-116259996D01*
X156180508Y-116259996D02*
X156234383Y-116259996D01*
X156234383Y-116259996D02*
X156315195Y-116233059D01*
X156315195Y-116233059D02*
X156449882Y-116152247D01*
X156449882Y-116152247D02*
X156584569Y-116017560D01*
X156584569Y-116017560D02*
X156665381Y-115882873D01*
X156665381Y-115882873D02*
X156692319Y-115802060D01*
X156692319Y-115802060D02*
X156692319Y-115748186D01*
X156692319Y-115748186D02*
X156665381Y-115667373D01*
X157596627Y-111826494D02*
X157677439Y-111853431D01*
X157677439Y-111853431D02*
X157758251Y-111934243D01*
X157758251Y-111934243D02*
X157812126Y-112041993D01*
X157812126Y-112041993D02*
X157812126Y-112149742D01*
X157812126Y-112149742D02*
X157785189Y-112230555D01*
X157785189Y-112230555D02*
X157704376Y-112365242D01*
X157704376Y-112365242D02*
X157623564Y-112446054D01*
X157623564Y-112446054D02*
X157488877Y-112526866D01*
X157488877Y-112526866D02*
X157408065Y-112553803D01*
X157408065Y-112553803D02*
X157300315Y-112553803D01*
X157300315Y-112553803D02*
X157192566Y-112499929D01*
X157192566Y-112499929D02*
X157138691Y-112446054D01*
X157138691Y-112446054D02*
X157084816Y-112338304D01*
X157084816Y-112338304D02*
X157084816Y-112284429D01*
X157084816Y-112284429D02*
X157273378Y-112095868D01*
X157273378Y-112095868D02*
X157381128Y-112203617D01*
X156788505Y-112095868D02*
X157354190Y-111530182D01*
X157354190Y-111530182D02*
X157138691Y-111314683D01*
X157138691Y-111314683D02*
X157057879Y-111287746D01*
X157057879Y-111287746D02*
X157004004Y-111287746D01*
X157004004Y-111287746D02*
X156923192Y-111314683D01*
X156923192Y-111314683D02*
X156842380Y-111395495D01*
X156842380Y-111395495D02*
X156815442Y-111476307D01*
X156815442Y-111476307D02*
X156815442Y-111530182D01*
X156815442Y-111530182D02*
X156842380Y-111610994D01*
X156842380Y-111610994D02*
X157057879Y-111826494D01*
X156195882Y-111503245D02*
X156088132Y-111395495D01*
X156088132Y-111395495D02*
X156061195Y-111314683D01*
X156061195Y-111314683D02*
X156061195Y-111260808D01*
X156061195Y-111260808D02*
X156088132Y-111126121D01*
X156088132Y-111126121D02*
X156168945Y-110991434D01*
X156168945Y-110991434D02*
X156384444Y-110775935D01*
X156384444Y-110775935D02*
X156465256Y-110748998D01*
X156465256Y-110748998D02*
X156519131Y-110748998D01*
X156519131Y-110748998D02*
X156599943Y-110775935D01*
X156599943Y-110775935D02*
X156707693Y-110883685D01*
X156707693Y-110883685D02*
X156734630Y-110964497D01*
X156734630Y-110964497D02*
X156734630Y-111018372D01*
X156734630Y-111018372D02*
X156707693Y-111099184D01*
X156707693Y-111099184D02*
X156573006Y-111233871D01*
X156573006Y-111233871D02*
X156492193Y-111260808D01*
X156492193Y-111260808D02*
X156438319Y-111260808D01*
X156438319Y-111260808D02*
X156357506Y-111233871D01*
X156357506Y-111233871D02*
X156249757Y-111126121D01*
X156249757Y-111126121D02*
X156222819Y-111045309D01*
X156222819Y-111045309D02*
X156222819Y-110991434D01*
X156222819Y-110991434D02*
X156249757Y-110910622D01*
X132012001Y-99141868D02*
X132092814Y-99168805D01*
X132092814Y-99168805D02*
X132173626Y-99249618D01*
X132173626Y-99249618D02*
X132227501Y-99357367D01*
X132227501Y-99357367D02*
X132227501Y-99465117D01*
X132227501Y-99465117D02*
X132200563Y-99545929D01*
X132200563Y-99545929D02*
X132119751Y-99680616D01*
X132119751Y-99680616D02*
X132038939Y-99761428D01*
X132038939Y-99761428D02*
X131904252Y-99842241D01*
X131904252Y-99842241D02*
X131823439Y-99869178D01*
X131823439Y-99869178D02*
X131715690Y-99869178D01*
X131715690Y-99869178D02*
X131607940Y-99815303D01*
X131607940Y-99815303D02*
X131554065Y-99761428D01*
X131554065Y-99761428D02*
X131500191Y-99653679D01*
X131500191Y-99653679D02*
X131500191Y-99599804D01*
X131500191Y-99599804D02*
X131688752Y-99411242D01*
X131688752Y-99411242D02*
X131796502Y-99518992D01*
X131203879Y-99411242D02*
X131769565Y-98845557D01*
X131769565Y-98845557D02*
X131554065Y-98630057D01*
X131554065Y-98630057D02*
X131473253Y-98603120D01*
X131473253Y-98603120D02*
X131419378Y-98603120D01*
X131419378Y-98603120D02*
X131338566Y-98630057D01*
X131338566Y-98630057D02*
X131257754Y-98710870D01*
X131257754Y-98710870D02*
X131230817Y-98791682D01*
X131230817Y-98791682D02*
X131230817Y-98845557D01*
X131230817Y-98845557D02*
X131257754Y-98926369D01*
X131257754Y-98926369D02*
X131473253Y-99141868D01*
X131176942Y-98360683D02*
X131176942Y-98306809D01*
X131176942Y-98306809D02*
X131150004Y-98225996D01*
X131150004Y-98225996D02*
X131015317Y-98091309D01*
X131015317Y-98091309D02*
X130934505Y-98064372D01*
X130934505Y-98064372D02*
X130880630Y-98064372D01*
X130880630Y-98064372D02*
X130799818Y-98091309D01*
X130799818Y-98091309D02*
X130745943Y-98145184D01*
X130745943Y-98145184D02*
X130692069Y-98252934D01*
X130692069Y-98252934D02*
X130692069Y-98899431D01*
X130692069Y-98899431D02*
X130341882Y-98549245D01*
X130341882Y-97902747D02*
X130422694Y-97929685D01*
X130422694Y-97929685D02*
X130476569Y-97929685D01*
X130476569Y-97929685D02*
X130557381Y-97902747D01*
X130557381Y-97902747D02*
X130584319Y-97875810D01*
X130584319Y-97875810D02*
X130611256Y-97794998D01*
X130611256Y-97794998D02*
X130611256Y-97741123D01*
X130611256Y-97741123D02*
X130584319Y-97660311D01*
X130584319Y-97660311D02*
X130476569Y-97552561D01*
X130476569Y-97552561D02*
X130395757Y-97525624D01*
X130395757Y-97525624D02*
X130341882Y-97525624D01*
X130341882Y-97525624D02*
X130261070Y-97552561D01*
X130261070Y-97552561D02*
X130234133Y-97579499D01*
X130234133Y-97579499D02*
X130207195Y-97660311D01*
X130207195Y-97660311D02*
X130207195Y-97714186D01*
X130207195Y-97714186D02*
X130234133Y-97794998D01*
X130234133Y-97794998D02*
X130341882Y-97902747D01*
X130341882Y-97902747D02*
X130368820Y-97983560D01*
X130368820Y-97983560D02*
X130368820Y-98037434D01*
X130368820Y-98037434D02*
X130341882Y-98118247D01*
X130341882Y-98118247D02*
X130234133Y-98225996D01*
X130234133Y-98225996D02*
X130153320Y-98252934D01*
X130153320Y-98252934D02*
X130099446Y-98252934D01*
X130099446Y-98252934D02*
X130018633Y-98225996D01*
X130018633Y-98225996D02*
X129910884Y-98118247D01*
X129910884Y-98118247D02*
X129883946Y-98037434D01*
X129883946Y-98037434D02*
X129883946Y-97983560D01*
X129883946Y-97983560D02*
X129910884Y-97902747D01*
X129910884Y-97902747D02*
X130018633Y-97794998D01*
X130018633Y-97794998D02*
X130099446Y-97768060D01*
X130099446Y-97768060D02*
X130153320Y-97768060D01*
X130153320Y-97768060D02*
X130234133Y-97794998D01*
X132012001Y-124795868D02*
X132092814Y-124822805D01*
X132092814Y-124822805D02*
X132173626Y-124903618D01*
X132173626Y-124903618D02*
X132227501Y-125011367D01*
X132227501Y-125011367D02*
X132227501Y-125119117D01*
X132227501Y-125119117D02*
X132200563Y-125199929D01*
X132200563Y-125199929D02*
X132119751Y-125334616D01*
X132119751Y-125334616D02*
X132038939Y-125415428D01*
X132038939Y-125415428D02*
X131904252Y-125496241D01*
X131904252Y-125496241D02*
X131823439Y-125523178D01*
X131823439Y-125523178D02*
X131715690Y-125523178D01*
X131715690Y-125523178D02*
X131607940Y-125469303D01*
X131607940Y-125469303D02*
X131554065Y-125415428D01*
X131554065Y-125415428D02*
X131500191Y-125307679D01*
X131500191Y-125307679D02*
X131500191Y-125253804D01*
X131500191Y-125253804D02*
X131688752Y-125065242D01*
X131688752Y-125065242D02*
X131796502Y-125172992D01*
X131203879Y-125065242D02*
X131769565Y-124499557D01*
X131769565Y-124499557D02*
X131554065Y-124284057D01*
X131554065Y-124284057D02*
X131473253Y-124257120D01*
X131473253Y-124257120D02*
X131419378Y-124257120D01*
X131419378Y-124257120D02*
X131338566Y-124284057D01*
X131338566Y-124284057D02*
X131257754Y-124364870D01*
X131257754Y-124364870D02*
X131230817Y-124445682D01*
X131230817Y-124445682D02*
X131230817Y-124499557D01*
X131230817Y-124499557D02*
X131257754Y-124580369D01*
X131257754Y-124580369D02*
X131473253Y-124795868D01*
X130341882Y-124203245D02*
X130665131Y-124526494D01*
X130503507Y-124364870D02*
X131069192Y-123799184D01*
X131069192Y-123799184D02*
X131042255Y-123933871D01*
X131042255Y-123933871D02*
X131042255Y-124041621D01*
X131042255Y-124041621D02*
X131069192Y-124122433D01*
X130341882Y-123556747D02*
X130422694Y-123583685D01*
X130422694Y-123583685D02*
X130476569Y-123583685D01*
X130476569Y-123583685D02*
X130557381Y-123556747D01*
X130557381Y-123556747D02*
X130584319Y-123529810D01*
X130584319Y-123529810D02*
X130611256Y-123448998D01*
X130611256Y-123448998D02*
X130611256Y-123395123D01*
X130611256Y-123395123D02*
X130584319Y-123314311D01*
X130584319Y-123314311D02*
X130476569Y-123206561D01*
X130476569Y-123206561D02*
X130395757Y-123179624D01*
X130395757Y-123179624D02*
X130341882Y-123179624D01*
X130341882Y-123179624D02*
X130261070Y-123206561D01*
X130261070Y-123206561D02*
X130234133Y-123233499D01*
X130234133Y-123233499D02*
X130207195Y-123314311D01*
X130207195Y-123314311D02*
X130207195Y-123368186D01*
X130207195Y-123368186D02*
X130234133Y-123448998D01*
X130234133Y-123448998D02*
X130341882Y-123556747D01*
X130341882Y-123556747D02*
X130368820Y-123637560D01*
X130368820Y-123637560D02*
X130368820Y-123691434D01*
X130368820Y-123691434D02*
X130341882Y-123772247D01*
X130341882Y-123772247D02*
X130234133Y-123879996D01*
X130234133Y-123879996D02*
X130153320Y-123906934D01*
X130153320Y-123906934D02*
X130099446Y-123906934D01*
X130099446Y-123906934D02*
X130018633Y-123879996D01*
X130018633Y-123879996D02*
X129910884Y-123772247D01*
X129910884Y-123772247D02*
X129883946Y-123691434D01*
X129883946Y-123691434D02*
X129883946Y-123637560D01*
X129883946Y-123637560D02*
X129910884Y-123556747D01*
X129910884Y-123556747D02*
X130018633Y-123448998D01*
X130018633Y-123448998D02*
X130099446Y-123422060D01*
X130099446Y-123422060D02*
X130153320Y-123422060D01*
X130153320Y-123422060D02*
X130234133Y-123448998D01*
X131271348Y-109838710D02*
X131729283Y-109757898D01*
X131594596Y-110161959D02*
X132160282Y-109596274D01*
X132160282Y-109596274D02*
X131944783Y-109380775D01*
X131944783Y-109380775D02*
X131863970Y-109353837D01*
X131863970Y-109353837D02*
X131810096Y-109353837D01*
X131810096Y-109353837D02*
X131729283Y-109380775D01*
X131729283Y-109380775D02*
X131648471Y-109461587D01*
X131648471Y-109461587D02*
X131621534Y-109542399D01*
X131621534Y-109542399D02*
X131621534Y-109596274D01*
X131621534Y-109596274D02*
X131648471Y-109677086D01*
X131648471Y-109677086D02*
X131863970Y-109892585D01*
X131594596Y-109030588D02*
X131136661Y-109488524D01*
X131136661Y-109488524D02*
X131055848Y-109515462D01*
X131055848Y-109515462D02*
X131001974Y-109515462D01*
X131001974Y-109515462D02*
X130921161Y-109488524D01*
X130921161Y-109488524D02*
X130813412Y-109380775D01*
X130813412Y-109380775D02*
X130786474Y-109299962D01*
X130786474Y-109299962D02*
X130786474Y-109246088D01*
X130786474Y-109246088D02*
X130813412Y-109165275D01*
X130813412Y-109165275D02*
X131271348Y-108707340D01*
X130436288Y-109003651D02*
X131001974Y-108437966D01*
X131001974Y-108437966D02*
X130113040Y-108680402D01*
X130113040Y-108680402D02*
X130678725Y-108114717D01*
X131958126Y-102636240D02*
X131688752Y-102366866D01*
X131850376Y-102851739D02*
X132227500Y-102097492D01*
X132227500Y-102097492D02*
X131473253Y-102474615D01*
X131527128Y-101450994D02*
X131607940Y-101477932D01*
X131607940Y-101477932D02*
X131688752Y-101558744D01*
X131688752Y-101558744D02*
X131742627Y-101666494D01*
X131742627Y-101666494D02*
X131742627Y-101774243D01*
X131742627Y-101774243D02*
X131715689Y-101855055D01*
X131715689Y-101855055D02*
X131634877Y-101989742D01*
X131634877Y-101989742D02*
X131554065Y-102070555D01*
X131554065Y-102070555D02*
X131419378Y-102151367D01*
X131419378Y-102151367D02*
X131338566Y-102178304D01*
X131338566Y-102178304D02*
X131230816Y-102178304D01*
X131230816Y-102178304D02*
X131123067Y-102124429D01*
X131123067Y-102124429D02*
X131069192Y-102070555D01*
X131069192Y-102070555D02*
X131015317Y-101962805D01*
X131015317Y-101962805D02*
X131015317Y-101908930D01*
X131015317Y-101908930D02*
X131203879Y-101720368D01*
X131203879Y-101720368D02*
X131311628Y-101828118D01*
X130719006Y-101720368D02*
X131284691Y-101154683D01*
X131284691Y-101154683D02*
X130395757Y-101397120D01*
X130395757Y-101397120D02*
X130961442Y-100831434D01*
X130126383Y-101127746D02*
X130692068Y-100562060D01*
X130692068Y-100562060D02*
X130557381Y-100427373D01*
X130557381Y-100427373D02*
X130449632Y-100373498D01*
X130449632Y-100373498D02*
X130341882Y-100373498D01*
X130341882Y-100373498D02*
X130261070Y-100400436D01*
X130261070Y-100400436D02*
X130126383Y-100481248D01*
X130126383Y-100481248D02*
X130045571Y-100562060D01*
X130045571Y-100562060D02*
X129964758Y-100696747D01*
X129964758Y-100696747D02*
X129937821Y-100777560D01*
X129937821Y-100777560D02*
X129937821Y-100885309D01*
X129937821Y-100885309D02*
X129991696Y-100993059D01*
X129991696Y-100993059D02*
X130126383Y-101127746D01*
X132012001Y-107015868D02*
X132092814Y-107042805D01*
X132092814Y-107042805D02*
X132173626Y-107123618D01*
X132173626Y-107123618D02*
X132227501Y-107231367D01*
X132227501Y-107231367D02*
X132227501Y-107339117D01*
X132227501Y-107339117D02*
X132200563Y-107419929D01*
X132200563Y-107419929D02*
X132119751Y-107554616D01*
X132119751Y-107554616D02*
X132038939Y-107635428D01*
X132038939Y-107635428D02*
X131904252Y-107716241D01*
X131904252Y-107716241D02*
X131823439Y-107743178D01*
X131823439Y-107743178D02*
X131715690Y-107743178D01*
X131715690Y-107743178D02*
X131607940Y-107689303D01*
X131607940Y-107689303D02*
X131554065Y-107635428D01*
X131554065Y-107635428D02*
X131500191Y-107527679D01*
X131500191Y-107527679D02*
X131500191Y-107473804D01*
X131500191Y-107473804D02*
X131688752Y-107285242D01*
X131688752Y-107285242D02*
X131796502Y-107392992D01*
X131203879Y-107285242D02*
X131769565Y-106719557D01*
X131769565Y-106719557D02*
X131554065Y-106504057D01*
X131554065Y-106504057D02*
X131473253Y-106477120D01*
X131473253Y-106477120D02*
X131419378Y-106477120D01*
X131419378Y-106477120D02*
X131338566Y-106504057D01*
X131338566Y-106504057D02*
X131257754Y-106584870D01*
X131257754Y-106584870D02*
X131230817Y-106665682D01*
X131230817Y-106665682D02*
X131230817Y-106719557D01*
X131230817Y-106719557D02*
X131257754Y-106800369D01*
X131257754Y-106800369D02*
X131473253Y-107015868D01*
X131176942Y-106234683D02*
X131176942Y-106180809D01*
X131176942Y-106180809D02*
X131150004Y-106099996D01*
X131150004Y-106099996D02*
X131015317Y-105965309D01*
X131015317Y-105965309D02*
X130934505Y-105938372D01*
X130934505Y-105938372D02*
X130880630Y-105938372D01*
X130880630Y-105938372D02*
X130799818Y-105965309D01*
X130799818Y-105965309D02*
X130745943Y-106019184D01*
X130745943Y-106019184D02*
X130692069Y-106126934D01*
X130692069Y-106126934D02*
X130692069Y-106773431D01*
X130692069Y-106773431D02*
X130341882Y-106423245D01*
X130422694Y-105372686D02*
X130530444Y-105480436D01*
X130530444Y-105480436D02*
X130557381Y-105561248D01*
X130557381Y-105561248D02*
X130557381Y-105615123D01*
X130557381Y-105615123D02*
X130530444Y-105749810D01*
X130530444Y-105749810D02*
X130449632Y-105884497D01*
X130449632Y-105884497D02*
X130234133Y-106099996D01*
X130234133Y-106099996D02*
X130153320Y-106126934D01*
X130153320Y-106126934D02*
X130099446Y-106126934D01*
X130099446Y-106126934D02*
X130018633Y-106099996D01*
X130018633Y-106099996D02*
X129910884Y-105992247D01*
X129910884Y-105992247D02*
X129883946Y-105911434D01*
X129883946Y-105911434D02*
X129883946Y-105857560D01*
X129883946Y-105857560D02*
X129910884Y-105776747D01*
X129910884Y-105776747D02*
X130045571Y-105642060D01*
X130045571Y-105642060D02*
X130126383Y-105615123D01*
X130126383Y-105615123D02*
X130180258Y-105615123D01*
X130180258Y-105615123D02*
X130261070Y-105642060D01*
X130261070Y-105642060D02*
X130368820Y-105749810D01*
X130368820Y-105749810D02*
X130395757Y-105830622D01*
X130395757Y-105830622D02*
X130395757Y-105884497D01*
X130395757Y-105884497D02*
X130368820Y-105965309D01*
X132012001Y-119715868D02*
X132092814Y-119742805D01*
X132092814Y-119742805D02*
X132173626Y-119823618D01*
X132173626Y-119823618D02*
X132227501Y-119931367D01*
X132227501Y-119931367D02*
X132227501Y-120039117D01*
X132227501Y-120039117D02*
X132200563Y-120119929D01*
X132200563Y-120119929D02*
X132119751Y-120254616D01*
X132119751Y-120254616D02*
X132038939Y-120335428D01*
X132038939Y-120335428D02*
X131904252Y-120416241D01*
X131904252Y-120416241D02*
X131823439Y-120443178D01*
X131823439Y-120443178D02*
X131715690Y-120443178D01*
X131715690Y-120443178D02*
X131607940Y-120389303D01*
X131607940Y-120389303D02*
X131554065Y-120335428D01*
X131554065Y-120335428D02*
X131500191Y-120227679D01*
X131500191Y-120227679D02*
X131500191Y-120173804D01*
X131500191Y-120173804D02*
X131688752Y-119985242D01*
X131688752Y-119985242D02*
X131796502Y-120092992D01*
X131203879Y-119985242D02*
X131769565Y-119419557D01*
X131769565Y-119419557D02*
X131554065Y-119204057D01*
X131554065Y-119204057D02*
X131473253Y-119177120D01*
X131473253Y-119177120D02*
X131419378Y-119177120D01*
X131419378Y-119177120D02*
X131338566Y-119204057D01*
X131338566Y-119204057D02*
X131257754Y-119284870D01*
X131257754Y-119284870D02*
X131230817Y-119365682D01*
X131230817Y-119365682D02*
X131230817Y-119419557D01*
X131230817Y-119419557D02*
X131257754Y-119500369D01*
X131257754Y-119500369D02*
X131473253Y-119715868D01*
X131176942Y-118934683D02*
X131176942Y-118880809D01*
X131176942Y-118880809D02*
X131150004Y-118799996D01*
X131150004Y-118799996D02*
X131015317Y-118665309D01*
X131015317Y-118665309D02*
X130934505Y-118638372D01*
X130934505Y-118638372D02*
X130880630Y-118638372D01*
X130880630Y-118638372D02*
X130799818Y-118665309D01*
X130799818Y-118665309D02*
X130745943Y-118719184D01*
X130745943Y-118719184D02*
X130692069Y-118826934D01*
X130692069Y-118826934D02*
X130692069Y-119473431D01*
X130692069Y-119473431D02*
X130341882Y-119123245D01*
X130557381Y-118207373D02*
X130503507Y-118153499D01*
X130503507Y-118153499D02*
X130422694Y-118126561D01*
X130422694Y-118126561D02*
X130368820Y-118126561D01*
X130368820Y-118126561D02*
X130288007Y-118153499D01*
X130288007Y-118153499D02*
X130153320Y-118234311D01*
X130153320Y-118234311D02*
X130018633Y-118368998D01*
X130018633Y-118368998D02*
X129937821Y-118503685D01*
X129937821Y-118503685D02*
X129910884Y-118584497D01*
X129910884Y-118584497D02*
X129910884Y-118638372D01*
X129910884Y-118638372D02*
X129937821Y-118719184D01*
X129937821Y-118719184D02*
X129991696Y-118773059D01*
X129991696Y-118773059D02*
X130072508Y-118799996D01*
X130072508Y-118799996D02*
X130126383Y-118799996D01*
X130126383Y-118799996D02*
X130207195Y-118773059D01*
X130207195Y-118773059D02*
X130341882Y-118692247D01*
X130341882Y-118692247D02*
X130476569Y-118557560D01*
X130476569Y-118557560D02*
X130557381Y-118422873D01*
X130557381Y-118422873D02*
X130584319Y-118342060D01*
X130584319Y-118342060D02*
X130584319Y-118288186D01*
X130584319Y-118288186D02*
X130557381Y-118207373D01*
X158266001Y-122255868D02*
X158346814Y-122282805D01*
X158346814Y-122282805D02*
X158427626Y-122363618D01*
X158427626Y-122363618D02*
X158481501Y-122471367D01*
X158481501Y-122471367D02*
X158481501Y-122579117D01*
X158481501Y-122579117D02*
X158454563Y-122659929D01*
X158454563Y-122659929D02*
X158373751Y-122794616D01*
X158373751Y-122794616D02*
X158292939Y-122875428D01*
X158292939Y-122875428D02*
X158158252Y-122956241D01*
X158158252Y-122956241D02*
X158077439Y-122983178D01*
X158077439Y-122983178D02*
X157969690Y-122983178D01*
X157969690Y-122983178D02*
X157861940Y-122929303D01*
X157861940Y-122929303D02*
X157808065Y-122875428D01*
X157808065Y-122875428D02*
X157754191Y-122767679D01*
X157754191Y-122767679D02*
X157754191Y-122713804D01*
X157754191Y-122713804D02*
X157942752Y-122525242D01*
X157942752Y-122525242D02*
X158050502Y-122632992D01*
X157457879Y-122525242D02*
X158023565Y-121959557D01*
X158023565Y-121959557D02*
X157808065Y-121744057D01*
X157808065Y-121744057D02*
X157727253Y-121717120D01*
X157727253Y-121717120D02*
X157673378Y-121717120D01*
X157673378Y-121717120D02*
X157592566Y-121744057D01*
X157592566Y-121744057D02*
X157511754Y-121824870D01*
X157511754Y-121824870D02*
X157484817Y-121905682D01*
X157484817Y-121905682D02*
X157484817Y-121959557D01*
X157484817Y-121959557D02*
X157511754Y-122040369D01*
X157511754Y-122040369D02*
X157727253Y-122255868D01*
X156595882Y-121663245D02*
X156919131Y-121986494D01*
X156757507Y-121824870D02*
X157323192Y-121259184D01*
X157323192Y-121259184D02*
X157296255Y-121393871D01*
X157296255Y-121393871D02*
X157296255Y-121501621D01*
X157296255Y-121501621D02*
X157323192Y-121582433D01*
X156892194Y-120935935D02*
X156892194Y-120882060D01*
X156892194Y-120882060D02*
X156865256Y-120801248D01*
X156865256Y-120801248D02*
X156730569Y-120666561D01*
X156730569Y-120666561D02*
X156649757Y-120639624D01*
X156649757Y-120639624D02*
X156595882Y-120639624D01*
X156595882Y-120639624D02*
X156515070Y-120666561D01*
X156515070Y-120666561D02*
X156461195Y-120720436D01*
X156461195Y-120720436D02*
X156407320Y-120828186D01*
X156407320Y-120828186D02*
X156407320Y-121474683D01*
X156407320Y-121474683D02*
X156057134Y-121124497D01*
X158120001Y-132415868D02*
X158200814Y-132442805D01*
X158200814Y-132442805D02*
X158281626Y-132523618D01*
X158281626Y-132523618D02*
X158335501Y-132631367D01*
X158335501Y-132631367D02*
X158335501Y-132739117D01*
X158335501Y-132739117D02*
X158308563Y-132819929D01*
X158308563Y-132819929D02*
X158227751Y-132954616D01*
X158227751Y-132954616D02*
X158146939Y-133035428D01*
X158146939Y-133035428D02*
X158012252Y-133116241D01*
X158012252Y-133116241D02*
X157931439Y-133143178D01*
X157931439Y-133143178D02*
X157823690Y-133143178D01*
X157823690Y-133143178D02*
X157715940Y-133089303D01*
X157715940Y-133089303D02*
X157662065Y-133035428D01*
X157662065Y-133035428D02*
X157608191Y-132927679D01*
X157608191Y-132927679D02*
X157608191Y-132873804D01*
X157608191Y-132873804D02*
X157796752Y-132685242D01*
X157796752Y-132685242D02*
X157904502Y-132792992D01*
X157311879Y-132685242D02*
X157877565Y-132119557D01*
X157877565Y-132119557D02*
X157662065Y-131904057D01*
X157662065Y-131904057D02*
X157581253Y-131877120D01*
X157581253Y-131877120D02*
X157527378Y-131877120D01*
X157527378Y-131877120D02*
X157446566Y-131904057D01*
X157446566Y-131904057D02*
X157365754Y-131984870D01*
X157365754Y-131984870D02*
X157338817Y-132065682D01*
X157338817Y-132065682D02*
X157338817Y-132119557D01*
X157338817Y-132119557D02*
X157365754Y-132200369D01*
X157365754Y-132200369D02*
X157581253Y-132415868D01*
X156449882Y-131823245D02*
X156773131Y-132146494D01*
X156611507Y-131984870D02*
X157177192Y-131419184D01*
X157177192Y-131419184D02*
X157150255Y-131553871D01*
X157150255Y-131553871D02*
X157150255Y-131661621D01*
X157150255Y-131661621D02*
X157177192Y-131742433D01*
X156503757Y-130745749D02*
X156773131Y-131015123D01*
X156773131Y-131015123D02*
X156530694Y-131311434D01*
X156530694Y-131311434D02*
X156530694Y-131257560D01*
X156530694Y-131257560D02*
X156503757Y-131176747D01*
X156503757Y-131176747D02*
X156369070Y-131042060D01*
X156369070Y-131042060D02*
X156288258Y-131015123D01*
X156288258Y-131015123D02*
X156234383Y-131015123D01*
X156234383Y-131015123D02*
X156153571Y-131042060D01*
X156153571Y-131042060D02*
X156018884Y-131176747D01*
X156018884Y-131176747D02*
X155991946Y-131257560D01*
X155991946Y-131257560D02*
X155991946Y-131311434D01*
X155991946Y-131311434D02*
X156018884Y-131392247D01*
X156018884Y-131392247D02*
X156153571Y-131526934D01*
X156153571Y-131526934D02*
X156234383Y-131553871D01*
X156234383Y-131553871D02*
X156288258Y-131553871D01*
X132156593Y-84422585D02*
X131402346Y-84799709D01*
X131402346Y-84799709D02*
X131779470Y-84045462D01*
X131132972Y-83937712D02*
X131025223Y-83883838D01*
X131025223Y-83883838D02*
X130971348Y-83883838D01*
X130971348Y-83883838D02*
X130890536Y-83910775D01*
X130890536Y-83910775D02*
X130809723Y-83991587D01*
X130809723Y-83991587D02*
X130782786Y-84072399D01*
X130782786Y-84072399D02*
X130782786Y-84126274D01*
X130782786Y-84126274D02*
X130809723Y-84207086D01*
X130809723Y-84207086D02*
X131025223Y-84422586D01*
X131025223Y-84422586D02*
X131590908Y-83856900D01*
X131590908Y-83856900D02*
X131402346Y-83668338D01*
X131402346Y-83668338D02*
X131321534Y-83641401D01*
X131321534Y-83641401D02*
X131267659Y-83641401D01*
X131267659Y-83641401D02*
X131186847Y-83668338D01*
X131186847Y-83668338D02*
X131132972Y-83722213D01*
X131132972Y-83722213D02*
X131106035Y-83803025D01*
X131106035Y-83803025D02*
X131106035Y-83856900D01*
X131106035Y-83856900D02*
X131132972Y-83937712D01*
X131132972Y-83937712D02*
X131321534Y-84126274D01*
X131025223Y-83291215D02*
X130567287Y-83749151D01*
X130567287Y-83749151D02*
X130486475Y-83776088D01*
X130486475Y-83776088D02*
X130432600Y-83776088D01*
X130432600Y-83776088D02*
X130351788Y-83749151D01*
X130351788Y-83749151D02*
X130244038Y-83641401D01*
X130244038Y-83641401D02*
X130217101Y-83560589D01*
X130217101Y-83560589D02*
X130217101Y-83506714D01*
X130217101Y-83506714D02*
X130244038Y-83425902D01*
X130244038Y-83425902D02*
X130701974Y-82967966D01*
X129920789Y-83264277D02*
X129813040Y-83210403D01*
X129813040Y-83210403D02*
X129678353Y-83075716D01*
X129678353Y-83075716D02*
X129651415Y-82994903D01*
X129651415Y-82994903D02*
X129651415Y-82941029D01*
X129651415Y-82941029D02*
X129678353Y-82860216D01*
X129678353Y-82860216D02*
X129732228Y-82806342D01*
X129732228Y-82806342D02*
X129813040Y-82779404D01*
X129813040Y-82779404D02*
X129866915Y-82779404D01*
X129866915Y-82779404D02*
X129947727Y-82806342D01*
X129947727Y-82806342D02*
X130082414Y-82887154D01*
X130082414Y-82887154D02*
X130163226Y-82914091D01*
X130163226Y-82914091D02*
X130217101Y-82914091D01*
X130217101Y-82914091D02*
X130297913Y-82887154D01*
X130297913Y-82887154D02*
X130351788Y-82833279D01*
X130351788Y-82833279D02*
X130378725Y-82752467D01*
X130378725Y-82752467D02*
X130378725Y-82698592D01*
X130378725Y-82698592D02*
X130351788Y-82617780D01*
X130351788Y-82617780D02*
X130217101Y-82483093D01*
X130217101Y-82483093D02*
X130109351Y-82429218D01*
X132219876Y-94385868D02*
X131869690Y-94035682D01*
X131869690Y-94035682D02*
X131842752Y-94439743D01*
X131842752Y-94439743D02*
X131761940Y-94358931D01*
X131761940Y-94358931D02*
X131681128Y-94331993D01*
X131681128Y-94331993D02*
X131627253Y-94331993D01*
X131627253Y-94331993D02*
X131546441Y-94358931D01*
X131546441Y-94358931D02*
X131411754Y-94493618D01*
X131411754Y-94493618D02*
X131384817Y-94574430D01*
X131384817Y-94574430D02*
X131384817Y-94628305D01*
X131384817Y-94628305D02*
X131411754Y-94709117D01*
X131411754Y-94709117D02*
X131573378Y-94870741D01*
X131573378Y-94870741D02*
X131654191Y-94897679D01*
X131654191Y-94897679D02*
X131708065Y-94897679D01*
X131708065Y-93874057D02*
X130953818Y-94251181D01*
X130953818Y-94251181D02*
X131330942Y-93496934D01*
X131196255Y-93362247D02*
X130846069Y-93012061D01*
X130846069Y-93012061D02*
X130819131Y-93416122D01*
X130819131Y-93416122D02*
X130738319Y-93335309D01*
X130738319Y-93335309D02*
X130657507Y-93308372D01*
X130657507Y-93308372D02*
X130603632Y-93308372D01*
X130603632Y-93308372D02*
X130522820Y-93335309D01*
X130522820Y-93335309D02*
X130388133Y-93469996D01*
X130388133Y-93469996D02*
X130361195Y-93550809D01*
X130361195Y-93550809D02*
X130361195Y-93604683D01*
X130361195Y-93604683D02*
X130388133Y-93685496D01*
X130388133Y-93685496D02*
X130549757Y-93847120D01*
X130549757Y-93847120D02*
X130630569Y-93874057D01*
X130630569Y-93874057D02*
X130684444Y-93874057D01*
X157623564Y-88993431D02*
X157704376Y-89020368D01*
X157704376Y-89020368D02*
X157785188Y-89101180D01*
X157785188Y-89101180D02*
X157839063Y-89208930D01*
X157839063Y-89208930D02*
X157839063Y-89316680D01*
X157839063Y-89316680D02*
X157812126Y-89397492D01*
X157812126Y-89397492D02*
X157731314Y-89532179D01*
X157731314Y-89532179D02*
X157650501Y-89612991D01*
X157650501Y-89612991D02*
X157515814Y-89693803D01*
X157515814Y-89693803D02*
X157435002Y-89720741D01*
X157435002Y-89720741D02*
X157327253Y-89720741D01*
X157327253Y-89720741D02*
X157219503Y-89666866D01*
X157219503Y-89666866D02*
X157165628Y-89612991D01*
X157165628Y-89612991D02*
X157111753Y-89505241D01*
X157111753Y-89505241D02*
X157111753Y-89451367D01*
X157111753Y-89451367D02*
X157300315Y-89262805D01*
X157300315Y-89262805D02*
X157408065Y-89370554D01*
X156815442Y-89262805D02*
X157381127Y-88697119D01*
X157381127Y-88697119D02*
X156492193Y-88939556D01*
X156492193Y-88939556D02*
X157057879Y-88373871D01*
X156222819Y-88670182D02*
X156788505Y-88104497D01*
X156788505Y-88104497D02*
X156653818Y-87969810D01*
X156653818Y-87969810D02*
X156546068Y-87915935D01*
X156546068Y-87915935D02*
X156438319Y-87915935D01*
X156438319Y-87915935D02*
X156357506Y-87942872D01*
X156357506Y-87942872D02*
X156222819Y-88023685D01*
X156222819Y-88023685D02*
X156142007Y-88104497D01*
X156142007Y-88104497D02*
X156061195Y-88239184D01*
X156061195Y-88239184D02*
X156034258Y-88319996D01*
X156034258Y-88319996D02*
X156034258Y-88427746D01*
X156034258Y-88427746D02*
X156088132Y-88535495D01*
X156088132Y-88535495D02*
X156222819Y-88670182D01*
X157696627Y-91506494D02*
X157777439Y-91533431D01*
X157777439Y-91533431D02*
X157858251Y-91614243D01*
X157858251Y-91614243D02*
X157912126Y-91721993D01*
X157912126Y-91721993D02*
X157912126Y-91829742D01*
X157912126Y-91829742D02*
X157885189Y-91910555D01*
X157885189Y-91910555D02*
X157804376Y-92045242D01*
X157804376Y-92045242D02*
X157723564Y-92126054D01*
X157723564Y-92126054D02*
X157588877Y-92206866D01*
X157588877Y-92206866D02*
X157508065Y-92233803D01*
X157508065Y-92233803D02*
X157400315Y-92233803D01*
X157400315Y-92233803D02*
X157292566Y-92179929D01*
X157292566Y-92179929D02*
X157238691Y-92126054D01*
X157238691Y-92126054D02*
X157184816Y-92018304D01*
X157184816Y-92018304D02*
X157184816Y-91964429D01*
X157184816Y-91964429D02*
X157373378Y-91775868D01*
X157373378Y-91775868D02*
X157481128Y-91883617D01*
X156888505Y-91775868D02*
X157454190Y-91210182D01*
X157454190Y-91210182D02*
X157238691Y-90994683D01*
X157238691Y-90994683D02*
X157157879Y-90967746D01*
X157157879Y-90967746D02*
X157104004Y-90967746D01*
X157104004Y-90967746D02*
X157023192Y-90994683D01*
X157023192Y-90994683D02*
X156942380Y-91075495D01*
X156942380Y-91075495D02*
X156915442Y-91156307D01*
X156915442Y-91156307D02*
X156915442Y-91210182D01*
X156915442Y-91210182D02*
X156942380Y-91290994D01*
X156942380Y-91290994D02*
X157157879Y-91506494D01*
X156861567Y-90725309D02*
X156861567Y-90671434D01*
X156861567Y-90671434D02*
X156834630Y-90590622D01*
X156834630Y-90590622D02*
X156699943Y-90455935D01*
X156699943Y-90455935D02*
X156619131Y-90428998D01*
X156619131Y-90428998D02*
X156565256Y-90428998D01*
X156565256Y-90428998D02*
X156484444Y-90455935D01*
X156484444Y-90455935D02*
X156430569Y-90509810D01*
X156430569Y-90509810D02*
X156376694Y-90617559D01*
X156376694Y-90617559D02*
X156376694Y-91264057D01*
X156376694Y-91264057D02*
X156026508Y-90913871D01*
X157496627Y-106716494D02*
X157577439Y-106743431D01*
X157577439Y-106743431D02*
X157658251Y-106824243D01*
X157658251Y-106824243D02*
X157712126Y-106931993D01*
X157712126Y-106931993D02*
X157712126Y-107039742D01*
X157712126Y-107039742D02*
X157685189Y-107120555D01*
X157685189Y-107120555D02*
X157604376Y-107255242D01*
X157604376Y-107255242D02*
X157523564Y-107336054D01*
X157523564Y-107336054D02*
X157388877Y-107416866D01*
X157388877Y-107416866D02*
X157308065Y-107443803D01*
X157308065Y-107443803D02*
X157200315Y-107443803D01*
X157200315Y-107443803D02*
X157092566Y-107389929D01*
X157092566Y-107389929D02*
X157038691Y-107336054D01*
X157038691Y-107336054D02*
X156984816Y-107228304D01*
X156984816Y-107228304D02*
X156984816Y-107174429D01*
X156984816Y-107174429D02*
X157173378Y-106985868D01*
X157173378Y-106985868D02*
X157281128Y-107093617D01*
X156688505Y-106985868D02*
X157254190Y-106420182D01*
X157254190Y-106420182D02*
X157038691Y-106204683D01*
X157038691Y-106204683D02*
X156957879Y-106177746D01*
X156957879Y-106177746D02*
X156904004Y-106177746D01*
X156904004Y-106177746D02*
X156823192Y-106204683D01*
X156823192Y-106204683D02*
X156742380Y-106285495D01*
X156742380Y-106285495D02*
X156715442Y-106366307D01*
X156715442Y-106366307D02*
X156715442Y-106420182D01*
X156715442Y-106420182D02*
X156742380Y-106500994D01*
X156742380Y-106500994D02*
X156957879Y-106716494D01*
X156742380Y-105908372D02*
X156365256Y-105531248D01*
X156365256Y-105531248D02*
X156042007Y-106339370D01*
X132012001Y-132415868D02*
X132092814Y-132442805D01*
X132092814Y-132442805D02*
X132173626Y-132523618D01*
X132173626Y-132523618D02*
X132227501Y-132631367D01*
X132227501Y-132631367D02*
X132227501Y-132739117D01*
X132227501Y-132739117D02*
X132200563Y-132819929D01*
X132200563Y-132819929D02*
X132119751Y-132954616D01*
X132119751Y-132954616D02*
X132038939Y-133035428D01*
X132038939Y-133035428D02*
X131904252Y-133116241D01*
X131904252Y-133116241D02*
X131823439Y-133143178D01*
X131823439Y-133143178D02*
X131715690Y-133143178D01*
X131715690Y-133143178D02*
X131607940Y-133089303D01*
X131607940Y-133089303D02*
X131554065Y-133035428D01*
X131554065Y-133035428D02*
X131500191Y-132927679D01*
X131500191Y-132927679D02*
X131500191Y-132873804D01*
X131500191Y-132873804D02*
X131688752Y-132685242D01*
X131688752Y-132685242D02*
X131796502Y-132792992D01*
X131203879Y-132685242D02*
X131769565Y-132119557D01*
X131769565Y-132119557D02*
X131554065Y-131904057D01*
X131554065Y-131904057D02*
X131473253Y-131877120D01*
X131473253Y-131877120D02*
X131419378Y-131877120D01*
X131419378Y-131877120D02*
X131338566Y-131904057D01*
X131338566Y-131904057D02*
X131257754Y-131984870D01*
X131257754Y-131984870D02*
X131230817Y-132065682D01*
X131230817Y-132065682D02*
X131230817Y-132119557D01*
X131230817Y-132119557D02*
X131257754Y-132200369D01*
X131257754Y-132200369D02*
X131473253Y-132415868D01*
X130341882Y-131823245D02*
X130665131Y-132146494D01*
X130503507Y-131984870D02*
X131069192Y-131419184D01*
X131069192Y-131419184D02*
X131042255Y-131553871D01*
X131042255Y-131553871D02*
X131042255Y-131661621D01*
X131042255Y-131661621D02*
X131069192Y-131742433D01*
X130422694Y-130772686D02*
X130530444Y-130880436D01*
X130530444Y-130880436D02*
X130557381Y-130961248D01*
X130557381Y-130961248D02*
X130557381Y-131015123D01*
X130557381Y-131015123D02*
X130530444Y-131149810D01*
X130530444Y-131149810D02*
X130449632Y-131284497D01*
X130449632Y-131284497D02*
X130234133Y-131499996D01*
X130234133Y-131499996D02*
X130153320Y-131526934D01*
X130153320Y-131526934D02*
X130099446Y-131526934D01*
X130099446Y-131526934D02*
X130018633Y-131499996D01*
X130018633Y-131499996D02*
X129910884Y-131392247D01*
X129910884Y-131392247D02*
X129883946Y-131311434D01*
X129883946Y-131311434D02*
X129883946Y-131257560D01*
X129883946Y-131257560D02*
X129910884Y-131176747D01*
X129910884Y-131176747D02*
X130045571Y-131042060D01*
X130045571Y-131042060D02*
X130126383Y-131015123D01*
X130126383Y-131015123D02*
X130180258Y-131015123D01*
X130180258Y-131015123D02*
X130261070Y-131042060D01*
X130261070Y-131042060D02*
X130368820Y-131149810D01*
X130368820Y-131149810D02*
X130395757Y-131230622D01*
X130395757Y-131230622D02*
X130395757Y-131284497D01*
X130395757Y-131284497D02*
X130368820Y-131365309D01*
X157623564Y-114393431D02*
X157704376Y-114420368D01*
X157704376Y-114420368D02*
X157785188Y-114501180D01*
X157785188Y-114501180D02*
X157839063Y-114608930D01*
X157839063Y-114608930D02*
X157839063Y-114716680D01*
X157839063Y-114716680D02*
X157812126Y-114797492D01*
X157812126Y-114797492D02*
X157731314Y-114932179D01*
X157731314Y-114932179D02*
X157650501Y-115012991D01*
X157650501Y-115012991D02*
X157515814Y-115093803D01*
X157515814Y-115093803D02*
X157435002Y-115120741D01*
X157435002Y-115120741D02*
X157327253Y-115120741D01*
X157327253Y-115120741D02*
X157219503Y-115066866D01*
X157219503Y-115066866D02*
X157165628Y-115012991D01*
X157165628Y-115012991D02*
X157111753Y-114905241D01*
X157111753Y-114905241D02*
X157111753Y-114851367D01*
X157111753Y-114851367D02*
X157300315Y-114662805D01*
X157300315Y-114662805D02*
X157408065Y-114770554D01*
X156815442Y-114662805D02*
X157381127Y-114097119D01*
X157381127Y-114097119D02*
X156492193Y-114339556D01*
X156492193Y-114339556D02*
X157057879Y-113773871D01*
X156222819Y-114070182D02*
X156788505Y-113504497D01*
X156788505Y-113504497D02*
X156653818Y-113369810D01*
X156653818Y-113369810D02*
X156546068Y-113315935D01*
X156546068Y-113315935D02*
X156438319Y-113315935D01*
X156438319Y-113315935D02*
X156357506Y-113342872D01*
X156357506Y-113342872D02*
X156222819Y-113423685D01*
X156222819Y-113423685D02*
X156142007Y-113504497D01*
X156142007Y-113504497D02*
X156061195Y-113639184D01*
X156061195Y-113639184D02*
X156034258Y-113719996D01*
X156034258Y-113719996D02*
X156034258Y-113827746D01*
X156034258Y-113827746D02*
X156088132Y-113935495D01*
X156088132Y-113935495D02*
X156222819Y-114070182D01*
X157696627Y-86416494D02*
X157777439Y-86443431D01*
X157777439Y-86443431D02*
X157858251Y-86524243D01*
X157858251Y-86524243D02*
X157912126Y-86631993D01*
X157912126Y-86631993D02*
X157912126Y-86739742D01*
X157912126Y-86739742D02*
X157885189Y-86820555D01*
X157885189Y-86820555D02*
X157804376Y-86955242D01*
X157804376Y-86955242D02*
X157723564Y-87036054D01*
X157723564Y-87036054D02*
X157588877Y-87116866D01*
X157588877Y-87116866D02*
X157508065Y-87143803D01*
X157508065Y-87143803D02*
X157400315Y-87143803D01*
X157400315Y-87143803D02*
X157292566Y-87089929D01*
X157292566Y-87089929D02*
X157238691Y-87036054D01*
X157238691Y-87036054D02*
X157184816Y-86928304D01*
X157184816Y-86928304D02*
X157184816Y-86874429D01*
X157184816Y-86874429D02*
X157373378Y-86685868D01*
X157373378Y-86685868D02*
X157481128Y-86793617D01*
X156888505Y-86685868D02*
X157454190Y-86120182D01*
X157454190Y-86120182D02*
X157238691Y-85904683D01*
X157238691Y-85904683D02*
X157157879Y-85877746D01*
X157157879Y-85877746D02*
X157104004Y-85877746D01*
X157104004Y-85877746D02*
X157023192Y-85904683D01*
X157023192Y-85904683D02*
X156942380Y-85985495D01*
X156942380Y-85985495D02*
X156915442Y-86066307D01*
X156915442Y-86066307D02*
X156915442Y-86120182D01*
X156915442Y-86120182D02*
X156942380Y-86200994D01*
X156942380Y-86200994D02*
X157157879Y-86416494D01*
X156026508Y-85823871D02*
X156349757Y-86147120D01*
X156188132Y-85985495D02*
X156753818Y-85419810D01*
X156753818Y-85419810D02*
X156726880Y-85554497D01*
X156726880Y-85554497D02*
X156726880Y-85662246D01*
X156726880Y-85662246D02*
X156753818Y-85743059D01*
X131954935Y-97429049D02*
X131685561Y-97159675D01*
X131847186Y-97644549D02*
X132224309Y-96890301D01*
X132224309Y-96890301D02*
X131470062Y-97267425D01*
X131281500Y-97078863D02*
X131847186Y-96513178D01*
X131847186Y-96513178D02*
X131712499Y-96378491D01*
X131712499Y-96378491D02*
X131604749Y-96324616D01*
X131604749Y-96324616D02*
X131497000Y-96324616D01*
X131497000Y-96324616D02*
X131416187Y-96351553D01*
X131416187Y-96351553D02*
X131281500Y-96432366D01*
X131281500Y-96432366D02*
X131200688Y-96513178D01*
X131200688Y-96513178D02*
X131119876Y-96647865D01*
X131119876Y-96647865D02*
X131092939Y-96728677D01*
X131092939Y-96728677D02*
X131092939Y-96836427D01*
X131092939Y-96836427D02*
X131146813Y-96944176D01*
X131146813Y-96944176D02*
X131281500Y-97078863D01*
X130446441Y-96136054D02*
X130446441Y-96189929D01*
X130446441Y-96189929D02*
X130500316Y-96297679D01*
X130500316Y-96297679D02*
X130554191Y-96351553D01*
X130554191Y-96351553D02*
X130661940Y-96405428D01*
X130661940Y-96405428D02*
X130769690Y-96405428D01*
X130769690Y-96405428D02*
X130850502Y-96378491D01*
X130850502Y-96378491D02*
X130985189Y-96297679D01*
X130985189Y-96297679D02*
X131066001Y-96216866D01*
X131066001Y-96216866D02*
X131146813Y-96082179D01*
X131146813Y-96082179D02*
X131173751Y-96001367D01*
X131173751Y-96001367D02*
X131173751Y-95893618D01*
X131173751Y-95893618D02*
X131119876Y-95785868D01*
X131119876Y-95785868D02*
X131066001Y-95731993D01*
X131066001Y-95731993D02*
X130958252Y-95678118D01*
X130958252Y-95678118D02*
X130904377Y-95678118D01*
X130230942Y-96136054D02*
X129799943Y-95705056D01*
X130365629Y-95031621D02*
X129611381Y-95408744D01*
X129611381Y-95408744D02*
X129988505Y-94654497D01*
X128911009Y-94708372D02*
X129368945Y-94627560D01*
X129234258Y-95031621D02*
X129799943Y-94465935D01*
X129799943Y-94465935D02*
X129584444Y-94250436D01*
X129584444Y-94250436D02*
X129503632Y-94223499D01*
X129503632Y-94223499D02*
X129449757Y-94223499D01*
X129449757Y-94223499D02*
X129368945Y-94250436D01*
X129368945Y-94250436D02*
X129288133Y-94331248D01*
X129288133Y-94331248D02*
X129261195Y-94412061D01*
X129261195Y-94412061D02*
X129261195Y-94465935D01*
X129261195Y-94465935D02*
X129288133Y-94546748D01*
X129288133Y-94546748D02*
X129503632Y-94762247D01*
X128964884Y-94169624D02*
X128776322Y-93981062D01*
X128399199Y-94196561D02*
X128668573Y-94465935D01*
X128668573Y-94465935D02*
X129234258Y-93900250D01*
X129234258Y-93900250D02*
X128964884Y-93630876D01*
X128264511Y-93469251D02*
X128453073Y-93657813D01*
X128156762Y-93954125D02*
X128722447Y-93388439D01*
X128722447Y-93388439D02*
X128453073Y-93119065D01*
X132189250Y-86965242D02*
X131435003Y-87342366D01*
X131435003Y-87342366D02*
X131812126Y-86588118D01*
X131111754Y-86965242D02*
X131004004Y-86911367D01*
X131004004Y-86911367D02*
X130869317Y-86776680D01*
X130869317Y-86776680D02*
X130842380Y-86695868D01*
X130842380Y-86695868D02*
X130842380Y-86641993D01*
X130842380Y-86641993D02*
X130869317Y-86561181D01*
X130869317Y-86561181D02*
X130923192Y-86507306D01*
X130923192Y-86507306D02*
X131004004Y-86480369D01*
X131004004Y-86480369D02*
X131057879Y-86480369D01*
X131057879Y-86480369D02*
X131138691Y-86507306D01*
X131138691Y-86507306D02*
X131273378Y-86588118D01*
X131273378Y-86588118D02*
X131354191Y-86615056D01*
X131354191Y-86615056D02*
X131408065Y-86615056D01*
X131408065Y-86615056D02*
X131488878Y-86588118D01*
X131488878Y-86588118D02*
X131542752Y-86534244D01*
X131542752Y-86534244D02*
X131569690Y-86453431D01*
X131569690Y-86453431D02*
X131569690Y-86399557D01*
X131569690Y-86399557D02*
X131542752Y-86318744D01*
X131542752Y-86318744D02*
X131408065Y-86184057D01*
X131408065Y-86184057D02*
X131300316Y-86130183D01*
X130680755Y-86049370D02*
X130411381Y-86318744D01*
X131165629Y-85941621D02*
X130680755Y-86049370D01*
X130680755Y-86049370D02*
X130788505Y-85564497D01*
X130088133Y-85941621D02*
X129980383Y-85887746D01*
X129980383Y-85887746D02*
X129845696Y-85753059D01*
X129845696Y-85753059D02*
X129818759Y-85672247D01*
X129818759Y-85672247D02*
X129818759Y-85618372D01*
X129818759Y-85618372D02*
X129845696Y-85537560D01*
X129845696Y-85537560D02*
X129899571Y-85483685D01*
X129899571Y-85483685D02*
X129980383Y-85456748D01*
X129980383Y-85456748D02*
X130034258Y-85456748D01*
X130034258Y-85456748D02*
X130115070Y-85483685D01*
X130115070Y-85483685D02*
X130249757Y-85564497D01*
X130249757Y-85564497D02*
X130330569Y-85591435D01*
X130330569Y-85591435D02*
X130384444Y-85591435D01*
X130384444Y-85591435D02*
X130465256Y-85564497D01*
X130465256Y-85564497D02*
X130519131Y-85510622D01*
X130519131Y-85510622D02*
X130546069Y-85429810D01*
X130546069Y-85429810D02*
X130546069Y-85375935D01*
X130546069Y-85375935D02*
X130519131Y-85295123D01*
X130519131Y-85295123D02*
X130384444Y-85160436D01*
X130384444Y-85160436D02*
X130276695Y-85106561D01*
X158266001Y-119715868D02*
X158346814Y-119742805D01*
X158346814Y-119742805D02*
X158427626Y-119823618D01*
X158427626Y-119823618D02*
X158481501Y-119931367D01*
X158481501Y-119931367D02*
X158481501Y-120039117D01*
X158481501Y-120039117D02*
X158454563Y-120119929D01*
X158454563Y-120119929D02*
X158373751Y-120254616D01*
X158373751Y-120254616D02*
X158292939Y-120335428D01*
X158292939Y-120335428D02*
X158158252Y-120416241D01*
X158158252Y-120416241D02*
X158077439Y-120443178D01*
X158077439Y-120443178D02*
X157969690Y-120443178D01*
X157969690Y-120443178D02*
X157861940Y-120389303D01*
X157861940Y-120389303D02*
X157808065Y-120335428D01*
X157808065Y-120335428D02*
X157754191Y-120227679D01*
X157754191Y-120227679D02*
X157754191Y-120173804D01*
X157754191Y-120173804D02*
X157942752Y-119985242D01*
X157942752Y-119985242D02*
X158050502Y-120092992D01*
X157457879Y-119985242D02*
X158023565Y-119419557D01*
X158023565Y-119419557D02*
X157808065Y-119204057D01*
X157808065Y-119204057D02*
X157727253Y-119177120D01*
X157727253Y-119177120D02*
X157673378Y-119177120D01*
X157673378Y-119177120D02*
X157592566Y-119204057D01*
X157592566Y-119204057D02*
X157511754Y-119284870D01*
X157511754Y-119284870D02*
X157484817Y-119365682D01*
X157484817Y-119365682D02*
X157484817Y-119419557D01*
X157484817Y-119419557D02*
X157511754Y-119500369D01*
X157511754Y-119500369D02*
X157727253Y-119715868D01*
X156595882Y-119123245D02*
X156919131Y-119446494D01*
X156757507Y-119284870D02*
X157323192Y-118719184D01*
X157323192Y-118719184D02*
X157296255Y-118853871D01*
X157296255Y-118853871D02*
X157296255Y-118961621D01*
X157296255Y-118961621D02*
X157323192Y-119042433D01*
X156057134Y-118584497D02*
X156380383Y-118907746D01*
X156218759Y-118746121D02*
X156784444Y-118180436D01*
X156784444Y-118180436D02*
X156757507Y-118315123D01*
X156757507Y-118315123D02*
X156757507Y-118422873D01*
X156757507Y-118422873D02*
X156784444Y-118503685D01*
X132023564Y-114393431D02*
X132104376Y-114420368D01*
X132104376Y-114420368D02*
X132185188Y-114501180D01*
X132185188Y-114501180D02*
X132239063Y-114608930D01*
X132239063Y-114608930D02*
X132239063Y-114716680D01*
X132239063Y-114716680D02*
X132212126Y-114797492D01*
X132212126Y-114797492D02*
X132131314Y-114932179D01*
X132131314Y-114932179D02*
X132050501Y-115012991D01*
X132050501Y-115012991D02*
X131915814Y-115093803D01*
X131915814Y-115093803D02*
X131835002Y-115120741D01*
X131835002Y-115120741D02*
X131727253Y-115120741D01*
X131727253Y-115120741D02*
X131619503Y-115066866D01*
X131619503Y-115066866D02*
X131565628Y-115012991D01*
X131565628Y-115012991D02*
X131511753Y-114905241D01*
X131511753Y-114905241D02*
X131511753Y-114851367D01*
X131511753Y-114851367D02*
X131700315Y-114662805D01*
X131700315Y-114662805D02*
X131808065Y-114770554D01*
X131215442Y-114662805D02*
X131781127Y-114097119D01*
X131781127Y-114097119D02*
X130892193Y-114339556D01*
X130892193Y-114339556D02*
X131457879Y-113773871D01*
X130622819Y-114070182D02*
X131188505Y-113504497D01*
X131188505Y-113504497D02*
X131053818Y-113369810D01*
X131053818Y-113369810D02*
X130946068Y-113315935D01*
X130946068Y-113315935D02*
X130838319Y-113315935D01*
X130838319Y-113315935D02*
X130757506Y-113342872D01*
X130757506Y-113342872D02*
X130622819Y-113423685D01*
X130622819Y-113423685D02*
X130542007Y-113504497D01*
X130542007Y-113504497D02*
X130461195Y-113639184D01*
X130461195Y-113639184D02*
X130434258Y-113719996D01*
X130434258Y-113719996D02*
X130434258Y-113827746D01*
X130434258Y-113827746D02*
X130488132Y-113935495D01*
X130488132Y-113935495D02*
X130622819Y-114070182D01*
X132023564Y-88993431D02*
X132104376Y-89020368D01*
X132104376Y-89020368D02*
X132185188Y-89101180D01*
X132185188Y-89101180D02*
X132239063Y-89208930D01*
X132239063Y-89208930D02*
X132239063Y-89316680D01*
X132239063Y-89316680D02*
X132212126Y-89397492D01*
X132212126Y-89397492D02*
X132131314Y-89532179D01*
X132131314Y-89532179D02*
X132050501Y-89612991D01*
X132050501Y-89612991D02*
X131915814Y-89693803D01*
X131915814Y-89693803D02*
X131835002Y-89720741D01*
X131835002Y-89720741D02*
X131727253Y-89720741D01*
X131727253Y-89720741D02*
X131619503Y-89666866D01*
X131619503Y-89666866D02*
X131565628Y-89612991D01*
X131565628Y-89612991D02*
X131511753Y-89505241D01*
X131511753Y-89505241D02*
X131511753Y-89451367D01*
X131511753Y-89451367D02*
X131700315Y-89262805D01*
X131700315Y-89262805D02*
X131808065Y-89370554D01*
X131215442Y-89262805D02*
X131781127Y-88697119D01*
X131781127Y-88697119D02*
X130892193Y-88939556D01*
X130892193Y-88939556D02*
X131457879Y-88373871D01*
X130622819Y-88670182D02*
X131188505Y-88104497D01*
X131188505Y-88104497D02*
X131053818Y-87969810D01*
X131053818Y-87969810D02*
X130946068Y-87915935D01*
X130946068Y-87915935D02*
X130838319Y-87915935D01*
X130838319Y-87915935D02*
X130757506Y-87942872D01*
X130757506Y-87942872D02*
X130622819Y-88023685D01*
X130622819Y-88023685D02*
X130542007Y-88104497D01*
X130542007Y-88104497D02*
X130461195Y-88239184D01*
X130461195Y-88239184D02*
X130434258Y-88319996D01*
X130434258Y-88319996D02*
X130434258Y-88427746D01*
X130434258Y-88427746D02*
X130488132Y-88535495D01*
X130488132Y-88535495D02*
X130622819Y-88670182D01*
X157596627Y-109286494D02*
X157677439Y-109313431D01*
X157677439Y-109313431D02*
X157758251Y-109394243D01*
X157758251Y-109394243D02*
X157812126Y-109501993D01*
X157812126Y-109501993D02*
X157812126Y-109609742D01*
X157812126Y-109609742D02*
X157785189Y-109690555D01*
X157785189Y-109690555D02*
X157704376Y-109825242D01*
X157704376Y-109825242D02*
X157623564Y-109906054D01*
X157623564Y-109906054D02*
X157488877Y-109986866D01*
X157488877Y-109986866D02*
X157408065Y-110013803D01*
X157408065Y-110013803D02*
X157300315Y-110013803D01*
X157300315Y-110013803D02*
X157192566Y-109959929D01*
X157192566Y-109959929D02*
X157138691Y-109906054D01*
X157138691Y-109906054D02*
X157084816Y-109798304D01*
X157084816Y-109798304D02*
X157084816Y-109744429D01*
X157084816Y-109744429D02*
X157273378Y-109555868D01*
X157273378Y-109555868D02*
X157381128Y-109663617D01*
X156788505Y-109555868D02*
X157354190Y-108990182D01*
X157354190Y-108990182D02*
X157138691Y-108774683D01*
X157138691Y-108774683D02*
X157057879Y-108747746D01*
X157057879Y-108747746D02*
X157004004Y-108747746D01*
X157004004Y-108747746D02*
X156923192Y-108774683D01*
X156923192Y-108774683D02*
X156842380Y-108855495D01*
X156842380Y-108855495D02*
X156815442Y-108936307D01*
X156815442Y-108936307D02*
X156815442Y-108990182D01*
X156815442Y-108990182D02*
X156842380Y-109070994D01*
X156842380Y-109070994D02*
X157057879Y-109286494D01*
X156465256Y-108586121D02*
X156546068Y-108613059D01*
X156546068Y-108613059D02*
X156599943Y-108613059D01*
X156599943Y-108613059D02*
X156680755Y-108586121D01*
X156680755Y-108586121D02*
X156707693Y-108559184D01*
X156707693Y-108559184D02*
X156734630Y-108478372D01*
X156734630Y-108478372D02*
X156734630Y-108424497D01*
X156734630Y-108424497D02*
X156707693Y-108343685D01*
X156707693Y-108343685D02*
X156599943Y-108235935D01*
X156599943Y-108235935D02*
X156519131Y-108208998D01*
X156519131Y-108208998D02*
X156465256Y-108208998D01*
X156465256Y-108208998D02*
X156384444Y-108235935D01*
X156384444Y-108235935D02*
X156357506Y-108262872D01*
X156357506Y-108262872D02*
X156330569Y-108343685D01*
X156330569Y-108343685D02*
X156330569Y-108397559D01*
X156330569Y-108397559D02*
X156357506Y-108478372D01*
X156357506Y-108478372D02*
X156465256Y-108586121D01*
X156465256Y-108586121D02*
X156492193Y-108666933D01*
X156492193Y-108666933D02*
X156492193Y-108720808D01*
X156492193Y-108720808D02*
X156465256Y-108801620D01*
X156465256Y-108801620D02*
X156357506Y-108909370D01*
X156357506Y-108909370D02*
X156276694Y-108936307D01*
X156276694Y-108936307D02*
X156222819Y-108936307D01*
X156222819Y-108936307D02*
X156142007Y-108909370D01*
X156142007Y-108909370D02*
X156034258Y-108801620D01*
X156034258Y-108801620D02*
X156007320Y-108720808D01*
X156007320Y-108720808D02*
X156007320Y-108666933D01*
X156007320Y-108666933D02*
X156034258Y-108586121D01*
X156034258Y-108586121D02*
X156142007Y-108478372D01*
X156142007Y-108478372D02*
X156222819Y-108451434D01*
X156222819Y-108451434D02*
X156276694Y-108451434D01*
X156276694Y-108451434D02*
X156357506Y-108478372D01*
X157596627Y-96586494D02*
X157677439Y-96613431D01*
X157677439Y-96613431D02*
X157758251Y-96694243D01*
X157758251Y-96694243D02*
X157812126Y-96801993D01*
X157812126Y-96801993D02*
X157812126Y-96909742D01*
X157812126Y-96909742D02*
X157785189Y-96990555D01*
X157785189Y-96990555D02*
X157704376Y-97125242D01*
X157704376Y-97125242D02*
X157623564Y-97206054D01*
X157623564Y-97206054D02*
X157488877Y-97286866D01*
X157488877Y-97286866D02*
X157408065Y-97313803D01*
X157408065Y-97313803D02*
X157300315Y-97313803D01*
X157300315Y-97313803D02*
X157192566Y-97259929D01*
X157192566Y-97259929D02*
X157138691Y-97206054D01*
X157138691Y-97206054D02*
X157084816Y-97098304D01*
X157084816Y-97098304D02*
X157084816Y-97044429D01*
X157084816Y-97044429D02*
X157273378Y-96855868D01*
X157273378Y-96855868D02*
X157381128Y-96963617D01*
X156788505Y-96855868D02*
X157354190Y-96290182D01*
X157354190Y-96290182D02*
X157138691Y-96074683D01*
X157138691Y-96074683D02*
X157057879Y-96047746D01*
X157057879Y-96047746D02*
X157004004Y-96047746D01*
X157004004Y-96047746D02*
X156923192Y-96074683D01*
X156923192Y-96074683D02*
X156842380Y-96155495D01*
X156842380Y-96155495D02*
X156815442Y-96236307D01*
X156815442Y-96236307D02*
X156815442Y-96290182D01*
X156815442Y-96290182D02*
X156842380Y-96370994D01*
X156842380Y-96370994D02*
X157057879Y-96586494D01*
X156357506Y-95670622D02*
X155980383Y-96047746D01*
X156707693Y-95589810D02*
X156438319Y-96128558D01*
X156438319Y-96128558D02*
X156088132Y-95778372D01*
X158120001Y-124795868D02*
X158200814Y-124822805D01*
X158200814Y-124822805D02*
X158281626Y-124903618D01*
X158281626Y-124903618D02*
X158335501Y-125011367D01*
X158335501Y-125011367D02*
X158335501Y-125119117D01*
X158335501Y-125119117D02*
X158308563Y-125199929D01*
X158308563Y-125199929D02*
X158227751Y-125334616D01*
X158227751Y-125334616D02*
X158146939Y-125415428D01*
X158146939Y-125415428D02*
X158012252Y-125496241D01*
X158012252Y-125496241D02*
X157931439Y-125523178D01*
X157931439Y-125523178D02*
X157823690Y-125523178D01*
X157823690Y-125523178D02*
X157715940Y-125469303D01*
X157715940Y-125469303D02*
X157662065Y-125415428D01*
X157662065Y-125415428D02*
X157608191Y-125307679D01*
X157608191Y-125307679D02*
X157608191Y-125253804D01*
X157608191Y-125253804D02*
X157796752Y-125065242D01*
X157796752Y-125065242D02*
X157904502Y-125172992D01*
X157311879Y-125065242D02*
X157877565Y-124499557D01*
X157877565Y-124499557D02*
X157662065Y-124284057D01*
X157662065Y-124284057D02*
X157581253Y-124257120D01*
X157581253Y-124257120D02*
X157527378Y-124257120D01*
X157527378Y-124257120D02*
X157446566Y-124284057D01*
X157446566Y-124284057D02*
X157365754Y-124364870D01*
X157365754Y-124364870D02*
X157338817Y-124445682D01*
X157338817Y-124445682D02*
X157338817Y-124499557D01*
X157338817Y-124499557D02*
X157365754Y-124580369D01*
X157365754Y-124580369D02*
X157581253Y-124795868D01*
X156449882Y-124203245D02*
X156773131Y-124526494D01*
X156611507Y-124364870D02*
X157177192Y-123799184D01*
X157177192Y-123799184D02*
X157150255Y-123933871D01*
X157150255Y-123933871D02*
X157150255Y-124041621D01*
X157150255Y-124041621D02*
X157177192Y-124122433D01*
X156827006Y-123448998D02*
X156476820Y-123098812D01*
X156476820Y-123098812D02*
X156449882Y-123502873D01*
X156449882Y-123502873D02*
X156369070Y-123422060D01*
X156369070Y-123422060D02*
X156288258Y-123395123D01*
X156288258Y-123395123D02*
X156234383Y-123395123D01*
X156234383Y-123395123D02*
X156153571Y-123422060D01*
X156153571Y-123422060D02*
X156018884Y-123556747D01*
X156018884Y-123556747D02*
X155991946Y-123637560D01*
X155991946Y-123637560D02*
X155991946Y-123691434D01*
X155991946Y-123691434D02*
X156018884Y-123772247D01*
X156018884Y-123772247D02*
X156180508Y-123933871D01*
X156180508Y-123933871D02*
X156261320Y-123960808D01*
X156261320Y-123960808D02*
X156315195Y-123960808D01*
X132012001Y-122255868D02*
X132092814Y-122282805D01*
X132092814Y-122282805D02*
X132173626Y-122363618D01*
X132173626Y-122363618D02*
X132227501Y-122471367D01*
X132227501Y-122471367D02*
X132227501Y-122579117D01*
X132227501Y-122579117D02*
X132200563Y-122659929D01*
X132200563Y-122659929D02*
X132119751Y-122794616D01*
X132119751Y-122794616D02*
X132038939Y-122875428D01*
X132038939Y-122875428D02*
X131904252Y-122956241D01*
X131904252Y-122956241D02*
X131823439Y-122983178D01*
X131823439Y-122983178D02*
X131715690Y-122983178D01*
X131715690Y-122983178D02*
X131607940Y-122929303D01*
X131607940Y-122929303D02*
X131554065Y-122875428D01*
X131554065Y-122875428D02*
X131500191Y-122767679D01*
X131500191Y-122767679D02*
X131500191Y-122713804D01*
X131500191Y-122713804D02*
X131688752Y-122525242D01*
X131688752Y-122525242D02*
X131796502Y-122632992D01*
X131203879Y-122525242D02*
X131769565Y-121959557D01*
X131769565Y-121959557D02*
X131554065Y-121744057D01*
X131554065Y-121744057D02*
X131473253Y-121717120D01*
X131473253Y-121717120D02*
X131419378Y-121717120D01*
X131419378Y-121717120D02*
X131338566Y-121744057D01*
X131338566Y-121744057D02*
X131257754Y-121824870D01*
X131257754Y-121824870D02*
X131230817Y-121905682D01*
X131230817Y-121905682D02*
X131230817Y-121959557D01*
X131230817Y-121959557D02*
X131257754Y-122040369D01*
X131257754Y-122040369D02*
X131473253Y-122255868D01*
X130341882Y-121663245D02*
X130665131Y-121986494D01*
X130503507Y-121824870D02*
X131069192Y-121259184D01*
X131069192Y-121259184D02*
X131042255Y-121393871D01*
X131042255Y-121393871D02*
X131042255Y-121501621D01*
X131042255Y-121501621D02*
X131069192Y-121582433D01*
X130072508Y-121393871D02*
X129964759Y-121286121D01*
X129964759Y-121286121D02*
X129937821Y-121205309D01*
X129937821Y-121205309D02*
X129937821Y-121151434D01*
X129937821Y-121151434D02*
X129964759Y-121016747D01*
X129964759Y-121016747D02*
X130045571Y-120882060D01*
X130045571Y-120882060D02*
X130261070Y-120666561D01*
X130261070Y-120666561D02*
X130341882Y-120639624D01*
X130341882Y-120639624D02*
X130395757Y-120639624D01*
X130395757Y-120639624D02*
X130476569Y-120666561D01*
X130476569Y-120666561D02*
X130584319Y-120774311D01*
X130584319Y-120774311D02*
X130611256Y-120855123D01*
X130611256Y-120855123D02*
X130611256Y-120908998D01*
X130611256Y-120908998D02*
X130584319Y-120989810D01*
X130584319Y-120989810D02*
X130449632Y-121124497D01*
X130449632Y-121124497D02*
X130368820Y-121151434D01*
X130368820Y-121151434D02*
X130314945Y-121151434D01*
X130314945Y-121151434D02*
X130234133Y-121124497D01*
X130234133Y-121124497D02*
X130126383Y-121016747D01*
X130126383Y-121016747D02*
X130099446Y-120935935D01*
X130099446Y-120935935D02*
X130099446Y-120882060D01*
X130099446Y-120882060D02*
X130126383Y-120801248D01*
X158166001Y-129875868D02*
X158246814Y-129902805D01*
X158246814Y-129902805D02*
X158327626Y-129983618D01*
X158327626Y-129983618D02*
X158381501Y-130091367D01*
X158381501Y-130091367D02*
X158381501Y-130199117D01*
X158381501Y-130199117D02*
X158354563Y-130279929D01*
X158354563Y-130279929D02*
X158273751Y-130414616D01*
X158273751Y-130414616D02*
X158192939Y-130495428D01*
X158192939Y-130495428D02*
X158058252Y-130576241D01*
X158058252Y-130576241D02*
X157977439Y-130603178D01*
X157977439Y-130603178D02*
X157869690Y-130603178D01*
X157869690Y-130603178D02*
X157761940Y-130549303D01*
X157761940Y-130549303D02*
X157708065Y-130495428D01*
X157708065Y-130495428D02*
X157654191Y-130387679D01*
X157654191Y-130387679D02*
X157654191Y-130333804D01*
X157654191Y-130333804D02*
X157842752Y-130145242D01*
X157842752Y-130145242D02*
X157950502Y-130252992D01*
X157357879Y-130145242D02*
X157923565Y-129579557D01*
X157923565Y-129579557D02*
X157708065Y-129364057D01*
X157708065Y-129364057D02*
X157627253Y-129337120D01*
X157627253Y-129337120D02*
X157573378Y-129337120D01*
X157573378Y-129337120D02*
X157492566Y-129364057D01*
X157492566Y-129364057D02*
X157411754Y-129444870D01*
X157411754Y-129444870D02*
X157384817Y-129525682D01*
X157384817Y-129525682D02*
X157384817Y-129579557D01*
X157384817Y-129579557D02*
X157411754Y-129660369D01*
X157411754Y-129660369D02*
X157627253Y-129875868D01*
X156495882Y-129283245D02*
X156819131Y-129606494D01*
X156657507Y-129444870D02*
X157223192Y-128879184D01*
X157223192Y-128879184D02*
X157196255Y-129013871D01*
X157196255Y-129013871D02*
X157196255Y-129121621D01*
X157196255Y-129121621D02*
X157223192Y-129202433D01*
X156388133Y-128421248D02*
X156011009Y-128798372D01*
X156738319Y-128340436D02*
X156468945Y-128879184D01*
X156468945Y-128879184D02*
X156118759Y-128528998D01*
X132012001Y-104485868D02*
X132092814Y-104512805D01*
X132092814Y-104512805D02*
X132173626Y-104593618D01*
X132173626Y-104593618D02*
X132227501Y-104701367D01*
X132227501Y-104701367D02*
X132227501Y-104809117D01*
X132227501Y-104809117D02*
X132200563Y-104889929D01*
X132200563Y-104889929D02*
X132119751Y-105024616D01*
X132119751Y-105024616D02*
X132038939Y-105105428D01*
X132038939Y-105105428D02*
X131904252Y-105186241D01*
X131904252Y-105186241D02*
X131823439Y-105213178D01*
X131823439Y-105213178D02*
X131715690Y-105213178D01*
X131715690Y-105213178D02*
X131607940Y-105159303D01*
X131607940Y-105159303D02*
X131554065Y-105105428D01*
X131554065Y-105105428D02*
X131500191Y-104997679D01*
X131500191Y-104997679D02*
X131500191Y-104943804D01*
X131500191Y-104943804D02*
X131688752Y-104755242D01*
X131688752Y-104755242D02*
X131796502Y-104862992D01*
X131203879Y-104755242D02*
X131769565Y-104189557D01*
X131769565Y-104189557D02*
X131554065Y-103974057D01*
X131554065Y-103974057D02*
X131473253Y-103947120D01*
X131473253Y-103947120D02*
X131419378Y-103947120D01*
X131419378Y-103947120D02*
X131338566Y-103974057D01*
X131338566Y-103974057D02*
X131257754Y-104054870D01*
X131257754Y-104054870D02*
X131230817Y-104135682D01*
X131230817Y-104135682D02*
X131230817Y-104189557D01*
X131230817Y-104189557D02*
X131257754Y-104270369D01*
X131257754Y-104270369D02*
X131473253Y-104485868D01*
X131176942Y-103704683D02*
X131176942Y-103650809D01*
X131176942Y-103650809D02*
X131150004Y-103569996D01*
X131150004Y-103569996D02*
X131015317Y-103435309D01*
X131015317Y-103435309D02*
X130934505Y-103408372D01*
X130934505Y-103408372D02*
X130880630Y-103408372D01*
X130880630Y-103408372D02*
X130799818Y-103435309D01*
X130799818Y-103435309D02*
X130745943Y-103489184D01*
X130745943Y-103489184D02*
X130692069Y-103596934D01*
X130692069Y-103596934D02*
X130692069Y-104243431D01*
X130692069Y-104243431D02*
X130341882Y-103893245D01*
X130719006Y-103138998D02*
X130341882Y-102761874D01*
X130341882Y-102761874D02*
X130018633Y-103569996D01*
X151619524Y-134419200D02*
X151505238Y-134457295D01*
X151505238Y-134457295D02*
X151314762Y-134457295D01*
X151314762Y-134457295D02*
X151238571Y-134419200D01*
X151238571Y-134419200D02*
X151200476Y-134381104D01*
X151200476Y-134381104D02*
X151162381Y-134304914D01*
X151162381Y-134304914D02*
X151162381Y-134228723D01*
X151162381Y-134228723D02*
X151200476Y-134152533D01*
X151200476Y-134152533D02*
X151238571Y-134114438D01*
X151238571Y-134114438D02*
X151314762Y-134076342D01*
X151314762Y-134076342D02*
X151467143Y-134038247D01*
X151467143Y-134038247D02*
X151543333Y-134000152D01*
X151543333Y-134000152D02*
X151581428Y-133962057D01*
X151581428Y-133962057D02*
X151619524Y-133885866D01*
X151619524Y-133885866D02*
X151619524Y-133809676D01*
X151619524Y-133809676D02*
X151581428Y-133733485D01*
X151581428Y-133733485D02*
X151543333Y-133695390D01*
X151543333Y-133695390D02*
X151467143Y-133657295D01*
X151467143Y-133657295D02*
X151276666Y-133657295D01*
X151276666Y-133657295D02*
X151162381Y-133695390D01*
X150895714Y-133657295D02*
X150705238Y-134457295D01*
X150705238Y-134457295D02*
X150552857Y-133885866D01*
X150552857Y-133885866D02*
X150400476Y-134457295D01*
X150400476Y-134457295D02*
X150210000Y-133657295D01*
X149448094Y-134381104D02*
X149486190Y-134419200D01*
X149486190Y-134419200D02*
X149600475Y-134457295D01*
X149600475Y-134457295D02*
X149676666Y-134457295D01*
X149676666Y-134457295D02*
X149790952Y-134419200D01*
X149790952Y-134419200D02*
X149867142Y-134343009D01*
X149867142Y-134343009D02*
X149905237Y-134266819D01*
X149905237Y-134266819D02*
X149943333Y-134114438D01*
X149943333Y-134114438D02*
X149943333Y-134000152D01*
X149943333Y-134000152D02*
X149905237Y-133847771D01*
X149905237Y-133847771D02*
X149867142Y-133771580D01*
X149867142Y-133771580D02*
X149790952Y-133695390D01*
X149790952Y-133695390D02*
X149676666Y-133657295D01*
X149676666Y-133657295D02*
X149600475Y-133657295D01*
X149600475Y-133657295D02*
X149486190Y-133695390D01*
X149486190Y-133695390D02*
X149448094Y-133733485D01*
X148724285Y-134457295D02*
X149105237Y-134457295D01*
X149105237Y-134457295D02*
X149105237Y-133657295D01*
X148457618Y-134457295D02*
X148457618Y-133657295D01*
X148000475Y-134457295D02*
X148343333Y-134000152D01*
X148000475Y-133657295D02*
X148457618Y-134114438D01*
X157623564Y-101693431D02*
X157704376Y-101720368D01*
X157704376Y-101720368D02*
X157785188Y-101801180D01*
X157785188Y-101801180D02*
X157839063Y-101908930D01*
X157839063Y-101908930D02*
X157839063Y-102016680D01*
X157839063Y-102016680D02*
X157812126Y-102097492D01*
X157812126Y-102097492D02*
X157731314Y-102232179D01*
X157731314Y-102232179D02*
X157650501Y-102312991D01*
X157650501Y-102312991D02*
X157515814Y-102393803D01*
X157515814Y-102393803D02*
X157435002Y-102420741D01*
X157435002Y-102420741D02*
X157327253Y-102420741D01*
X157327253Y-102420741D02*
X157219503Y-102366866D01*
X157219503Y-102366866D02*
X157165628Y-102312991D01*
X157165628Y-102312991D02*
X157111753Y-102205241D01*
X157111753Y-102205241D02*
X157111753Y-102151367D01*
X157111753Y-102151367D02*
X157300315Y-101962805D01*
X157300315Y-101962805D02*
X157408065Y-102070554D01*
X156815442Y-101962805D02*
X157381127Y-101397119D01*
X157381127Y-101397119D02*
X156492193Y-101639556D01*
X156492193Y-101639556D02*
X157057879Y-101073871D01*
X156222819Y-101370182D02*
X156788505Y-100804497D01*
X156788505Y-100804497D02*
X156653818Y-100669810D01*
X156653818Y-100669810D02*
X156546068Y-100615935D01*
X156546068Y-100615935D02*
X156438319Y-100615935D01*
X156438319Y-100615935D02*
X156357506Y-100642872D01*
X156357506Y-100642872D02*
X156222819Y-100723685D01*
X156222819Y-100723685D02*
X156142007Y-100804497D01*
X156142007Y-100804497D02*
X156061195Y-100939184D01*
X156061195Y-100939184D02*
X156034258Y-101019996D01*
X156034258Y-101019996D02*
X156034258Y-101127746D01*
X156034258Y-101127746D02*
X156088132Y-101235495D01*
X156088132Y-101235495D02*
X156222819Y-101370182D01*
X157596627Y-94046494D02*
X157677439Y-94073431D01*
X157677439Y-94073431D02*
X157758251Y-94154243D01*
X157758251Y-94154243D02*
X157812126Y-94261993D01*
X157812126Y-94261993D02*
X157812126Y-94369742D01*
X157812126Y-94369742D02*
X157785189Y-94450555D01*
X157785189Y-94450555D02*
X157704376Y-94585242D01*
X157704376Y-94585242D02*
X157623564Y-94666054D01*
X157623564Y-94666054D02*
X157488877Y-94746866D01*
X157488877Y-94746866D02*
X157408065Y-94773803D01*
X157408065Y-94773803D02*
X157300315Y-94773803D01*
X157300315Y-94773803D02*
X157192566Y-94719929D01*
X157192566Y-94719929D02*
X157138691Y-94666054D01*
X157138691Y-94666054D02*
X157084816Y-94558304D01*
X157084816Y-94558304D02*
X157084816Y-94504429D01*
X157084816Y-94504429D02*
X157273378Y-94315868D01*
X157273378Y-94315868D02*
X157381128Y-94423617D01*
X156788505Y-94315868D02*
X157354190Y-93750182D01*
X157354190Y-93750182D02*
X157138691Y-93534683D01*
X157138691Y-93534683D02*
X157057879Y-93507746D01*
X157057879Y-93507746D02*
X157004004Y-93507746D01*
X157004004Y-93507746D02*
X156923192Y-93534683D01*
X156923192Y-93534683D02*
X156842380Y-93615495D01*
X156842380Y-93615495D02*
X156815442Y-93696307D01*
X156815442Y-93696307D02*
X156815442Y-93750182D01*
X156815442Y-93750182D02*
X156842380Y-93830994D01*
X156842380Y-93830994D02*
X157057879Y-94046494D01*
X156842380Y-93238372D02*
X156492193Y-92888185D01*
X156492193Y-92888185D02*
X156465256Y-93292246D01*
X156465256Y-93292246D02*
X156384444Y-93211434D01*
X156384444Y-93211434D02*
X156303632Y-93184497D01*
X156303632Y-93184497D02*
X156249757Y-93184497D01*
X156249757Y-93184497D02*
X156168945Y-93211434D01*
X156168945Y-93211434D02*
X156034258Y-93346121D01*
X156034258Y-93346121D02*
X156007320Y-93426933D01*
X156007320Y-93426933D02*
X156007320Y-93480808D01*
X156007320Y-93480808D02*
X156034258Y-93561620D01*
X156034258Y-93561620D02*
X156195882Y-93723245D01*
X156195882Y-93723245D02*
X156276694Y-93750182D01*
X156276694Y-93750182D02*
X156330569Y-93750182D01*
X157596627Y-99126494D02*
X157677439Y-99153431D01*
X157677439Y-99153431D02*
X157758251Y-99234243D01*
X157758251Y-99234243D02*
X157812126Y-99341993D01*
X157812126Y-99341993D02*
X157812126Y-99449742D01*
X157812126Y-99449742D02*
X157785189Y-99530555D01*
X157785189Y-99530555D02*
X157704376Y-99665242D01*
X157704376Y-99665242D02*
X157623564Y-99746054D01*
X157623564Y-99746054D02*
X157488877Y-99826866D01*
X157488877Y-99826866D02*
X157408065Y-99853803D01*
X157408065Y-99853803D02*
X157300315Y-99853803D01*
X157300315Y-99853803D02*
X157192566Y-99799929D01*
X157192566Y-99799929D02*
X157138691Y-99746054D01*
X157138691Y-99746054D02*
X157084816Y-99638304D01*
X157084816Y-99638304D02*
X157084816Y-99584429D01*
X157084816Y-99584429D02*
X157273378Y-99395868D01*
X157273378Y-99395868D02*
X157381128Y-99503617D01*
X156788505Y-99395868D02*
X157354190Y-98830182D01*
X157354190Y-98830182D02*
X157138691Y-98614683D01*
X157138691Y-98614683D02*
X157057879Y-98587746D01*
X157057879Y-98587746D02*
X157004004Y-98587746D01*
X157004004Y-98587746D02*
X156923192Y-98614683D01*
X156923192Y-98614683D02*
X156842380Y-98695495D01*
X156842380Y-98695495D02*
X156815442Y-98776307D01*
X156815442Y-98776307D02*
X156815442Y-98830182D01*
X156815442Y-98830182D02*
X156842380Y-98910994D01*
X156842380Y-98910994D02*
X157057879Y-99126494D01*
X156519131Y-97995123D02*
X156788505Y-98264497D01*
X156788505Y-98264497D02*
X156546068Y-98560808D01*
X156546068Y-98560808D02*
X156546068Y-98506933D01*
X156546068Y-98506933D02*
X156519131Y-98426121D01*
X156519131Y-98426121D02*
X156384444Y-98291434D01*
X156384444Y-98291434D02*
X156303632Y-98264497D01*
X156303632Y-98264497D02*
X156249757Y-98264497D01*
X156249757Y-98264497D02*
X156168945Y-98291434D01*
X156168945Y-98291434D02*
X156034258Y-98426121D01*
X156034258Y-98426121D02*
X156007320Y-98506933D01*
X156007320Y-98506933D02*
X156007320Y-98560808D01*
X156007320Y-98560808D02*
X156034258Y-98641620D01*
X156034258Y-98641620D02*
X156168945Y-98776307D01*
X156168945Y-98776307D02*
X156249757Y-98803245D01*
X156249757Y-98803245D02*
X156303632Y-98803245D01*
X132012001Y-117185868D02*
X132092814Y-117212805D01*
X132092814Y-117212805D02*
X132173626Y-117293618D01*
X132173626Y-117293618D02*
X132227501Y-117401367D01*
X132227501Y-117401367D02*
X132227501Y-117509117D01*
X132227501Y-117509117D02*
X132200563Y-117589929D01*
X132200563Y-117589929D02*
X132119751Y-117724616D01*
X132119751Y-117724616D02*
X132038939Y-117805428D01*
X132038939Y-117805428D02*
X131904252Y-117886241D01*
X131904252Y-117886241D02*
X131823439Y-117913178D01*
X131823439Y-117913178D02*
X131715690Y-117913178D01*
X131715690Y-117913178D02*
X131607940Y-117859303D01*
X131607940Y-117859303D02*
X131554065Y-117805428D01*
X131554065Y-117805428D02*
X131500191Y-117697679D01*
X131500191Y-117697679D02*
X131500191Y-117643804D01*
X131500191Y-117643804D02*
X131688752Y-117455242D01*
X131688752Y-117455242D02*
X131796502Y-117562992D01*
X131203879Y-117455242D02*
X131769565Y-116889557D01*
X131769565Y-116889557D02*
X131554065Y-116674057D01*
X131554065Y-116674057D02*
X131473253Y-116647120D01*
X131473253Y-116647120D02*
X131419378Y-116647120D01*
X131419378Y-116647120D02*
X131338566Y-116674057D01*
X131338566Y-116674057D02*
X131257754Y-116754870D01*
X131257754Y-116754870D02*
X131230817Y-116835682D01*
X131230817Y-116835682D02*
X131230817Y-116889557D01*
X131230817Y-116889557D02*
X131257754Y-116970369D01*
X131257754Y-116970369D02*
X131473253Y-117185868D01*
X131176942Y-116404683D02*
X131176942Y-116350809D01*
X131176942Y-116350809D02*
X131150004Y-116269996D01*
X131150004Y-116269996D02*
X131015317Y-116135309D01*
X131015317Y-116135309D02*
X130934505Y-116108372D01*
X130934505Y-116108372D02*
X130880630Y-116108372D01*
X130880630Y-116108372D02*
X130799818Y-116135309D01*
X130799818Y-116135309D02*
X130745943Y-116189184D01*
X130745943Y-116189184D02*
X130692069Y-116296934D01*
X130692069Y-116296934D02*
X130692069Y-116943431D01*
X130692069Y-116943431D02*
X130341882Y-116593245D01*
X129803134Y-116054497D02*
X130126383Y-116377746D01*
X129964759Y-116216121D02*
X130530444Y-115650436D01*
X130530444Y-115650436D02*
X130503507Y-115785123D01*
X130503507Y-115785123D02*
X130503507Y-115892873D01*
X130503507Y-115892873D02*
X130530444Y-115973685D01*
X140205238Y-134419200D02*
X140090952Y-134457295D01*
X140090952Y-134457295D02*
X139900476Y-134457295D01*
X139900476Y-134457295D02*
X139824285Y-134419200D01*
X139824285Y-134419200D02*
X139786190Y-134381104D01*
X139786190Y-134381104D02*
X139748095Y-134304914D01*
X139748095Y-134304914D02*
X139748095Y-134228723D01*
X139748095Y-134228723D02*
X139786190Y-134152533D01*
X139786190Y-134152533D02*
X139824285Y-134114438D01*
X139824285Y-134114438D02*
X139900476Y-134076342D01*
X139900476Y-134076342D02*
X140052857Y-134038247D01*
X140052857Y-134038247D02*
X140129047Y-134000152D01*
X140129047Y-134000152D02*
X140167142Y-133962057D01*
X140167142Y-133962057D02*
X140205238Y-133885866D01*
X140205238Y-133885866D02*
X140205238Y-133809676D01*
X140205238Y-133809676D02*
X140167142Y-133733485D01*
X140167142Y-133733485D02*
X140129047Y-133695390D01*
X140129047Y-133695390D02*
X140052857Y-133657295D01*
X140052857Y-133657295D02*
X139862380Y-133657295D01*
X139862380Y-133657295D02*
X139748095Y-133695390D01*
X139481428Y-133657295D02*
X139290952Y-134457295D01*
X139290952Y-134457295D02*
X139138571Y-133885866D01*
X139138571Y-133885866D02*
X138986190Y-134457295D01*
X138986190Y-134457295D02*
X138795714Y-133657295D01*
X138490951Y-134457295D02*
X138490951Y-133657295D01*
X138490951Y-133657295D02*
X138300475Y-133657295D01*
X138300475Y-133657295D02*
X138186189Y-133695390D01*
X138186189Y-133695390D02*
X138109999Y-133771580D01*
X138109999Y-133771580D02*
X138071904Y-133847771D01*
X138071904Y-133847771D02*
X138033808Y-134000152D01*
X138033808Y-134000152D02*
X138033808Y-134114438D01*
X138033808Y-134114438D02*
X138071904Y-134266819D01*
X138071904Y-134266819D02*
X138109999Y-134343009D01*
X138109999Y-134343009D02*
X138186189Y-134419200D01*
X138186189Y-134419200D02*
X138300475Y-134457295D01*
X138300475Y-134457295D02*
X138490951Y-134457295D01*
X137690951Y-134457295D02*
X137690951Y-133657295D01*
X137157618Y-133657295D02*
X137005237Y-133657295D01*
X137005237Y-133657295D02*
X136929047Y-133695390D01*
X136929047Y-133695390D02*
X136852856Y-133771580D01*
X136852856Y-133771580D02*
X136814761Y-133923961D01*
X136814761Y-133923961D02*
X136814761Y-134190628D01*
X136814761Y-134190628D02*
X136852856Y-134343009D01*
X136852856Y-134343009D02*
X136929047Y-134419200D01*
X136929047Y-134419200D02*
X137005237Y-134457295D01*
X137005237Y-134457295D02*
X137157618Y-134457295D01*
X137157618Y-134457295D02*
X137233809Y-134419200D01*
X137233809Y-134419200D02*
X137309999Y-134343009D01*
X137309999Y-134343009D02*
X137348095Y-134190628D01*
X137348095Y-134190628D02*
X137348095Y-133923961D01*
X137348095Y-133923961D02*
X137309999Y-133771580D01*
X137309999Y-133771580D02*
X137233809Y-133695390D01*
X137233809Y-133695390D02*
X137157618Y-133657295D01*
X157596627Y-104206494D02*
X157677439Y-104233431D01*
X157677439Y-104233431D02*
X157758251Y-104314243D01*
X157758251Y-104314243D02*
X157812126Y-104421993D01*
X157812126Y-104421993D02*
X157812126Y-104529742D01*
X157812126Y-104529742D02*
X157785189Y-104610555D01*
X157785189Y-104610555D02*
X157704376Y-104745242D01*
X157704376Y-104745242D02*
X157623564Y-104826054D01*
X157623564Y-104826054D02*
X157488877Y-104906866D01*
X157488877Y-104906866D02*
X157408065Y-104933803D01*
X157408065Y-104933803D02*
X157300315Y-104933803D01*
X157300315Y-104933803D02*
X157192566Y-104879929D01*
X157192566Y-104879929D02*
X157138691Y-104826054D01*
X157138691Y-104826054D02*
X157084816Y-104718304D01*
X157084816Y-104718304D02*
X157084816Y-104664429D01*
X157084816Y-104664429D02*
X157273378Y-104475868D01*
X157273378Y-104475868D02*
X157381128Y-104583617D01*
X156788505Y-104475868D02*
X157354190Y-103910182D01*
X157354190Y-103910182D02*
X157138691Y-103694683D01*
X157138691Y-103694683D02*
X157057879Y-103667746D01*
X157057879Y-103667746D02*
X157004004Y-103667746D01*
X157004004Y-103667746D02*
X156923192Y-103694683D01*
X156923192Y-103694683D02*
X156842380Y-103775495D01*
X156842380Y-103775495D02*
X156815442Y-103856307D01*
X156815442Y-103856307D02*
X156815442Y-103910182D01*
X156815442Y-103910182D02*
X156842380Y-103990994D01*
X156842380Y-103990994D02*
X157057879Y-104206494D01*
X156546068Y-103102060D02*
X156653818Y-103209810D01*
X156653818Y-103209810D02*
X156680755Y-103290622D01*
X156680755Y-103290622D02*
X156680755Y-103344497D01*
X156680755Y-103344497D02*
X156653818Y-103479184D01*
X156653818Y-103479184D02*
X156573006Y-103613871D01*
X156573006Y-103613871D02*
X156357506Y-103829370D01*
X156357506Y-103829370D02*
X156276694Y-103856307D01*
X156276694Y-103856307D02*
X156222819Y-103856307D01*
X156222819Y-103856307D02*
X156142007Y-103829370D01*
X156142007Y-103829370D02*
X156034258Y-103721620D01*
X156034258Y-103721620D02*
X156007320Y-103640808D01*
X156007320Y-103640808D02*
X156007320Y-103586933D01*
X156007320Y-103586933D02*
X156034258Y-103506121D01*
X156034258Y-103506121D02*
X156168945Y-103371434D01*
X156168945Y-103371434D02*
X156249757Y-103344497D01*
X156249757Y-103344497D02*
X156303632Y-103344497D01*
X156303632Y-103344497D02*
X156384444Y-103371434D01*
X156384444Y-103371434D02*
X156492193Y-103479184D01*
X156492193Y-103479184D02*
X156519131Y-103559996D01*
X156519131Y-103559996D02*
X156519131Y-103613871D01*
X156519131Y-103613871D02*
X156492193Y-103694683D01*
X157596627Y-83886494D02*
X157677439Y-83913431D01*
X157677439Y-83913431D02*
X157758251Y-83994243D01*
X157758251Y-83994243D02*
X157812126Y-84101993D01*
X157812126Y-84101993D02*
X157812126Y-84209742D01*
X157812126Y-84209742D02*
X157785189Y-84290555D01*
X157785189Y-84290555D02*
X157704376Y-84425242D01*
X157704376Y-84425242D02*
X157623564Y-84506054D01*
X157623564Y-84506054D02*
X157488877Y-84586866D01*
X157488877Y-84586866D02*
X157408065Y-84613803D01*
X157408065Y-84613803D02*
X157300315Y-84613803D01*
X157300315Y-84613803D02*
X157192566Y-84559929D01*
X157192566Y-84559929D02*
X157138691Y-84506054D01*
X157138691Y-84506054D02*
X157084816Y-84398304D01*
X157084816Y-84398304D02*
X157084816Y-84344429D01*
X157084816Y-84344429D02*
X157273378Y-84155868D01*
X157273378Y-84155868D02*
X157381128Y-84263617D01*
X156788505Y-84155868D02*
X157354190Y-83590182D01*
X157354190Y-83590182D02*
X157138691Y-83374683D01*
X157138691Y-83374683D02*
X157057879Y-83347746D01*
X157057879Y-83347746D02*
X157004004Y-83347746D01*
X157004004Y-83347746D02*
X156923192Y-83374683D01*
X156923192Y-83374683D02*
X156842380Y-83455495D01*
X156842380Y-83455495D02*
X156815442Y-83536307D01*
X156815442Y-83536307D02*
X156815442Y-83590182D01*
X156815442Y-83590182D02*
X156842380Y-83670994D01*
X156842380Y-83670994D02*
X157057879Y-83886494D01*
X156680755Y-82916747D02*
X156626880Y-82862872D01*
X156626880Y-82862872D02*
X156546068Y-82835935D01*
X156546068Y-82835935D02*
X156492193Y-82835935D01*
X156492193Y-82835935D02*
X156411381Y-82862872D01*
X156411381Y-82862872D02*
X156276694Y-82943685D01*
X156276694Y-82943685D02*
X156142007Y-83078372D01*
X156142007Y-83078372D02*
X156061195Y-83213059D01*
X156061195Y-83213059D02*
X156034258Y-83293871D01*
X156034258Y-83293871D02*
X156034258Y-83347746D01*
X156034258Y-83347746D02*
X156061195Y-83428558D01*
X156061195Y-83428558D02*
X156115070Y-83482433D01*
X156115070Y-83482433D02*
X156195882Y-83509370D01*
X156195882Y-83509370D02*
X156249757Y-83509370D01*
X156249757Y-83509370D02*
X156330569Y-83482433D01*
X156330569Y-83482433D02*
X156465256Y-83401620D01*
X156465256Y-83401620D02*
X156599943Y-83266933D01*
X156599943Y-83266933D02*
X156680755Y-83132246D01*
X156680755Y-83132246D02*
X156707693Y-83051434D01*
X156707693Y-83051434D02*
X156707693Y-82997559D01*
X156707693Y-82997559D02*
X156680755Y-82916747D01*
X137349819Y-16383333D02*
X136873628Y-16050000D01*
X137349819Y-15811905D02*
X136349819Y-15811905D01*
X136349819Y-15811905D02*
X136349819Y-16192857D01*
X136349819Y-16192857D02*
X136397438Y-16288095D01*
X136397438Y-16288095D02*
X136445057Y-16335714D01*
X136445057Y-16335714D02*
X136540295Y-16383333D01*
X136540295Y-16383333D02*
X136683152Y-16383333D01*
X136683152Y-16383333D02*
X136778390Y-16335714D01*
X136778390Y-16335714D02*
X136826009Y-16288095D01*
X136826009Y-16288095D02*
X136873628Y-16192857D01*
X136873628Y-16192857D02*
X136873628Y-15811905D01*
X137349819Y-17335714D02*
X137349819Y-16764286D01*
X137349819Y-17050000D02*
X136349819Y-17050000D01*
X136349819Y-17050000D02*
X136492676Y-16954762D01*
X136492676Y-16954762D02*
X136587914Y-16859524D01*
X136587914Y-16859524D02*
X136635533Y-16764286D01*
X148436094Y-21759819D02*
X148436094Y-20759819D01*
X148436094Y-20759819D02*
X148197999Y-20759819D01*
X148197999Y-20759819D02*
X148055142Y-20807438D01*
X148055142Y-20807438D02*
X147959904Y-20902676D01*
X147959904Y-20902676D02*
X147912285Y-20997914D01*
X147912285Y-20997914D02*
X147864666Y-21188390D01*
X147864666Y-21188390D02*
X147864666Y-21331247D01*
X147864666Y-21331247D02*
X147912285Y-21521723D01*
X147912285Y-21521723D02*
X147959904Y-21616961D01*
X147959904Y-21616961D02*
X148055142Y-21712200D01*
X148055142Y-21712200D02*
X148197999Y-21759819D01*
X148197999Y-21759819D02*
X148436094Y-21759819D01*
X146912285Y-21759819D02*
X147483713Y-21759819D01*
X147197999Y-21759819D02*
X147197999Y-20759819D01*
X147197999Y-20759819D02*
X147293237Y-20902676D01*
X147293237Y-20902676D02*
X147388475Y-20997914D01*
X147388475Y-20997914D02*
X147483713Y-21045533D01*
X144958333Y-17954819D02*
X144958333Y-18669104D01*
X144958333Y-18669104D02*
X145005952Y-18811961D01*
X145005952Y-18811961D02*
X145101190Y-18907200D01*
X145101190Y-18907200D02*
X145244047Y-18954819D01*
X145244047Y-18954819D02*
X145339285Y-18954819D01*
X143958333Y-18954819D02*
X144529761Y-18954819D01*
X144244047Y-18954819D02*
X144244047Y-17954819D01*
X144244047Y-17954819D02*
X144339285Y-18097676D01*
X144339285Y-18097676D02*
X144434523Y-18192914D01*
X144434523Y-18192914D02*
X144529761Y-18240533D01*
X140491666Y-17874819D02*
X140824999Y-17398628D01*
X141063094Y-17874819D02*
X141063094Y-16874819D01*
X141063094Y-16874819D02*
X140682142Y-16874819D01*
X140682142Y-16874819D02*
X140586904Y-16922438D01*
X140586904Y-16922438D02*
X140539285Y-16970057D01*
X140539285Y-16970057D02*
X140491666Y-17065295D01*
X140491666Y-17065295D02*
X140491666Y-17208152D01*
X140491666Y-17208152D02*
X140539285Y-17303390D01*
X140539285Y-17303390D02*
X140586904Y-17351009D01*
X140586904Y-17351009D02*
X140682142Y-17398628D01*
X140682142Y-17398628D02*
X141063094Y-17398628D01*
X140110713Y-16970057D02*
X140063094Y-16922438D01*
X140063094Y-16922438D02*
X139967856Y-16874819D01*
X139967856Y-16874819D02*
X139729761Y-16874819D01*
X139729761Y-16874819D02*
X139634523Y-16922438D01*
X139634523Y-16922438D02*
X139586904Y-16970057D01*
X139586904Y-16970057D02*
X139539285Y-17065295D01*
X139539285Y-17065295D02*
X139539285Y-17160533D01*
X139539285Y-17160533D02*
X139586904Y-17303390D01*
X139586904Y-17303390D02*
X140158332Y-17874819D01*
X140158332Y-17874819D02*
X139539285Y-17874819D01*
%TO.C,S23*%
X105706877Y-130376308D02*
X105627663Y-130748982D01*
X106000337Y-130828196D02*
X105627663Y-130748982D01*
X106419806Y-127022240D02*
X106340592Y-127394914D01*
X109428586Y-131556893D02*
X107739483Y-131197863D01*
X109432397Y-125065840D02*
X118128129Y-126914175D01*
X117203962Y-131262041D02*
X112234972Y-130205850D01*
X117415200Y-130268244D02*
X117203962Y-131262041D01*
X118128129Y-126914175D02*
X118048915Y-127286850D01*
X119718215Y-128668100D02*
X119842962Y-128081212D01*
X106419806Y-127022240D02*
G75*
G02*
X109432397Y-125065840I2484495J-528095D01*
G01*
X109424644Y-131575439D02*
G75*
G02*
X112234972Y-130205850I2282232J-1114906D01*
G01*
%TO.C,S14*%
X189479171Y-54551818D02*
X189558386Y-54924492D01*
X190192100Y-57905886D02*
X190271315Y-58278561D01*
X190643989Y-58199346D02*
X190271315Y-58278561D01*
X191435570Y-51539228D02*
X200131303Y-49690893D01*
X194072238Y-57470649D02*
X192383135Y-57829679D01*
X200131303Y-49690893D02*
X200210517Y-50063567D01*
X200844232Y-53044961D02*
X201055470Y-54038759D01*
X201055470Y-54038759D02*
X196086480Y-55094950D01*
X202297304Y-50646437D02*
X202172557Y-50059548D01*
X189479171Y-54551818D02*
G75*
G02*
X191435570Y-51539227I2484492J528098D01*
G01*
X194076180Y-57489195D02*
G75*
G02*
X196086480Y-55094950I2538396J-90250D01*
G01*
%TO.C,S10*%
X170386871Y-129662718D02*
X170466086Y-130035392D01*
X171099800Y-133016786D02*
X171179015Y-133389461D01*
X171551689Y-133310246D02*
X171179015Y-133389461D01*
X172343270Y-126650128D02*
X181039003Y-124801793D01*
X174979938Y-132581549D02*
X173290835Y-132940579D01*
X181039003Y-124801793D02*
X181118217Y-125174467D01*
X181751932Y-128155861D02*
X181963170Y-129149659D01*
X181963170Y-129149659D02*
X176994180Y-130205850D01*
X183205004Y-125757337D02*
X183080257Y-125170448D01*
X170386871Y-129662718D02*
G75*
G02*
X172343270Y-126650127I2484492J528098D01*
G01*
X174983880Y-132600095D02*
G75*
G02*
X176994180Y-130205850I2538396J-90250D01*
G01*
%TO.C,S19*%
X242592141Y-35083608D02*
X242671356Y-35456282D01*
X243305070Y-38437676D02*
X243384285Y-38810351D01*
X243756959Y-38731136D02*
X243384285Y-38810351D01*
X244548540Y-32071018D02*
X253244273Y-30222683D01*
X247185208Y-38002439D02*
X245496105Y-38361469D01*
X253244273Y-30222683D02*
X253323487Y-30595357D01*
X253957202Y-33576751D02*
X254168440Y-34570549D01*
X254168440Y-34570549D02*
X249199450Y-35626740D01*
X255410274Y-31178227D02*
X255285527Y-30591338D01*
X242592141Y-35083608D02*
G75*
G02*
X244548540Y-32071017I2484492J528098D01*
G01*
X247189150Y-38020985D02*
G75*
G02*
X249199450Y-35626740I2538396J-90250D01*
G01*
%TO.C,S4*%
X66295477Y-16186908D02*
X66216263Y-16559582D01*
X66588937Y-16638796D02*
X66216263Y-16559582D01*
X67008406Y-12832840D02*
X66929192Y-13205514D01*
X70017186Y-17367493D02*
X68328083Y-17008463D01*
X70020997Y-10876440D02*
X78716729Y-12724775D01*
X77792562Y-17072641D02*
X72823572Y-16016450D01*
X78003800Y-16078844D02*
X77792562Y-17072641D01*
X78716729Y-12724775D02*
X78637515Y-13097450D01*
X80306815Y-14478700D02*
X80431562Y-13891812D01*
X67008406Y-12832840D02*
G75*
G02*
X70020997Y-10876440I2484495J-528095D01*
G01*
X70013244Y-17386039D02*
G75*
G02*
X72823572Y-16016450I2282232J-1114906D01*
G01*
%TO.C,S13*%
X184905111Y-33032598D02*
X184984326Y-33405272D01*
X185618040Y-36386666D02*
X185697255Y-36759341D01*
X186069929Y-36680126D02*
X185697255Y-36759341D01*
X186861510Y-30020008D02*
X195557243Y-28171673D01*
X189498178Y-35951429D02*
X187809075Y-36310459D01*
X195557243Y-28171673D02*
X195636457Y-28544347D01*
X196270172Y-31525741D02*
X196481410Y-32519539D01*
X196481410Y-32519539D02*
X191512420Y-33575730D01*
X197723244Y-29127217D02*
X197598497Y-28540328D01*
X184905111Y-33032598D02*
G75*
G02*
X186861510Y-30020007I2484492J528098D01*
G01*
X189502120Y-35969975D02*
G75*
G02*
X191512420Y-33575730I2538396J-90250D01*
G01*
%TO.C,S15*%
X204571501Y-98882708D02*
X204650716Y-99255382D01*
X205284430Y-102236776D02*
X205363645Y-102609451D01*
X205736319Y-102530236D02*
X205363645Y-102609451D01*
X206527900Y-95870118D02*
X215223633Y-94021783D01*
X209164568Y-101801539D02*
X207475465Y-102160569D01*
X215223633Y-94021783D02*
X215302847Y-94394457D01*
X215936562Y-97375851D02*
X216147800Y-98369649D01*
X216147800Y-98369649D02*
X211178810Y-99425840D01*
X217389634Y-94977327D02*
X217264887Y-94390438D01*
X204571501Y-98882708D02*
G75*
G02*
X206527900Y-95870117I2484492J528098D01*
G01*
X209168510Y-101820085D02*
G75*
G02*
X211178810Y-99425840I2538396J-90250D01*
G01*
%TO.C,S2*%
X33501577Y-35797208D02*
X33422363Y-36169882D01*
X33795037Y-36249096D02*
X33422363Y-36169882D01*
X34214506Y-32443140D02*
X34135292Y-32815814D01*
X37223286Y-36977793D02*
X35534183Y-36618763D01*
X37227097Y-30486740D02*
X45922829Y-32335075D01*
X44998662Y-36682941D02*
X40029672Y-35626750D01*
X45209900Y-35689144D02*
X44998662Y-36682941D01*
X45922829Y-32335075D02*
X45843615Y-32707750D01*
X47512915Y-34089000D02*
X47637662Y-33502112D01*
X34214506Y-32443140D02*
G75*
G02*
X37227097Y-30486740I2484495J-528095D01*
G01*
X37219344Y-36996339D02*
G75*
G02*
X40029672Y-35626750I2282232J-1114906D01*
G01*
%TO.C,S3*%
X61721377Y-37706108D02*
X61642163Y-38078782D01*
X62014837Y-38157996D02*
X61642163Y-38078782D01*
X62434306Y-34352040D02*
X62355092Y-34724714D01*
X65443086Y-38886693D02*
X63753983Y-38527663D01*
X65446897Y-32395640D02*
X74142629Y-34243975D01*
X73218462Y-38591841D02*
X68249472Y-37535650D01*
X73429700Y-37598044D02*
X73218462Y-38591841D01*
X74142629Y-34243975D02*
X74063415Y-34616650D01*
X75732715Y-35997900D02*
X75857462Y-35411012D01*
X62434306Y-34352040D02*
G75*
G02*
X65446897Y-32395640I2484495J-528095D01*
G01*
X65439144Y-38905239D02*
G75*
G02*
X68249472Y-37535650I2282232J-1114906D01*
G01*
%TO.C,S20*%
X268732801Y-23393198D02*
X268812016Y-23765872D01*
X269445730Y-26747266D02*
X269524945Y-27119941D01*
X269897619Y-27040726D02*
X269524945Y-27119941D01*
X270689200Y-20380608D02*
X279384933Y-18532273D01*
X273325868Y-26312029D02*
X271636765Y-26671059D01*
X279384933Y-18532273D02*
X279464147Y-18904947D01*
X280097862Y-21886341D02*
X280309100Y-22880139D01*
X280309100Y-22880139D02*
X275340110Y-23936330D01*
X281550934Y-19487817D02*
X281426187Y-18900928D01*
X268732801Y-23393198D02*
G75*
G02*
X270689200Y-20380607I2484492J528098D01*
G01*
X273329810Y-26330575D02*
G75*
G02*
X275340110Y-23936330I2538396J-90250D01*
G01*
%TO.C,S16*%
X209798301Y-15473298D02*
X209877516Y-15845972D01*
X210511230Y-18827366D02*
X210590445Y-19200041D01*
X210963119Y-19120826D02*
X210590445Y-19200041D01*
X211754700Y-12460708D02*
X220450433Y-10612373D01*
X214391368Y-18392129D02*
X212702265Y-18751159D01*
X220450433Y-10612373D02*
X220529647Y-10985047D01*
X221163362Y-13966441D02*
X221374600Y-14960239D01*
X221374600Y-14960239D02*
X216405610Y-16016430D01*
X222616434Y-11567917D02*
X222491687Y-10981028D01*
X209798301Y-15473298D02*
G75*
G02*
X211754700Y-12460707I2484492J528098D01*
G01*
X214395310Y-18410675D02*
G75*
G02*
X216405610Y-16016430I2538396J-90250D01*
G01*
%TO.C,S7*%
X138264576Y-56245345D02*
X138264576Y-56626345D01*
X138264576Y-59674345D02*
X138264576Y-60055345D01*
X138645576Y-60055345D02*
X138264576Y-60055345D01*
X140804576Y-53705345D02*
X149694576Y-53705345D01*
X142150414Y-60055345D02*
X140423576Y-60055345D01*
X149694576Y-53705345D02*
X149694576Y-54086345D01*
X149694576Y-57134345D02*
X149694576Y-58150345D01*
X149694576Y-58150345D02*
X144614576Y-58150345D01*
X151614576Y-55090345D02*
X151614576Y-54490345D01*
X138264576Y-56245345D02*
G75*
G02*
X140804576Y-53705345I2540000J0D01*
G01*
X142150414Y-60074305D02*
G75*
G02*
X144614576Y-58150345I2464162J-616040D01*
G01*
%TO.C,S17*%
X214372361Y-36992548D02*
X214451576Y-37365222D01*
X215085290Y-40346616D02*
X215164505Y-40719291D01*
X215537179Y-40640076D02*
X215164505Y-40719291D01*
X216328760Y-33979958D02*
X225024493Y-32131623D01*
X218965428Y-39911379D02*
X217276325Y-40270409D01*
X225024493Y-32131623D02*
X225103707Y-32504297D01*
X225737422Y-35485691D02*
X225948660Y-36479489D01*
X225948660Y-36479489D02*
X220979670Y-37535680D01*
X227190494Y-33087167D02*
X227065747Y-32500278D01*
X214372361Y-36992548D02*
G75*
G02*
X216328760Y-33979957I2484492J528098D01*
G01*
X218969370Y-39929925D02*
G75*
G02*
X220979670Y-37535680I2538396J-90250D01*
G01*
%TO.C,S5*%
X86614577Y-55265408D02*
X86535363Y-55638082D01*
X86908037Y-55717296D02*
X86535363Y-55638082D01*
X87327506Y-51911340D02*
X87248292Y-52284014D01*
X90336286Y-56445993D02*
X88647183Y-56086963D01*
X90340097Y-49954940D02*
X99035829Y-51803275D01*
X98111662Y-56151141D02*
X93142672Y-55094950D01*
X98322900Y-55157344D02*
X98111662Y-56151141D01*
X99035829Y-51803275D02*
X98956615Y-52175950D01*
X100625915Y-53557200D02*
X100750662Y-52970312D01*
X87327506Y-51911340D02*
G75*
G02*
X90340097Y-49954940I2484495J-528095D01*
G01*
X90332344Y-56464539D02*
G75*
G02*
X93142672Y-55094950I2282232J-1114906D01*
G01*
%TO.C,S1*%
X2786877Y-45626008D02*
X2707663Y-45998682D01*
X3080337Y-46077896D02*
X2707663Y-45998682D01*
X3499806Y-42271940D02*
X3420592Y-42644614D01*
X6508586Y-46806593D02*
X4819483Y-46447563D01*
X6512397Y-40315540D02*
X15208129Y-42163875D01*
X14283962Y-46511741D02*
X9314972Y-45455550D01*
X14495200Y-45517944D02*
X14283962Y-46511741D01*
X15208129Y-42163875D02*
X15128915Y-42536550D01*
X16798215Y-43917800D02*
X16922962Y-43330912D01*
X3499806Y-42271940D02*
G75*
G02*
X6512397Y-40315540I2484495J-528095D01*
G01*
X6504644Y-46825139D02*
G75*
G02*
X9314972Y-45455550I2282232J-1114906D01*
G01*
%TO.C,S18*%
X238018081Y-13564368D02*
X238097296Y-13937042D01*
X238731010Y-16918436D02*
X238810225Y-17291111D01*
X239182899Y-17211896D02*
X238810225Y-17291111D01*
X239974480Y-10551778D02*
X248670213Y-8703443D01*
X242611148Y-16483199D02*
X240922045Y-16842229D01*
X248670213Y-8703443D02*
X248749427Y-9076117D01*
X249383142Y-12057511D02*
X249594380Y-13051309D01*
X249594380Y-13051309D02*
X244625390Y-14107500D01*
X250836214Y-9658987D02*
X250711467Y-9072098D01*
X238018081Y-13564368D02*
G75*
G02*
X239974480Y-10551777I2484492J528098D01*
G01*
X242615090Y-16501745D02*
G75*
G02*
X244625390Y-14107500I2538396J-90250D01*
G01*
%TO.C,S6*%
X116264576Y-56245345D02*
X116264576Y-56626345D01*
X116264576Y-59674345D02*
X116264576Y-60055345D01*
X116645576Y-60055345D02*
X116264576Y-60055345D01*
X118804576Y-53705345D02*
X127694576Y-53705345D01*
X120150414Y-60055345D02*
X118423576Y-60055345D01*
X127694576Y-53705345D02*
X127694576Y-54086345D01*
X127694576Y-57134345D02*
X127694576Y-58150345D01*
X127694576Y-58150345D02*
X122614576Y-58150345D01*
X129614576Y-55090345D02*
X129614576Y-54490345D01*
X116264576Y-56245345D02*
G75*
G02*
X118804576Y-53705345I2540000J0D01*
G01*
X120150414Y-60074305D02*
G75*
G02*
X122614576Y-58150345I2464162J-616040D01*
G01*
%TO.C,S21*%
X273306861Y-44912448D02*
X273386076Y-45285122D01*
X274019790Y-48266516D02*
X274099005Y-48639191D01*
X274471679Y-48559976D02*
X274099005Y-48639191D01*
X275263260Y-41899858D02*
X283958993Y-40051523D01*
X277899928Y-47831279D02*
X276210825Y-48190309D01*
X283958993Y-40051523D02*
X284038207Y-40424197D01*
X284671922Y-43405591D02*
X284883160Y-44399389D01*
X284883160Y-44399389D02*
X279914170Y-45455580D01*
X286124994Y-41007067D02*
X286000247Y-40420178D01*
X273306861Y-44912448D02*
G75*
G02*
X275263260Y-41899857I2484492J528098D01*
G01*
X277903870Y-47849825D02*
G75*
G02*
X279914170Y-45455580I2538396J-90250D01*
G01*
%TO.C,S12*%
X182697171Y-91775318D02*
X182776386Y-92147992D01*
X183410100Y-95129386D02*
X183489315Y-95502061D01*
X183861989Y-95422846D02*
X183489315Y-95502061D01*
X184653570Y-88762728D02*
X193349303Y-86914393D01*
X187290238Y-94694149D02*
X185601135Y-95053179D01*
X193349303Y-86914393D02*
X193428517Y-87287067D01*
X194062232Y-90268461D02*
X194273470Y-91262259D01*
X194273470Y-91262259D02*
X189304480Y-92318450D01*
X195515304Y-87869937D02*
X195390557Y-87283048D01*
X182697171Y-91775318D02*
G75*
G02*
X184653570Y-88762727I2484492J528098D01*
G01*
X187294180Y-94712695D02*
G75*
G02*
X189304480Y-92318450I2538396J-90250D01*
G01*
%TO.C,S22*%
X88614577Y-114986308D02*
X88535363Y-115358982D01*
X88908037Y-115438196D02*
X88535363Y-115358982D01*
X89327506Y-111632240D02*
X89248292Y-112004914D01*
X92336286Y-116166893D02*
X90647183Y-115807863D01*
X92340097Y-109675840D02*
X101035829Y-111524175D01*
X100111662Y-115872041D02*
X95142672Y-114815850D01*
X100322900Y-114878244D02*
X100111662Y-115872041D01*
X101035829Y-111524175D02*
X100956615Y-111896850D01*
X102625915Y-113278100D02*
X102750662Y-112691212D01*
X89327506Y-111632240D02*
G75*
G02*
X92340097Y-109675840I2484495J-528095D01*
G01*
X92332344Y-116185439D02*
G75*
G02*
X95142672Y-114815850I2282232J-1114906D01*
G01*
%TO.C,S8*%
X160264576Y-56245345D02*
X160264576Y-56626345D01*
X160264576Y-59674345D02*
X160264576Y-60055345D01*
X160645576Y-60055345D02*
X160264576Y-60055345D01*
X162804576Y-53705345D02*
X171694576Y-53705345D01*
X164150414Y-60055345D02*
X162423576Y-60055345D01*
X171694576Y-53705345D02*
X171694576Y-54086345D01*
X171694576Y-57134345D02*
X171694576Y-58150345D01*
X171694576Y-58150345D02*
X166614576Y-58150345D01*
X173614576Y-55090345D02*
X173614576Y-54490345D01*
X160264576Y-56245345D02*
G75*
G02*
X162804576Y-53705345I2540000J0D01*
G01*
X164150414Y-60074305D02*
G75*
G02*
X166614576Y-58150345I2464162J-616040D01*
G01*
%TO.C,S11*%
X187479171Y-114272718D02*
X187558386Y-114645392D01*
X188192100Y-117626786D02*
X188271315Y-117999461D01*
X188643989Y-117920246D02*
X188271315Y-117999461D01*
X189435570Y-111260128D02*
X198131303Y-109411793D01*
X192072238Y-117191549D02*
X190383135Y-117550579D01*
X198131303Y-109411793D02*
X198210517Y-109784467D01*
X198844232Y-112765861D02*
X199055470Y-113759659D01*
X199055470Y-113759659D02*
X194086480Y-114815850D01*
X200297304Y-110367337D02*
X200172557Y-109780448D01*
X187479171Y-114272718D02*
G75*
G02*
X189435570Y-111260127I2484492J528098D01*
G01*
X192076180Y-117210095D02*
G75*
G02*
X194086480Y-114815850I2538396J-90250D01*
G01*
%TO.C,S9*%
X165604871Y-107165318D02*
X165684086Y-107537992D01*
X166317800Y-110519386D02*
X166397015Y-110892061D01*
X166769689Y-110812846D02*
X166397015Y-110892061D01*
X167561270Y-104152728D02*
X176257003Y-102304393D01*
X170197938Y-110084149D02*
X168508835Y-110443179D01*
X176257003Y-102304393D02*
X176336217Y-102677067D01*
X176969932Y-105658461D02*
X177181170Y-106652259D01*
X177181170Y-106652259D02*
X172212180Y-107708450D01*
X178423004Y-103259937D02*
X178298257Y-102673048D01*
X165604871Y-107165318D02*
G75*
G02*
X167561270Y-104152727I2484492J528098D01*
G01*
X170201880Y-110102695D02*
G75*
G02*
X172212180Y-107708450I2538396J-90250D01*
G01*
D11*
%TO.C,U1*%
X133610000Y-82395000D02*
X154610000Y-82395000D01*
X133610000Y-82695000D02*
X133610000Y-82395000D01*
X133610000Y-85195000D02*
X133610000Y-84795000D01*
X133610000Y-87795000D02*
X133610000Y-87395000D01*
X133610000Y-90295000D02*
X133610000Y-89895000D01*
X133610000Y-92895000D02*
X133610000Y-92495000D01*
X133610000Y-95395000D02*
X133610000Y-94995000D01*
X133610000Y-97895000D02*
X133610000Y-97495000D01*
X133610000Y-100495000D02*
X133610000Y-100095000D01*
X133610000Y-102995000D02*
X133610000Y-102595000D01*
X133610000Y-105595000D02*
X133610000Y-105195000D01*
X133610000Y-108095000D02*
X133610000Y-107695000D01*
X133610000Y-110595000D02*
X133610000Y-110195000D01*
X133610000Y-113195000D02*
X133610000Y-112795000D01*
X133610000Y-115695000D02*
X133610000Y-115295000D01*
X133610000Y-118295000D02*
X133610000Y-117895000D01*
X133610000Y-120795000D02*
X133610000Y-120395000D01*
X133610000Y-123395000D02*
X133610000Y-122995000D01*
X133610000Y-125895000D02*
X133610000Y-125495000D01*
X133610000Y-128395000D02*
X133610000Y-127995000D01*
X133610000Y-130995000D02*
X133610000Y-130595000D01*
X140410000Y-133395000D02*
X133610000Y-133395000D01*
X142610000Y-133395000D02*
X143010000Y-133395000D01*
X145210000Y-133395000D02*
X145610000Y-133395000D01*
X151603000Y-82395000D02*
X151603000Y-85062000D01*
X151603000Y-85062000D02*
X154610000Y-85062000D01*
X154610000Y-82695000D02*
X154610000Y-82395000D01*
X154610000Y-85195000D02*
X154610000Y-84795000D01*
X154610000Y-87795000D02*
X154610000Y-87395000D01*
X154610000Y-90295000D02*
X154610000Y-89895000D01*
X154610000Y-92895000D02*
X154610000Y-92495000D01*
X154610000Y-95395000D02*
X154610000Y-94995000D01*
X154610000Y-97895000D02*
X154610000Y-97495000D01*
X154610000Y-100495000D02*
X154610000Y-100095000D01*
X154610000Y-102995000D02*
X154610000Y-102595000D01*
X154610000Y-105595000D02*
X154610000Y-105195000D01*
X154610000Y-108095000D02*
X154610000Y-107695000D01*
X154610000Y-110595000D02*
X154610000Y-110195000D01*
X154610000Y-113195000D02*
X154610000Y-112795000D01*
X154610000Y-115695000D02*
X154610000Y-115295000D01*
X154610000Y-118295000D02*
X154610000Y-117895000D01*
X154610000Y-120795000D02*
X154610000Y-120395000D01*
X154610000Y-123395000D02*
X154610000Y-122995000D01*
X154610000Y-125895000D02*
X154610000Y-125495000D01*
X154610000Y-128395000D02*
X154610000Y-127995000D01*
X154610000Y-130995000D02*
X154610000Y-130595000D01*
X154610000Y-133395000D02*
X147810000Y-133395000D01*
%TO.C,R1*%
X137802500Y-16787258D02*
X137802500Y-16312742D01*
X138847500Y-16787258D02*
X138847500Y-16312742D01*
%TO.C,D1*%
X145615000Y-18400000D02*
X145615000Y-20400000D01*
X149475000Y-18400000D02*
X145615000Y-18400000D01*
X149475000Y-20400000D02*
X145615000Y-20400000D01*
%TO.C,J1*%
X139875000Y-10250000D02*
X139875000Y-17510000D01*
X141375000Y-17510000D02*
X139875000Y-17510000D01*
X149375000Y-10250000D02*
X149375000Y-17510000D01*
X149375000Y-17510000D02*
X147875000Y-17510000D01*
%TO.C,R2*%
X140087742Y-18327500D02*
X140562258Y-18327500D01*
X140087742Y-19372500D02*
X140562258Y-19372500D01*
%TD*%
M02*
