%TF.GenerationSoftware,KiCad,Pcbnew,8.0.7*%
%TF.CreationDate,2025-01-04T16:04:19-05:00*%
%TF.ProjectId,BubbleBox,42756262-6c65-4426-9f78-2e6b69636164,rev?*%
%TF.SameCoordinates,Original*%
%TF.FileFunction,Component,L2,Bot*%
%TF.FilePolarity,Positive*%
%FSLAX46Y46*%
G04 Gerber Fmt 4.6, Leading zero omitted, Abs format (unit mm)*
G04 Created by KiCad (PCBNEW 8.0.7) date 2025-01-04 16:04:19*
%MOMM*%
%LPD*%
G01*
G04 APERTURE LIST*
%TA.AperFunction,ComponentMain*%
%ADD10C,0.300000*%
%TD*%
%TA.AperFunction,ComponentOutline,Courtyard*%
%ADD11C,0.100000*%
%TD*%
%TA.AperFunction,ComponentPin*%
%ADD12P,0.360000X4X0.000000*%
%TD*%
%TA.AperFunction,ComponentPin*%
%ADD13C,0.100000*%
%TD*%
G04 APERTURE END LIST*
D10*
%TO.C,U1*%
%TO.CFtp,RPi_Pico_SMD_TH*%
%TO.CVal,Pi_Pico*%
%TO.CLbN,BubbleBox_Footprints*%
%TO.CMnt,TH*%
%TO.CRot,0*%
X144110000Y-107895000D03*
D11*
X155105000Y-81900000D02*
X155105000Y-133890000D01*
X133115000Y-133890000D01*
X133115000Y-81900000D01*
X155105000Y-81900000D01*
D12*
%TO.P,U1,1,GPIO0*%
X153000000Y-83765000D03*
X153000000Y-83765000D03*
D13*
%TO.P,U1,*%
X146835000Y-83895000D03*
X146535000Y-86925000D03*
X141685000Y-86925000D03*
X141385000Y-83895000D03*
%TO.P,U1,2,GPIO1*%
X153000000Y-86305000D03*
X153000000Y-86305000D03*
%TO.P,U1,3,GND*%
X153000000Y-88845000D03*
X153000000Y-88845000D03*
%TO.P,U1,4,GPIO2*%
X153000000Y-91385000D03*
X153000000Y-91385000D03*
%TO.P,U1,5,GPIO3*%
X153000000Y-93925000D03*
X153000000Y-93925000D03*
%TO.P,U1,6,GPIO4*%
X153000000Y-96465000D03*
X153000000Y-96465000D03*
%TO.P,U1,7,GPIO5*%
X153000000Y-99005000D03*
X153000000Y-99005000D03*
%TO.P,U1,8,GND*%
X153000000Y-101545000D03*
X153000000Y-101545000D03*
%TO.P,U1,9,GPIO6*%
X153000000Y-104085000D03*
X153000000Y-104085000D03*
%TO.P,U1,10,GPIO7*%
X153000000Y-106625000D03*
X153000000Y-106625000D03*
%TO.P,U1,11,GPIO8*%
X153000000Y-109165000D03*
X153000000Y-109165000D03*
%TO.P,U1,12,GPIO9*%
X153000000Y-111705000D03*
X153000000Y-111705000D03*
%TO.P,U1,13,GND*%
X153000000Y-114245000D03*
X153000000Y-114245000D03*
%TO.P,U1,14,GPIO10*%
X153000000Y-116785000D03*
X153000000Y-116785000D03*
%TO.P,U1,15,GPIO11*%
X153000000Y-119325000D03*
X153000000Y-119325000D03*
%TO.P,U1,16,GPIO12*%
X153000000Y-121865000D03*
X153000000Y-121865000D03*
%TO.P,U1,17,GPIO13*%
X153000000Y-124405000D03*
X153000000Y-124405000D03*
%TO.P,U1,18,GND*%
X153000000Y-126945000D03*
X153000000Y-126945000D03*
%TO.P,U1,19,GPIO14*%
X153000000Y-129485000D03*
X153000000Y-129485000D03*
%TO.P,U1,20,GPIO15*%
X153000000Y-132025000D03*
X153000000Y-132025000D03*
%TO.P,U1,21,GPIO16*%
X135220000Y-132025000D03*
X135220000Y-132025000D03*
%TO.P,U1,22,GPIO17*%
X135220000Y-129485000D03*
X135220000Y-129485000D03*
%TO.P,U1,23,GND*%
X135220000Y-126945000D03*
X135220000Y-126945000D03*
%TO.P,U1,24,GPIO18*%
X135220000Y-124405000D03*
X135220000Y-124405000D03*
%TO.P,U1,25,GPIO19*%
X135220000Y-121865000D03*
X135220000Y-121865000D03*
%TO.P,U1,26,GPIO20*%
X135220000Y-119325000D03*
X135220000Y-119325000D03*
%TO.P,U1,27,GPIO21*%
X135220000Y-116785000D03*
X135220000Y-116785000D03*
%TO.P,U1,28,GND*%
X135220000Y-114245000D03*
X135220000Y-114245000D03*
%TO.P,U1,29,GPIO22*%
X135220000Y-111705000D03*
X135220000Y-111705000D03*
%TO.P,U1,30,RUN*%
X135220000Y-109165000D03*
X135220000Y-109165000D03*
%TO.P,U1,31,GPIO26_ADC0*%
X135220000Y-106625000D03*
X135220000Y-106625000D03*
%TO.P,U1,32,GPIO27_ADC1*%
X135220000Y-104085000D03*
X135220000Y-104085000D03*
%TO.P,U1,33,AGND*%
X135220000Y-101545000D03*
X135220000Y-101545000D03*
%TO.P,U1,34,GPIO28_ADC2*%
X135220000Y-99005000D03*
X135220000Y-99005000D03*
%TO.P,U1,35,ADC_VREF*%
X135220000Y-96465000D03*
X135220000Y-96465000D03*
%TO.P,U1,36,3V3*%
X135220000Y-93925000D03*
X135220000Y-93925000D03*
%TO.P,U1,37,3V3_EN*%
X135220000Y-91385000D03*
X135220000Y-91385000D03*
%TO.P,U1,38,GND*%
X135220000Y-88845000D03*
X135220000Y-88845000D03*
%TO.P,U1,39,VSYS*%
X135220000Y-86305000D03*
X135220000Y-86305000D03*
%TO.P,U1,40,VBUS*%
X135220000Y-83765000D03*
X135220000Y-83765000D03*
%TO.P,U1,41,SWCLK*%
X146650000Y-131795000D03*
X146650000Y-131795000D03*
%TO.P,U1,42,GND*%
X144110000Y-131795000D03*
X144110000Y-131795000D03*
%TO.P,U1,43,SWDIO*%
X141570000Y-131795000D03*
X141570000Y-131795000D03*
%TO.P,U1,44,D+*%
X145126000Y-83892000D03*
%TO.P,U1,45,D-*%
X143094000Y-83892000D03*
%TD*%
D10*
%TO.C,R1*%
%TO.CFtp,R_0603_1608Metric*%
%TO.CVal,5K1*%
%TO.CLbN,Resistor_SMD*%
%TO.CMnt,SMD*%
%TO.CRot,90*%
X138325000Y-16550000D03*
D11*
X139050000Y-15075000D02*
X139050000Y-18025000D01*
X137600000Y-18025000D01*
X137600000Y-15075000D01*
X139050000Y-15075000D01*
D12*
%TO.P,R1,1*%
X138325000Y-15725000D03*
D13*
%TO.P,R1,2*%
X138325000Y-17375000D03*
%TD*%
D10*
%TO.C,D1*%
%TO.CFtp,D_SOD-123F*%
%TO.CVal,D_Schottky*%
%TO.CLbN,Diode_SMD*%
%TO.CMnt,SMD*%
%TO.CRot,180*%
X147825000Y-19400000D03*
D11*
X150020000Y-18255000D02*
X150020000Y-20545000D01*
X145630000Y-20545000D01*
X145630000Y-18255000D01*
X150020000Y-18255000D01*
D12*
%TO.P,D1,1,K*%
X146425000Y-19400000D03*
D13*
%TO.P,D1,2,A*%
X149225000Y-19400000D03*
%TD*%
D10*
%TO.C,J1*%
%TO.CFtp,USB-C_port_HC-TYPE-C-24P-DS10.0-CH2.75S-5A-04*%
%TO.CVal,USB_C_Receptacle*%
%TO.CLbN,BubbleBox_Footprints*%
%TO.CMnt,SMD*%
%TO.CRot,180*%
X144625000Y-12140000D03*
D11*
X150010000Y-7446000D02*
X150010000Y-18005000D01*
X139240000Y-18005000D01*
X139240000Y-7446000D01*
X150010000Y-7446000D01*
D12*
%TO.P,J1,A1,GND*%
X141875000Y-17160000D03*
D13*
%TO.P,J1,*%
X141025000Y-15150000D03*
X148225000Y-15150000D03*
%TO.P,J1,A2,TX1+*%
X142375000Y-17160000D03*
%TO.P,J1,A3,TX1-*%
X142875000Y-17160000D03*
%TO.P,J1,A4,VBUS*%
X143375000Y-17160000D03*
%TO.P,J1,A5,CC1*%
X143875000Y-17160000D03*
%TO.P,J1,A6,D+*%
X144375000Y-17160000D03*
%TO.P,J1,A7,D-*%
X144875000Y-17160000D03*
%TO.P,J1,A8,SBU1*%
X145375000Y-17160000D03*
%TO.P,J1,A9,VBUS*%
X145875000Y-17160000D03*
%TO.P,J1,A10,RX2-*%
X146375000Y-17160000D03*
%TO.P,J1,A11,RX2+*%
X146875000Y-17160000D03*
%TO.P,J1,A12,GND*%
X147375000Y-17160000D03*
%TO.P,J1,B1,GND*%
X147675000Y-15850000D03*
%TO.P,J1,B2,TX2+*%
X147025000Y-15150000D03*
%TO.P,J1,B3,TX2-*%
X146225000Y-15150000D03*
%TO.P,J1,B4,VBUS*%
X145825000Y-15850000D03*
%TO.P,J1,B5,CC2*%
X145425000Y-15150000D03*
%TO.P,J1,B6,D+*%
X145025000Y-15850000D03*
%TO.P,J1,B7,D-*%
X144225000Y-15850000D03*
%TO.P,J1,B8,SBU2*%
X143825000Y-15150000D03*
%TO.P,J1,B9,VBUS*%
X143425000Y-15850000D03*
%TO.P,J1,B10,RX1-*%
X143025000Y-15150000D03*
%TO.P,J1,B11,RX1+*%
X142225000Y-15150000D03*
%TO.P,J1,B12,GND*%
X141575000Y-15850000D03*
%TO.P,J1,S1,SHIELD*%
X140125000Y-11050000D03*
X140125000Y-16710000D03*
X149115000Y-11050000D03*
X149125000Y-16710000D03*
%TD*%
D10*
%TO.C,R2*%
%TO.CFtp,R_0603_1608Metric*%
%TO.CVal,5K1*%
%TO.CLbN,Resistor_SMD*%
%TO.CMnt,SMD*%
%TO.CRot,0*%
X140325000Y-18850000D03*
D11*
X141800000Y-18125000D02*
X141800000Y-19575000D01*
X138850000Y-19575000D01*
X138850000Y-18125000D01*
X141800000Y-18125000D01*
D12*
%TO.P,R2,1*%
X141150000Y-18850000D03*
D13*
%TO.P,R2,2*%
X139500000Y-18850000D03*
%TD*%
M02*
