M48
; DRILL file {KiCad 8.0.7} date 2024-12-15T02:37:47-0500
; FORMAT={-:-/ absolute / inch / decimal}
; #@! TF.CreationDate,2024-12-15T02:37:47-05:00
; #@! TF.GenerationSoftware,Kicad,Pcbnew,8.0.7
; #@! TF.FileFunction,NonPlated,1,2,NPTH
FMAT,2
INCH
; #@! TA.AperFunction,NonPlated,NPTH,ComponentDrill
T1C0.0256
; #@! TA.AperFunction,NonPlated,NPTH,ComponentDrill
T2C0.0276
; #@! TA.AperFunction,NonPlated,NPTH,ComponentDrill
T3C0.0390
; #@! TA.AperFunction,NonPlated,NPTH,ComponentDrill
T4C0.0591
; #@! TA.AperFunction,NonPlated,NPTH,ComponentDrill
T5C0.0670
; #@! TA.AperFunction,NonPlated,NPTH,ComponentDrill
T6C0.0709
; #@! TA.AperFunction,NonPlated,NPTH,ComponentDrill
T7C0.1181
; #@! TA.AperFunction,NonPlated,NPTH,ComponentDrill
T8C0.1570
; #@! TA.AperFunction,NonPlated,NPTH,ComponentDrill
T9C0.1969
%
G90
G05
T2
X5.5522Y-0.5965
T3
X0.1105Y-2.0064
X1.3198Y-1.6195
X2.4308Y-1.6946
X2.6109Y-0.8474
X3.4108Y-2.3859
X3.4896Y-4.7371
X4.1625Y-5.343
X4.6218Y-2.5547
X5.488Y-2.5547
X6.3541Y-2.5547
X6.6342Y-4.5428
X6.8224Y-5.4285
X7.3071Y-3.9369
X7.394Y-1.6242
X7.4953Y-4.8226
X7.5741Y-2.4714
X8.1683Y-4.2167
X8.3741Y-0.9329
X8.5541Y-1.7801
X9.4851Y-0.8577
X9.6652Y-1.7049
X10.6943Y-1.2447
X10.8744Y-2.0919
T4
X5.5781Y-3.4222
X5.7691Y-3.4222
T5
X0.1341Y-1.8424
X0.1503Y-1.8458
X0.5416Y-1.929
X0.5577Y-1.9324
X1.3434Y-1.4554
X1.3596Y-1.4589
X1.7508Y-1.542
X1.767Y-1.5455
X2.4544Y-1.5306
X2.4706Y-1.534
X2.6345Y-0.6834
X2.6506Y-0.6868
X2.8618Y-1.6172
X2.878Y-1.6206
X3.0419Y-0.77
X3.0581Y-0.7734
X3.4344Y-2.2219
X3.4506Y-2.2253
X3.5132Y-4.5731
X3.5294Y-4.5765
X3.8419Y-2.3085
X3.858Y-2.3119
X3.9206Y-4.6597
X3.9368Y-4.6631
X4.1861Y-5.179
X4.2023Y-5.1824
X4.5935Y-5.2656
X4.6097Y-5.269
X4.6108Y-2.3894
X4.6273Y-2.3894
X5.0273Y-2.3894
X5.0439Y-2.3894
X5.477Y-2.3894
X5.4935Y-2.3894
X5.8935Y-2.3894
X5.91Y-2.3894
X6.3431Y-2.3894
X6.3596Y-2.3894
X6.589Y-4.3833
X6.6052Y-4.3799
X6.7596Y-2.3894
X6.7762Y-2.3894
X6.7773Y-5.269
X6.7934Y-5.2656
X6.9964Y-4.2967
X7.0126Y-4.2933
X7.1847Y-5.1824
X7.2009Y-5.179
X7.2619Y-3.7774
X7.2781Y-3.774
X7.3488Y-1.4647
X7.365Y-1.4613
X7.4502Y-4.6631
X7.4664Y-4.6597
X7.5289Y-2.3119
X7.5451Y-2.3085
X7.6694Y-3.6908
X7.6855Y-3.6874
X7.7563Y-1.3781
X7.7725Y-1.3747
X7.8576Y-4.5765
X7.8738Y-4.5731
X7.9364Y-2.2253
X7.9525Y-2.2219
X8.1231Y-4.0572
X8.1393Y-4.0538
X8.3289Y-0.7734
X8.3451Y-0.77
X8.509Y-1.6206
X8.5251Y-1.6172
X8.5305Y-3.9706
X8.5467Y-3.9672
X8.7363Y-0.6868
X8.7525Y-0.6834
X8.9164Y-1.534
X8.9326Y-1.5306
X9.4399Y-0.6982
X9.4561Y-0.6948
X9.62Y-1.5455
X9.6362Y-1.542
X9.8473Y-0.6116
X9.8635Y-0.6082
X10.0274Y-1.4589
X10.0436Y-1.4554
X10.6491Y-1.0852
X10.6653Y-1.0818
X10.8292Y-1.9324
X10.8454Y-1.929
X11.0566Y-0.9986
X11.0728Y-0.9952
X11.2367Y-1.8458
X11.2528Y-1.8424
T6
X5.5663Y-3.303
X5.7809Y-3.303
T7
X0.138Y-2.0324
X0.22Y-1.7584
X0.3942Y-1.6602
X0.399Y-2.1301
X0.4853Y-1.7126
X0.5692Y-1.7839
X0.5696Y-1.782
X1.3473Y-1.6454
X1.4292Y-1.3714
X1.6035Y-1.2732
X1.6082Y-1.7432
X1.6946Y-1.3256
X1.7784Y-1.397
X1.7788Y-1.395
X2.4583Y-1.7206
X2.5403Y-1.4466
X2.6384Y-0.8734
X2.7145Y-1.3484
X2.7193Y-1.8183
X2.7203Y-0.5994
X2.8056Y-1.4008
X2.8894Y-1.4721
X2.8898Y-1.4702
X2.8946Y-0.5012
X2.8993Y-0.9711
X2.9857Y-0.5535
X3.0695Y-0.6249
X3.0699Y-0.623
X3.4383Y-2.4119
X3.5171Y-4.7631
X3.5203Y-2.1379
X3.5991Y-4.4891
X3.6945Y-2.0397
X3.6993Y-2.5096
X3.7733Y-4.3909
X3.778Y-4.8608
X3.7856Y-2.0921
X3.8644Y-4.4433
X3.8695Y-2.1634
X3.8699Y-2.1615
X3.9482Y-4.5146
X3.9486Y-4.5127
X4.19Y-5.369
X4.272Y-5.095
X4.4462Y-4.9968
X4.451Y-5.4667
X4.5373Y-5.0492
X4.6212Y-5.1205
X4.6216Y-5.1186
X4.6541Y-2.5744
X4.6773Y-2.2894
X4.8273Y-2.1571
X4.9273Y-2.1894
X4.9297Y-2.6158
X5.0242Y-2.2398
X5.0242Y-2.2417
X5.5203Y-2.5744
X5.5435Y-2.2894
X5.6935Y-2.1571
X5.7935Y-2.1894
X5.7958Y-2.6158
X5.8903Y-2.2398
X5.8903Y-2.2417
X6.3864Y-2.5744
X6.4096Y-2.2894
X6.5596Y-2.1571
X6.6333Y-4.2717
X6.6596Y-2.1894
X6.662Y-2.6158
X6.6698Y-4.5553
X6.7525Y-4.1111
X6.7565Y-2.2398
X6.7565Y-2.2417
X6.8216Y-5.1574
X6.857Y-4.1219
X6.8581Y-5.441
X6.9408Y-4.9968
X6.948Y-4.5385
X6.9622Y-4.151
X6.9627Y-4.153
X7.0453Y-5.0076
X7.1363Y-5.4242
X7.1505Y-5.0368
X7.1509Y-5.0387
X7.3062Y-3.6658
X7.3428Y-3.9494
X7.3931Y-1.3531
X7.4254Y-3.5052
X7.4297Y-1.6367
X7.4945Y-4.5515
X7.5124Y-1.1925
X7.53Y-3.516
X7.531Y-4.8351
X7.5732Y-2.2003
X7.6098Y-2.4839
X7.6137Y-4.3909
X7.6169Y-1.2033
X7.6209Y-3.9325
X7.6352Y-3.5451
X7.6356Y-3.5471
X7.6924Y-2.0397
X7.7078Y-1.6198
X7.7182Y-4.4017
X7.7221Y-1.2324
X7.7225Y-1.2344
X7.797Y-2.0505
X7.8092Y-4.8183
X7.8234Y-4.4309
X7.8238Y-4.4328
X7.8879Y-2.4671
X7.9022Y-2.0796
X7.9026Y-2.0816
X8.1674Y-3.9456
X8.2039Y-4.2292
X8.2866Y-3.785
X8.3732Y-0.6618
X8.3911Y-3.7958
X8.4097Y-0.9454
X8.4821Y-4.2124
X8.4924Y-0.5012
X8.4964Y-3.825
X8.4968Y-3.8269
X8.5533Y-1.509
X8.5898Y-1.7926
X8.5969Y-0.512
X8.6725Y-1.3484
X8.6879Y-0.9285
X8.7021Y-0.5411
X8.7026Y-0.543
X8.777Y-1.3592
X8.868Y-1.7757
X8.8822Y-1.3883
X8.8826Y-1.3903
X9.4842Y-0.5866
X9.5207Y-0.8702
X9.6034Y-0.426
X9.6643Y-1.4338
X9.7008Y-1.7175
X9.7079Y-0.4368
X9.7835Y-1.2732
X9.7989Y-0.8534
X9.8132Y-0.466
X9.8136Y-0.4679
X9.888Y-1.284
X9.979Y-1.7006
X9.9932Y-1.3132
X9.9936Y-1.3151
X10.6934Y-0.9736
X10.73Y-1.2572
X10.8127Y-0.813
X10.8735Y-1.8208
X10.9101Y-2.1044
X10.9172Y-0.8238
X10.9927Y-1.6602
X11.0081Y-1.2403
X11.0224Y-0.8529
X11.0228Y-0.8549
X11.0973Y-1.671
X11.1882Y-2.0876
X11.2025Y-1.7001
X11.2029Y-1.7021
T8
X0.3459Y-1.8874
X1.5552Y-1.5004
X2.6662Y-1.5756
X2.8463Y-0.7284
X3.6462Y-2.2669
X3.725Y-4.6181
X4.3979Y-5.224
X4.8273Y-2.3894
X5.6935Y-2.3894
X6.5596Y-2.3894
X6.8008Y-4.3383
X6.9891Y-5.224
X7.4737Y-3.7324
X7.5607Y-1.4197
X7.662Y-4.6181
X7.7407Y-2.2669
X8.3349Y-4.0122
X8.5407Y-0.7284
X8.7208Y-1.5756
X9.6517Y-0.6532
X9.8318Y-1.5004
X10.861Y-1.0402
X11.041Y-1.8874
T9
X0.3459Y-1.8874
X1.5552Y-1.5004
X2.6662Y-1.5756
X2.8463Y-0.7284
X3.6462Y-2.2669
X3.725Y-4.6181
X4.3979Y-5.224
X4.8273Y-2.3894
X5.6935Y-2.3894
X6.5596Y-2.3894
X6.8008Y-4.3383
X6.9891Y-5.224
X7.4737Y-3.7324
X7.5607Y-1.4197
X7.662Y-4.6181
X7.7407Y-2.2669
X8.3349Y-4.0122
X8.5407Y-0.7284
X8.7208Y-1.5756
X9.6517Y-0.6532
X9.8318Y-1.5004
X10.861Y-1.0402
X11.041Y-1.8874
T1
G00X5.8297Y-0.5965
M15
G01X5.8415Y-0.5965
M16
G05
M30
